<?xml version="1.0" encoding="UTF-8" standalone="no"?>
<!-- Created with Inkscape (http://www.inkscape.org/) -->

<svg
   width="8.234437mm"
   height="6.6628122mm"
   viewBox="0 0 8.234437 6.6628122"
   version="1.1"
   id="svg1"
   xml:space="preserve"
   inkscape:version="1.3.2 (091e20e, 2023-11-25, custom)"
   sodipodi:docname="saque.svg"
   xmlns:inkscape="http://www.inkscape.org/namespaces/inkscape"
   xmlns:sodipodi="http://sodipodi.sourceforge.net/DTD/sodipodi-0.dtd"
   xmlns="http://www.w3.org/2000/svg"
   xmlns:svg="http://www.w3.org/2000/svg"><sodipodi:namedview
     id="namedview1"
     pagecolor="#ffffff"
     bordercolor="#000000"
     borderopacity="0.25"
     inkscape:showpageshadow="2"
     inkscape:pageopacity="0.0"
     inkscape:pagecheckerboard="0"
     inkscape:deskcolor="#d1d1d1"
     inkscape:document-units="mm"
     inkscape:zoom="2.9611953"
     inkscape:cx="485.95242"
     inkscape:cy="275.05785"
     inkscape:window-width="1920"
     inkscape:window-height="1009"
     inkscape:window-x="-8"
     inkscape:window-y="-8"
     inkscape:window-maximized="1"
     inkscape:current-layer="layer1" /><defs
     id="defs1" /><g
     inkscape:label="Capa 1"
     inkscape:groupmode="layer"
     id="layer1"
     transform="translate(-124.04592,-69.535704)"><path
       id="path1"
       style="fill:#1a1a1a;stroke-width:1.73858"
       d="m 126.32543,69.588766 c -0.23165,-0.120048 -0.51676,-0.02953 -0.63674,0.202148 l -1.37725,1.750932 c 0,0 -0.60209,0.35622 0.007,0.894345 0.60886,0.538116 1.07589,1.027501 1.07589,1.027501 0,0 0.57304,0.643119 -0.43184,2.027636 -1.00487,1.384514 1.69532,0.309245 1.69532,0.309245 0,0 1.28363,-1.809083 1.58774,-1.775239 0.26296,0.02926 2.53795,0.552444 3.17643,0.675281 0.051,0.0175 0.10467,0.02612 0.1586,0.02549 0.003,-5e-4 0.013,0.0018 0.0135,9.1e-4 2.8e-4,-1.95e-4 3.9e-4,-10e-4 6e-4,-0.0012 0.17013,-0.0058 0.32399,-0.102643 0.40274,-0.253561 0.1199,-0.231568 0.0295,-0.516495 -0.20206,-0.636509 -0.025,-0.01263 -0.0511,-0.02301 -0.0779,-0.03104 l 2.5e-4,-8.8e-4 -0.0103,-0.0019 c -0.0343,-0.0102 -0.0695,-0.01638 -0.1051,-0.01861 -3.2e-4,-3.2e-5 -6.5e-4,-6.8e-5 -9.7e-4,-1e-4 l -3.05004,-0.539577 c 0,0 -2.53237,-0.347021 -2.52226,-0.366527 l 0.0101,-0.01946 -0.93764,-0.906496 c 0.47529,-0.573909 0.95279,-1.153657 1.42594,-1.725706 0.12003,-0.231586 0.0296,-0.516623 -0.20197,-0.636669 z m 1.31254,1.573462 c -0.45785,-0.237191 -1.02128,-0.05832 -1.25849,0.399513 -0.23719,0.457847 -0.0583,1.021283 0.39951,1.258492 0.45785,0.23719 1.02128,0.05832 1.25849,-0.399515 0.23719,-0.457846 0.0583,-1.021281 -0.39951,-1.25849 z"
       inkscape:export-filename="saque.svg"
       inkscape:export-xdpi="96"
       inkscape:export-ydpi="96"
       sodipodi:nodetypes="cccscscscccccccccsccscccccsssss" /><path
       d="m 131.3467,71.259637 c -0.51564,3e-6 -0.93365,0.287381 -0.93366,0.641882 1e-5,0.354501 0.41802,0.641878 0.93366,0.641881 0.51564,-7e-6 0.93364,-0.287383 0.93365,-0.641881 0,-0.354498 -0.41801,-0.641875 -0.93365,-0.641882 z"
       style="fill:#1a1a1a;stroke-width:1.44155"
       id="path1-5" /><path
       style="fill:none;stroke:#000000;stroke-width:0.079375;stroke-dasharray:none;stroke-opacity:1"
       d="m 130.34058,71.772615 -2.05335,-0.473853"
       id="path8" /><path
       style="fill:none;stroke:#000000;stroke-width:0.079375;stroke-dasharray:none;stroke-opacity:1"
       d="m 130.2774,71.290168 c -1.92699,-0.47385 -1.92699,-0.47385 -1.92699,-0.47385"
       id="path9" /></g></svg>
