<?xml version="1.0" encoding="UTF-8" standalone="no"?>
<!-- Created with Inkscape (http://www.inkscape.org/) -->

<svg
   width="5.1447601mm"
   height="7.9203019mm"
   viewBox="0 0 5.1447601 7.9203019"
   version="1.1"
   id="svg1"
   xml:space="preserve"
   inkscape:version="1.3.2 (091e20e, 2023-11-25, custom)"
   sodipodi:docname="saque.svg"
   inkscape:export-filename="finta.svg"
   inkscape:export-xdpi="96"
   inkscape:export-ydpi="96"
   xmlns:inkscape="http://www.inkscape.org/namespaces/inkscape"
   xmlns:sodipodi="http://sodipodi.sourceforge.net/DTD/sodipodi-0.dtd"
   xmlns="http://www.w3.org/2000/svg"
   xmlns:svg="http://www.w3.org/2000/svg"><sodipodi:namedview
     id="namedview1"
     pagecolor="#ffffff"
     bordercolor="#000000"
     borderopacity="0.25"
     inkscape:showpageshadow="2"
     inkscape:pageopacity="0.0"
     inkscape:pagecheckerboard="0"
     inkscape:deskcolor="#d1d1d1"
     inkscape:document-units="mm"
     inkscape:zoom="2.9611953"
     inkscape:cx="485.95242"
     inkscape:cy="275.05785"
     inkscape:window-width="1920"
     inkscape:window-height="1009"
     inkscape:window-x="-8"
     inkscape:window-y="-8"
     inkscape:window-maximized="1"
     inkscape:current-layer="layer1" /><defs
     id="defs1" /><g
     inkscape:label="Capa 1"
     inkscape:groupmode="layer"
     id="layer1"
     transform="translate(-126.068,-70.32395)"><path
       id="path15"
       style="fill:#ff0000;stroke-width:1.44287"
       d="m 126.12302,74.404516 c -0.3845,1.36672 1.37256,1.339815 1.37256,1.339815 0,0 0.80353,-3.415729 1.03848,-3.512094 0.0308,-0.01263 -0.25226,0.09453 0.49366,-0.208024 0.48586,-0.19707 2.07591,-0.810032 2.18111,-0.911952 0.0268,-0.214749 -0.0843,-0.239058 -0.29906,-0.265953 -0.0231,-0.0027 -0.0464,-0.0032 -0.0695,-0.0017 l -6e-5,-7.57e-4 -0.009,0.0015 c -0.87226,0.156547 -1.52568,0.685464 -2.39813,0.842862 0,0 -1.8269,0.321063 -2.12007,0.717542 -0.29316,0.396479 -0.1904,1.99881 -0.1904,1.99881 z m 1.00118,-4.074501 c -0.42463,-0.0531 -0.81191,0.248084 -0.86502,0.672709 -0.0531,0.424629 0.2481,0.811897 0.67271,0.865018 0.42463,0.0531 0.8119,-0.248085 0.86502,-0.67271 0.0531,-0.424629 -0.24811,-0.811896 -0.67271,-0.865017 z m 0.96181,2.357432 c 1.12204,-0.3723 2.81851,-0.336816 2.89172,-0.908603 0.0268,-0.214749 -0.0843,-0.239058 -0.29906,-0.265953 -1.63165,0.405705 -1.78686,0.613248 -2.47628,0.841856"
       inkscape:export-filename="bloqueo.svg"
       inkscape:export-xdpi="96"
       inkscape:export-ydpi="96"
       sodipodi:nodetypes="scsccccccczcscsssccccc" /><rect
       style="fill:#ff0000;fill-opacity:1;stroke:#ff0000;stroke-width:0.233726;stroke-dasharray:none;stroke-opacity:1"
       id="rect15"
       width="0.11072275"
       height="5.0729408"
       x="130.69836"
       y="73.054443" /></g></svg>
