<?xml version="1.0" encoding="UTF-8" standalone="no"?>
<!-- Created with Inkscape (http://www.inkscape.org/) -->

<svg
   width="90.147087mm"
   height="90.489365mm"
   viewBox="0 0 90.147087 90.489365"
   version="1.1"
   id="svg1"
   xml:space="preserve"
   xmlns:inkscape="http://www.inkscape.org/namespaces/inkscape"
   xmlns:sodipodi="http://sodipodi.sourceforge.net/DTD/sodipodi-0.dtd"
   xmlns="http://www.w3.org/2000/svg"
   xmlns:svg="http://www.w3.org/2000/svg"><sodipodi:namedview
     id="namedview1"
     pagecolor="#ffffff"
     bordercolor="#000000"
     borderopacity="0.25"
     inkscape:showpageshadow="2"
     inkscape:pageopacity="0.0"
     inkscape:pagecheckerboard="0"
     inkscape:deskcolor="#d1d1d1"
     inkscape:document-units="mm" /><defs
     id="defs1" /><g
     inkscape:label="Capa 1"
     inkscape:groupmode="layer"
     id="layer1"
     transform="translate(-73.747721,-41.159404)"><path
       style="fill:#166037;stroke:none"
       d="m 75.864435,106.24182 h 12.435418 c 0.867421,-10.975763 4.283452,-22.275993 6.455752,-33.072923 1.308158,-6.50191 2.366161,-12.64987 8.360915,-16.64098 6.39975,-4.26074 15.72058,-2.6736 23.01875,-2.6736 l 2.38125,-12.17084 c -3.37442,-0.99743 -7.85921,-0.26458 -11.37708,-0.26458 -8.14137,0 -16.15821,0.53491 -22.75417,5.94373 -11.992173,9.83383 -12.767055,28.55485 -15.414839,42.73961 -0.980391,5.25217 -2.873468,10.806073 -3.105996,16.139583 M 119.78527,94.070987 h -0.52916 c -0.54388,-3.43147 1.05273,-7.96803 1.69039,-11.37709 1.0369,-5.54346 1.91874,-11.11843 2.91981,-16.66875 0.62208,-3.44907 1.66741,-7.07594 1.7398,-10.58333 h -12.17084 l -7.52715,37.57083 -2.52702,13.229173 h 26.19376 l 11.22478,-47.095843 4.12105,-17.72708 h -8.73125 l -3.30382,0.27193 -1.28637,3.69682 -2.32327,9.78958 -9.49071,38.89376 m -11.1125,-20.37292 -9.260416,0.26458 -3.621077,0.15965 -1.088548,3.01535 -1.640376,8.99584 h 9.789587 l 3.66721,-0.42423 1.62445,-6.98411 0.52917,-5.02708 m 29.10417,0 -2.64583,12.17083 c 3.37443,0.99743 7.85921,0.26459 11.37708,0.26459 1.96562,0 4.10142,-0.17474 5.42029,1.59913 1.6413,2.20755 -0.72772,4.84491 -2.77445,5.6814 -3.20355,1.30927 -8.21127,0.39238 -11.64167,0.39238 -1.11224,0 -3.41559,-0.43443 -4.34215,0.27194 -0.76083,0.58003 -0.77073,2.30022 -0.95033,3.16765 -0.61841,2.986793 -1.46037,5.968963 -1.85127,8.995833 8.45219,0 18.29866,1.55906 25.66458,-3.46428 8.04437,-5.486033 11.49814,-21.377903 1.85209,-27.246783 -5.49956,-3.34606 -13.91768,-1.83269 -20.10834,-1.83269 m -24.60625,35.189593 0.79375,-1.32292 c -3.37391,0.52271 -6.14255,7.11119 -1.32292,7.2787 3.36579,0.11697 3.62588,-5.32527 0.52917,-5.95578 m -38.893755,0 v 5.82083 h 1.322917 v -2.64583 h 1.852083 v -0.52917 h -1.852083 v -1.5875 c 0.976742,-0.0318 1.528593,-0.0829 1.852083,-1.05833 h -3.175 m 3.704167,0 v 5.82083 h 3.704167 c -0.268261,-0.80806 -3.890403,-2.01041 -1.06507,-2.60664 0.334005,-0.0705 0.728653,-0.0352 1.06507,-0.0392 v -0.52917 c -1.324637,-0.0157 -2.153152,-0.15724 -2.38125,-1.5875 h 2.116667 v -1.05833 h -3.439584 m 4.497917,0 v 5.82083 c 0.988138,0 2.251462,0.19081 3.146215,-0.31195 1.608463,-0.90378 1.712343,-3.94705 0.233144,-5.01728 -0.928551,-0.67183 -2.299291,-0.49148 -3.379359,-0.4916 m 5.291667,0 v 5.82083 h 3.439584 c -0.376544,-1.13467 -1.323169,-1.06708 -2.38125,-1.32292 l 0.264583,-1.32291 h 2.116667 v -0.52917 h -2.116667 l -0.264583,-1.32292 c 1.058077,-0.25584 2.004706,-0.18825 2.38125,-1.32291 h -3.439584 m 4.233334,0 v 5.82083 h 1.322917 v -2.38125 c 0.835672,0.64895 1.336958,2.06055 2.3984,2.32368 1.644528,0.40767 3.776914,-1.88938 4.745353,0.0576 h 1.5875 c -0.56068,-1.64712 -1.42907,-5.22287 -3.175003,-5.82083 l -2.38125,5.55625 c -1.463759,-3.40393 0.20478,-5.55625 -4.497917,-5.55625 m 14.81667,4.7625 c -0.82242,-0.002 -1.85733,0.1136 -2.5311,-0.46098 -1.54154,-1.31463 0.34695,-4.11195 2.00193,-2.44944 1.55905,-2.32775 -3.10902,-2.37917 -3.83278,10e-4 -0.87359,2.87293 3.32506,6.1097 4.36195,2.9094 m 0.79375,1.05833 1.5875,-0.26458 v -5.55625 c -2.59635,0.20229 -1.32117,3.95635 -1.5875,5.82083 m 8.46667,-5.82083 v 5.82083 h 1.32291 v -3.175 l 3.43959,3.175 v -5.82083 h -1.32292 v 3.175 l -3.43958,-3.175 m 8.99583,0 -2.38125,5.82083 h 1.32292 l 0.26458,-1.05833 3.70417,1.05833 -2.38125,-5.82083 h -0.52917 m 3.43958,0 v 5.82083 h 1.32292 v -3.175 h 0.26458 c 0.57786,1.29685 1.50779,2.74629 2.91042,3.175 v -5.82083 h -1.32292 v 3.175 h -0.26458 l -2.11667,-3.175 h -0.79375 m 5.55626,0 v 5.82083 c 1.04447,0 2.41534,0.20785 3.35241,-0.3487 1.60705,-0.95447 1.50544,-3.97738 0.0518,-5.01116 -0.93923,-0.66797 -2.31574,-0.46097 -3.40426,-0.46097 m 7.14375,0 -2.38125,5.82083 h 1.32291 c 1.0162,-1.66779 2.52075,-0.10889 3.96875,0 l -2.38125,-5.82083 h -0.52916 m 3.43958,0 v 5.82083 h 3.70417 v -1.05833 h -2.38125 v -4.7625 h -1.32292 m 4.23333,0 c 0,1.43718 -0.4263,3.70885 0.31195,4.99176 0.75505,1.31211 2.89029,1.31927 3.64946,0 0.71839,-1.2484 0.27193,-3.58696 0.27193,-4.99176 h -1.05834 c 0,0.83048 0.47883,4.85787 -1.03465,4.5955 -1.32895,-0.23039 -0.81743,-3.6464 -0.81743,-4.5955 h -1.32292 m 5.02709,0 c 0.3852,1.16061 1.28313,1.05445 2.38125,1.05833 l -2.64584,4.7625 c 1.67389,0 5.35361,0.76215 6.08542,-1.05833 l 3.70417,1.05833 -2.38125,-5.82083 h -0.52917 l -2.11667,5.29166 -2.91041,-0.52916 2.64583,-4.7625 h -4.23333 m -70.114594,4.7625 v -3.70417 c 2.288826,0.36398 2.288822,3.34019 0,3.70417 m 9.525001,-2.11667 v -1.5875 c 1.423157,0.23753 1.423157,1.34997 0,1.5875 m 19.081243,-1.41233 c 1.75302,-0.5895 2.07602,2.79765 0.70617,3.36425 -1.82585,0.7552 -2.335,-2.81652 -0.70617,-3.36425 m 22.98751,3.529 v -3.70417 c 2.44819,0.18913 2.44821,3.51503 0,3.70417 m -35.983336,-2.11667 0.529167,1.5875 h -1.322917 l 0.79375,-1.5875 m 25.929166,0 0.52917,1.5875 h -1.32292 l 0.79375,-1.5875 m 16.13959,0 0.52917,1.5875 h -1.32292 l 0.79375,-1.5875 m 19.31458,0 0.52917,1.5875 h -1.32292 l 0.79375,-1.5875 m -87.047922,7.40833 c 0.899173,3.28754 2.628978,6.39881 3.968547,9.525 0.355318,0.82922 0.852617,2.93466 2.072161,2.78711 1.054084,-0.12752 1.512077,-1.98412 1.856983,-2.78711 1.340498,-3.12087 3.0744,-6.25725 4.00856,-9.525 l -2.307754,-0.57776 -1.206958,1.90068 -2.306121,5.55625 -3.439584,-7.67292 -2.645834,0.79375 m 17.462502,-0.6537 c -7.280883,1.68305 -4.640354,14.74603 3.439584,12.98582 4.639627,-1.01075 5.577366,-8.26845 2.76955,-11.48937 -1.471559,-1.68807 -4.121402,-1.97905 -6.209134,-1.49645 m 10.3188,-0.14005 v 9.26042 c 0,0.93428 -0.34414,2.76665 0.27194,3.54452 0.69946,0.88315 6.63432,0.84425 7.50591,0.1523 2.05749,-1.63342 -1.65581,-2.10926 -2.48618,-2.10932 h -2.38125 v -10.84792 h -2.91042 m 10.58334,0 v 13.22917 c 1.95553,0 5.56485,0.70644 7.32422,-0.15965 0.76504,-0.37661 0.76503,-1.68534 0,-2.06195 -1.12677,-0.55468 -3.17449,-0.15965 -4.41381,-0.15965 v -3.70417 l 4.7625,0.26459 v -1.5875 h -4.7625 v -3.43959 c 1.17315,0 3.0811,0.36616 4.14923,-0.15964 0.76504,-0.37661 0.76503,-1.68535 0,-2.06196 -1.70234,-0.83801 -5.16881,-0.15965 -7.05964,-0.15965 m 10.84791,0 v 13.22917 l 2.63849,-0.42423 0.27193,-3.54452 v -9.26042 h -2.91042 m 6.35,0 v 13.22917 c 2.34692,0 5.88347,0.64751 7.9326,-0.72168 2.47417,-1.65319 1.92984,-5.23059 -0.78884,-6.15749 2.02568,-1.4594 2.83681,-4.80043 -0.004,-6.02498 -1.99771,-0.86111 -4.99701,-0.32502 -7.13967,-0.32502 m 15.87501,0.14087 c -7.30674,1.74071 -4.61049,14.7387 3.43958,12.985 4.63963,-1.01075 5.57736,-8.26844 2.76955,-11.48937 -1.46468,-1.68018 -4.12858,-1.99129 -6.20913,-1.49563 m 10.31866,-0.14087 v 9.26042 c 0,0.93427 -0.34414,2.76666 0.27193,3.54452 0.69947,0.88315 6.63432,0.84425 7.50592,0.1523 2.05749,-1.63342 -1.65582,-2.10926 -2.48619,-2.10932 h -2.38125 v -10.84792 h -2.91041 m -23.28334,5.82084 v -3.70417 c 3.93652,0.033 3.93947,3.69286 0,3.70417 m -39.951065,-3.32383 c 4.227904,-1.11474 4.800799,7.34498 1.582395,8.23597 -4.417942,1.22307 -5.133667,-7.29963 -1.582395,-8.23597 m 53.975005,0 c 4.2279,-1.11474 4.80081,7.34498 1.58239,8.23597 -4.38652,1.21437 -5.13411,-7.29952 -1.58239,-8.23597 m -14.02394,8.35091 v -3.70417 c 1.4373,0 6.01112,1.36126 3.06026,3.39222 -0.79137,0.54468 -2.14903,0.31195 -3.06026,0.31195 z"
       id="path8" /></g></svg>
