<?xml version="1.0" encoding="UTF-8" standalone="no"?>
<!-- Created with Inkscape (http://www.inkscape.org/) -->

<svg
   width="125.68971mm"
   height="143.98752mm"
   viewBox="0 0 125.68971 143.98752"
   version="1.1"
   id="svg1"
   xml:space="preserve"
   xmlns="http://www.w3.org/2000/svg"
   xmlns:svg="http://www.w3.org/2000/svg"><defs
     id="defs1" /><g
     id="layer1"
     transform="translate(-244.40337,-687.52401)"><g
       id="g6"
       transform="translate(-168.24867,374.13545)"><path
         id="path122"
         style="display:inline;fill:#f9ecb7;stroke-width:0.15"
         d="m 467.40457,314.53259 c -0.0758,10e-4 -0.15873,0.017 -0.23513,0.0475 -0.19297,0.0772 -0.13554,0.13465 0.14625,0.14625 0.25498,0.0105 0.39769,-0.0467 0.31729,-0.12713 -0.0402,-0.0402 -0.11236,-0.0627 -0.19637,-0.0661 -0.0105,-3.8e-4 -0.0212,-7.1e-4 -0.032,-5.2e-4 z m -1.20923,0.24185 c -0.0758,10e-4 -0.15873,0.017 -0.23513,0.0475 -0.19296,0.0772 -0.13606,0.13464 0.14573,0.14624 0.25497,0.0105 0.39821,-0.0467 0.31781,-0.12712 -0.0402,-0.0402 -0.11236,-0.0627 -0.19637,-0.0661 -0.0105,-3.7e-4 -0.0212,-7.1e-4 -0.032,-5.1e-4 z m 2.17661,0 c -0.0758,10e-4 -0.15874,0.017 -0.23512,0.0475 -0.19296,0.0772 -0.13555,0.13464 0.14624,0.14624 0.25498,0.0105 0.39769,-0.0467 0.31729,-0.12712 -0.0402,-0.0402 -0.11236,-0.0627 -0.19637,-0.0661 -0.0105,-3.7e-4 -0.0212,-7.1e-4 -0.032,-5.1e-4 z m -0.96738,0.24184 c -0.0758,0.001 -0.15873,0.017 -0.23513,0.0476 -0.19297,0.0772 -0.13554,0.13464 0.14625,0.14624 0.25498,0.0105 0.39769,-0.0467 0.31729,-0.12712 -0.0402,-0.0402 -0.11236,-0.0627 -0.19637,-0.0661 -0.0105,-3.7e-4 -0.0212,-7.1e-4 -0.032,-5.2e-4 z m -2.29857,0.078 c -0.004,3e-5 -0.008,2.9e-4 -0.0119,5.2e-4 -0.004,2.4e-4 -0.009,5.9e-4 -0.0134,10e-4 -0.004,4.5e-4 -0.009,8.8e-4 -0.0134,0.002 -0.005,6.7e-4 -0.0102,0.002 -0.015,0.003 -0.005,9e-4 -0.01,0.002 -0.015,0.003 -0.005,0.001 -0.0112,0.002 -0.0165,0.004 -0.0274,0.007 -0.0581,0.017 -0.0915,0.03 -0.0516,0.0198 -0.10088,0.0415 -0.14573,0.0636 -0.0111,0.005 -0.0226,0.0111 -0.0331,0.0165 -0.0742,0.0388 -0.13365,0.0784 -0.16692,0.1111 -0.0189,0.0186 -0.0294,0.035 -0.0294,0.0481 0,0.003 2.9e-4,0.006 5.1e-4,0.009 4.5e-4,0.006 10e-4,0.0113 0.003,0.0165 6.5e-4,0.003 10e-4,0.005 0.002,0.008 0.002,0.005 0.004,0.01 0.006,0.014 0.004,0.007 0.009,0.0128 0.014,0.0181 0.002,0.002 0.003,0.004 0.005,0.005 h 5.1e-4 c 0.006,0.005 0.0124,0.009 0.0196,0.0129 0.005,0.002 0.01,0.005 0.015,0.007 h 5.1e-4 c 0.003,9.8e-4 0.005,0.002 0.008,0.003 0.003,8.5e-4 0.005,0.001 0.008,0.002 h 5.2e-4 c 0.0208,0.005 0.0445,0.008 0.0703,0.007 0.007,-2.4e-4 0.015,-8.6e-4 0.0227,-0.002 0.008,-6.9e-4 0.0155,-10e-4 0.0233,-0.003 0.008,-0.001 0.0158,-0.003 0.0238,-0.004 h 5.2e-4 c 0.008,-0.002 0.0161,-0.004 0.0243,-0.006 0.0248,-0.006 0.0506,-0.0138 0.076,-0.0233 h 5.2e-4 c 0.008,-0.003 0.017,-0.006 0.0253,-0.01 0.0168,-0.007 0.0337,-0.0153 0.0501,-0.0238 h 5.2e-4 c 0.008,-0.004 0.0163,-0.009 0.0243,-0.0134 0.0731,-0.0416 0.13833,-0.0966 0.17828,-0.16123 0.0423,-0.0686 0.0389,-0.11276 -0.002,-0.1297 -0.0102,-0.004 -0.0225,-0.007 -0.0372,-0.008 -0.004,-1.8e-4 -0.008,-10e-6 -0.0119,0 z m -2.67735,1.36168 c -0.0314,-8.3e-4 -0.0681,0.007 -0.10749,0.0217 -0.0787,0.03 -0.16859,0.0899 -0.25063,0.1726 -0.23711,0.23889 -0.20935,0.26666 0.13539,0.13539 0.23853,-0.0908 0.37319,-0.22625 0.29869,-0.30075 -0.0187,-0.0187 -0.0446,-0.0281 -0.076,-0.0289 z m -1.24541,0.78806 c -0.007,8e-5 -0.014,1.2e-4 -0.0212,5.2e-4 -0.11491,0.006 -0.24681,0.0558 -0.39429,0.1478 -0.39538,0.24655 -0.38098,0.26064 0.12764,0.1204 0.42673,-0.11766 0.52612,-0.0799 0.38602,0.14676 -0.12729,0.20596 -0.0911,0.24466 0.11162,0.11938 0.19837,-0.12259 0.2192,-0.26703 0.061,-0.4253 -0.0742,-0.0743 -0.16505,-0.11062 -0.27079,-0.10956 z m 5.09582,0.45631 c -1.14494,0.0135 -2.20071,0.18097 -2.93884,0.49971 -2.02441,0.87416 -5.32659,4.88581 -6.81354,8.27701 -2.36244,5.38792 -3.55496,9.97171 -3.7822,9.48108 -0.16511,-0.35643 0.23198,0.93252 0.31988,1.64538 0.0656,0.53211 0.015,1.62074 -0.11214,2.41897 -0.12711,0.79823 -0.50756,3.62825 -0.84542,6.28902 -0.2523,1.98688 -0.60107,2.95673 -0.93173,4.16409 -0.006,-0.0354 0.008,-0.0813 0,-0.11214 -0.0608,-0.23282 -0.11059,-0.0424 -0.11059,0.42323 0,0.0933 0.0185,0.0147 0.0222,0.0847 -0.15355,0.53354 -0.28746,1.49401 -0.42271,1.87844 -0.38567,-0.0726 -0.723,-0.0623 -0.7705,0.12299 -0.21966,0.85708 -0.324,1.35847 -0.93276,1.7756 -0.99599,0.6825 -3.54785,1.52521 -4.45864,1.53221 -0.36586,0.003 -0.6656,0.0867 -0.66611,0.18655 -5e-4,0.0998 -0.84375,0.21811 -1.8743,0.26251 -1.80414,0.0777 -2.27911,0.88119 -1.6707,1.09916 0.15854,0.0569 0.22885,0.26017 0.15555,0.45114 -0.14238,0.37103 -0.80117,0.4388 -1.76165,0.1819 -0.55334,-0.148 -0.56118,-0.1715 -0.12093,-0.36432 0.36238,-0.15872 0.33159,-0.17197 -0.13384,-0.0579 -0.3326,0.0816 -2.01966,0.29574 -3.74912,0.47594 -4.00446,0.41724 -5.22825,0.66129 -7.68377,1.53272 -4.17903,1.48313 -4.81558,1.79726 -6.67711,3.29541 -2.5285,2.03488 -3.61266,4.12799 -3.3383,6.44457 0.1387,1.17106 1.25257,3.59358 1.65209,3.59358 0.11195,0 0.20309,0.13687 0.20309,0.30385 0,0.16702 0.43575,0.76623 0.9679,1.33119 0.53216,0.56496 0.96738,1.11632 0.96738,1.22525 0,0.34672 4.04484,4.1076 4.88084,4.53822 0.44184,0.22758 1.14018,0.67001 1.55185,0.98289 0.41167,0.31288 0.8169,0.56896 0.9002,0.56896 0.1552,0 2.36631,1.46211 2.58434,1.70894 0.0665,0.0753 0.77428,0.50329 1.57251,0.95136 0.79823,0.44806 1.5055,0.88778 1.572,0.97668 0.0665,0.0889 1.08342,0.66712 2.25981,1.2852 2.87978,1.51298 2.78545,1.43814 2.09186,1.65519 -0.48806,0.1527 -0.45247,0.16742 0.18707,0.0765 0.52167,-0.0742 1.05441,0.0498 1.572,0.36536 0.43068,0.26259 0.67461,0.48506 0.54157,0.49506 -0.13304,0.01 -0.0265,0.10232 0.23667,0.20515 0.15356,0.06 0.2689,-0.0449 0.40825,-0.0703 l 0.18603,1.29501 0.1478,1.24644 c -0.13523,0.13493 -0.28717,0.29005 -0.39688,0.49506 -0.19193,0.35789 -0.19307,0.45312 -0.003,0.3359 0.11885,-0.0735 0.29149,-0.31662 0.43408,-0.54157 l 0.0646,0.5457 c -0.35754,0.59087 -2.06204,2.77004 -2.06757,2.89698 0.0357,-0.0848 0.12815,-0.20839 0.12815,-0.25632 0,-0.133 -0.1602,-0.0303 -0.35553,0.2279 -0.19532,0.25824 -0.35502,0.57803 -0.35502,0.71107 0,0.13304 0.1597,0.0309 0.35502,-0.22738 0.0673,-0.0889 0.0687,-0.15153 0.12247,-0.24495 0.029,-0.0202 0.33217,-0.1205 0.41186,-0.15709 -0.0216,0.0271 -0.11882,0.10986 -0.12557,0.12815 0.0868,0.15191 0.0892,0.70477 -0.3421,1.42576 -0.43133,0.72099 -1.10168,1.98002 -1.48931,2.79776 -0.38764,0.81774 -0.78365,1.43781 -0.88005,1.37821 -0.0964,-0.0596 -0.23414,0.18999 -0.30644,0.55449 -0.0723,0.3645 -1.10604,1.87769 -1.44746,3.20807 -0.47866,1.86513 -0.36237,2.87777 -0.34417,4.74286 0.013,1.33038 0.0475,3.07031 0.154,3.4029 0.10651,0.33247 0.92463,0.78591 0.93793,0.68419 0.0133,-0.10173 0.32615,-0.35745 0.95808,0.25683 1.60371,1.55899 2.37886,1.65746 2.9161,2.1947 0.54398,0.54397 2.18571,1.30745 3.27474,1.52291 v 5.1e-4 c 0.5529,0.1094 1.02104,0.21071 1.04024,0.22531 0.0119,0.009 0.38035,-0.064 0.4222,-0.0605 l 0.12661,1.07022 12.4473,-1.50637 c -0.0192,0.009 -0.0772,0.0336 -0.0925,0.0408 -0.90092,0.42467 -3.18386,0.96865 -3.42925,0.817 -0.15886,-0.0982 -0.20372,-0.059 -0.10852,0.0951 0.0941,0.15221 -0.0684,0.30672 -0.38602,0.36742 -0.30159,0.0576 -0.22187,0.076 0.17725,0.0408 1.00853,-0.0889 2.98764,-0.80213 4.69273,-1.46451 l 3.67575,-0.44493 16.88734,-5.53972 14.38672,0.43977 c 2.65263,0.89969 9.84264,2.483 10.77298,2.68201 1.21965,0.26089 2.68638,0.3102 2.54765,0.0858 -0.0764,-0.12368 0.13301,-0.22479 0.46561,-0.22479 0.33259,0 0.67176,-0.10881 0.75396,-0.24185 0.0822,-0.13304 0.31707,-0.24185 0.52193,-0.24185 0.54909,0 1.79502,-0.63845 2.62258,-1.34358 2.84023,-2.42009 5.16369,-5.07521 5.76915,-6.5934 0.57732,-1.44763 1.58702,-5.86716 1.43247,-6.2699 -0.0647,-0.16854 -0.005,-0.30644 0.13281,-0.30644 0.15839,0 0.22424,-0.77677 0.17984,-2.11977 -0.0749,-2.2673 -0.018,-3.90371 -1.29915,-5.34128 -1.15684,-1.29805 -1.65248,-2.41327 -1.67638,-2.60035 -0.15635,-1.22213 -0.17224,-0.50312 0.0269,-0.88419 0.32837,-0.62874 -0.99447,-1.97226 -1.37149,-2.25154 -0.2509,-0.18585 -1.08743,-0.2973 -2.00608,-0.59273 l 3.35948,0.80667 4.07055,-3.91707 c 1.9892,-1.9141 3.73182,-3.23404 4.33049,-3.75016 2.91971,-2.51711 5.54905,-6.70782 5.58105,-7.34219 0.005,-0.10304 0.19214,-0.38935 0.41548,-0.63614 0.22334,-0.24674 0.37018,-0.49532 0.32608,-0.55242 -0.0417,-0.0539 0.85192,-1.92445 1.18804,-2.70526 0.46269,-1.07481 0.52967,-1.37488 1.63556,-3.7238 1.47901,-3.14146 1.64598,-3.59891 1.99626,-5.4622 1.05021,-5.58656 -1.99071,-10.20816 -3.32848,-10.20816 -0.17739,0 -0.32246,-0.0885 -0.32246,-0.19689 0,-0.35168 -1.70042,-2.8067 -3.64112,-3.20807 -1.83784,-0.34976 -4.52777,-0.10373 -7.32307,0.32659 -5.03336,0.77487 -10.51295,2.36983 -12.71653,3.73983 0.24661,0.24959 -2.15936,0.8961 -2.2872,0.8232 -0.12162,-0.0694 -4.04693,1.44296 -4.30827,1.65985 -0.15047,0.1249 -0.34503,0.15516 -0.43253,0.0677 -0.0876,-0.0875 -0.15916,-0.0256 -0.15916,0.13746 0,0.16353 -0.0965,0.23693 -0.21394,0.16433 -0.11743,-0.0726 -0.84157,0.0845 -1.60972,0.34882 -1.99998,0.68809 -1.45774,0.71773 -3.04013,-0.18758 -1.29685,-0.74198 -3.06954,-1.9779 -2.68976,-1.9849 0.10422,-0.002 -1.00539,-1.10154 -1.13843,-1.20044 -0.35986,-0.26743 -1.08146,-2.45066 -2.21175,-3.77186 -1.17532,-1.37383 -1.54083,-4.28691 -1.788,-4.4633 -0.11406,-0.0814 -0.18685,-0.22204 -0.16175,-0.31264 0.0838,-0.30196 -0.54338,-1.59525 -0.7736,-1.59525 -0.1248,0 -0.165,-0.0999 -0.0894,-0.22221 0.0756,-0.12232 9e-5,-0.37016 -0.16743,-0.55035 -0.16752,-0.18019 -0.3395,-0.48833 -0.3824,-0.68472 -0.16908,-0.7733 -3.0949,-5.93314 -3.73001,-6.50244 -0.37103,-0.3326 -1.263,-1.58086 -1.95492,-2.91042 -0.69192,-1.32956 -2.30506,-2.64115 -2.43809,-2.72335 -0.13301,-0.0822 -0.23258,-0.21895 -0.22118,-0.30385 0.0117,-0.0849 0.0207,-0.24388 0.0207,-0.35295 0,-0.26047 -1.3489,-1.76821 -1.61075,-1.80041 -0.11169,-0.0137 -0.41352,-0.30392 -0.67076,-0.64544 -0.25723,-0.34151 -1.18364,-1.34836 -2.05827,-2.23707 -1.48583,-1.50977 -1.71699,-1.6501 -3.5233,-2.14044 -1.09456,-0.29713 -2.32876,-0.43776 -3.47369,-0.42426 z m -6.92568,0.55242 -0.66507,0.58601 c -0.36586,0.32253 -0.66508,0.6948 -0.66508,0.82682 0,0.13225 0.0272,0.19441 0.0605,0.13901 0.0333,-0.0554 0.33248,-0.42719 0.66508,-0.8263 z m 14.15366,0.84491 c -0.001,1.1e-4 -0.002,7.7e-4 -0.003,0.002 -0.0125,0.0125 0.0604,0.11048 0.21084,0.30231 0.18259,0.23282 0.37303,0.42323 0.42323,0.42323 0.19908,0 0.0712,-0.1987 -0.33176,-0.5147 -0.17983,-0.14105 -0.27746,-0.21412 -0.29921,-0.21239 z m 0.82992,1.04593 c -0.015,-1.3e-4 -0.0289,0.006 -0.0408,0.0176 -0.0634,0.0634 -0.0433,0.23121 0.0444,0.3731 0.23856,0.38592 0.37802,0.311 0.21446,-0.11524 -0.064,-0.16679 -0.15293,-0.27486 -0.21808,-0.27543 z m 1.40457,2.14922 c -0.0388,0.004 -0.0605,0.0381 -0.0605,0.10439 0,0.13747 0.0725,0.32213 0.16123,0.41083 0.0887,0.0887 0.21759,0.10478 0.28629,0.0362 0.0687,-0.0687 -0.004,-0.2534 -0.16124,-0.41083 -0.0868,-0.0868 -0.15838,-0.13375 -0.20825,-0.14004 -0.006,-7.5e-4 -0.012,-0.001 -0.0176,-5.2e-4 z m -19.24741,0.24443 c -0.0331,-2.3e-4 -0.0779,0.016 -0.13487,0.0512 -0.11698,0.0723 -0.27488,0.37814 -0.35088,0.67955 -0.13325,0.52873 -0.12605,0.53165 0.21239,0.0785 0.29138,-0.39 0.40975,-0.73635 0.31109,-0.79891 -0.0103,-0.007 -0.0227,-0.0102 -0.0377,-0.0103 z m -1.40973,3.34657 c -0.006,9.2e-4 -0.014,0.006 -0.0227,0.0145 -0.0696,0.0709 -0.21274,0.3943 -0.39584,0.93586 -0.15638,0.46259 -0.17998,0.73461 -0.0527,0.60461 0.12724,-0.13 0.30838,-0.56309 0.40308,-0.96221 0.0971,-0.40953 0.11248,-0.59919 0.0682,-0.59273 z m -2.30012,12.64987 c -0.005,5.8e-4 -0.0102,0.004 -0.015,0.008 -0.0255,0.0255 -0.0428,0.11026 -0.0486,0.25115 -0.0105,0.25498 0.0467,0.39769 0.12713,0.31729 0.0804,-0.0804 0.089,-0.28892 0.0191,-0.46354 -0.0314,-0.0784 -0.0596,-0.11569 -0.0827,-0.11317 z m 77.26919,7.44451 c -0.0759,0.001 -0.15873,0.0165 -0.23513,0.047 -0.19296,0.0772 -0.13553,0.13465 0.14625,0.14625 0.25498,0.0105 0.39821,-0.0467 0.31781,-0.12713 -0.0402,-0.0402 -0.11275,-0.0622 -0.19689,-0.0656 -0.0105,-3.7e-4 -0.0212,-6.9e-4 -0.032,-5.1e-4 z m -78.69546,0.53123 c -0.015,-1.3e-4 -0.0289,0.006 -0.0408,0.0176 -0.0634,0.0634 -0.0438,0.23122 0.0439,0.37311 0.23846,0.38588 0.37802,0.311 0.21446,-0.11524 -0.064,-0.16679 -0.15254,-0.27487 -0.21756,-0.27544 z m 83.8755,1.26762 c -0.10706,0.0112 0.14172,0.40201 0.60152,0.93225 0.50738,0.58509 0.96099,1.02695 1.00769,0.98185 0.14654,-0.1416 -1.18056,-1.75808 -1.56425,-1.90531 -0.0189,-0.007 -0.0339,-0.01 -0.045,-0.009 z M 430.15361,358.3149 c -0.0758,10e-4 -0.15874,0.0165 -0.23512,0.047 -0.19296,0.0772 -0.13555,0.13413 0.14624,0.14573 0.25498,0.0105 0.39769,-0.0462 0.31729,-0.12661 -0.0402,-0.0402 -0.11236,-0.0622 -0.19637,-0.0656 -0.0105,-3.8e-4 -0.0212,-7e-4 -0.032,-5.2e-4 z m -4.92683,0.6997 c -0.25499,0.002 -0.62674,0.11403 -0.8263,0.24908 -0.26498,0.1793 -0.16718,0.20174 0.36277,0.0832 0.88937,-0.19895 1.08239,-0.33728 0.46353,-0.33228 z m -1.60403,0.50953 c -0.0758,10e-4 -0.15874,0.0165 -0.23513,0.047 -0.19296,0.0772 -0.13554,0.13464 0.14624,0.14624 0.25498,0.0105 0.3977,-0.0467 0.3173,-0.12712 -0.0402,-0.0402 -0.11237,-0.0622 -0.19637,-0.0656 -0.0105,-3.8e-4 -0.0212,-7e-4 -0.032,-5.2e-4 z m -0.96739,0.24185 c -0.0758,10e-4 -0.15874,0.0165 -0.23512,0.047 -0.19296,0.0772 -0.13607,0.13465 0.14572,0.14625 0.25498,0.0105 0.39821,-0.0467 0.31781,-0.12713 -0.0402,-0.0402 -0.11236,-0.0622 -0.19637,-0.0656 -0.0105,-3.7e-4 -0.0212,-6.9e-4 -0.032,-5.1e-4 z m -3.69745,1.18752 c -0.13304,0 -0.40505,0.10514 -0.60461,0.2341 -0.19954,0.12897 -0.25396,0.23461 -0.12092,0.23461 0.13304,0 0.40505,-0.10564 0.60461,-0.23461 0.19954,-0.12896 0.25396,-0.2341 0.12092,-0.2341 z m -1.19527,0.47594 c -0.0587,0 -0.1736,0.10881 -0.2558,0.24185 -0.0822,0.13304 -0.0344,0.24236 0.10645,0.24236 0.14089,0 0.25632,-0.10932 0.25632,-0.24236 0,-0.13304 -0.0483,-0.24185 -0.10697,-0.24185 z m -1.41955,0.9679 c -0.0506,0 -0.28889,0.21761 -0.52969,0.48369 -0.24084,0.26608 -0.31589,0.48369 -0.16691,0.48369 0.14898,0 0.38728,-0.21761 0.52968,-0.48369 0.14244,-0.26608 0.21752,-0.48369 0.16692,-0.48369 z m 118.08685,1.77095 c -0.0512,-0.003 -0.20617,0.18658 -0.45476,0.59428 -0.26558,0.43559 -0.48317,0.84362 -0.48317,0.90692 0,0.30985 0.26709,0.0433 0.59893,-0.59841 0.26596,-0.51432 0.37888,-0.82483 0.3545,-0.88987 -0.003,-0.008 -0.008,-0.0125 -0.0155,-0.0129 z m -0.85628,0.25683 c -0.0218,-5.7e-4 -0.05,0.009 -0.0842,0.0305 -0.13152,0.0813 -0.23927,0.25051 -0.23927,0.37569 0,0.15222 0.0334,0.22306 0.0842,0.21963 0.005,-3.7e-4 0.0107,-0.002 0.0165,-0.004 0.0642,-0.0228 0.15067,-0.14773 0.23358,-0.3638 0.062,-0.16149 0.0545,-0.25666 -0.0109,-0.25839 z m -119.18601,0.69815 c -0.0352,-10e-4 -0.0837,0.0177 -0.14624,0.0563 -0.13309,0.0822 -0.23431,0.38809 -0.22531,0.67954 0.0164,0.51096 0.0249,0.51296 0.22531,0.0465 0.21457,-0.49932 0.268,-0.75753 0.16071,-0.78083 -0.004,-10e-4 -0.009,-10e-4 -0.0145,-0.002 z m -0.10955,4.80384 c -0.009,3.2e-4 -0.0157,0.005 -0.0202,0.0155 -0.0237,0.054 0.0177,0.24518 0.13436,0.54932 0.083,0.21622 0.20177,0.34238 0.26407,0.28008 0.0623,-0.0623 -0.002,-0.3122 -0.14366,-0.555 -0.11585,-0.19921 -0.19593,-0.29126 -0.23461,-0.28991 z m 1.20923,2.46187 c -0.0121,10e-6 -0.0204,0.006 -0.0253,0.0186 -0.026,0.0653 0.0525,0.3011 0.25012,0.67025 0.14382,0.26867 0.31827,0.43206 0.38757,0.36276 0.0693,-0.0693 -0.0484,-0.37526 -0.26148,-0.67954 -0.17848,-0.25481 -0.29835,-0.3721 -0.35088,-0.37207 z m 0.76946,1.46864 c -0.007,3.9e-4 -0.0134,0.003 -0.0186,0.008 -0.0557,0.0557 0.0205,0.32818 0.16899,0.60565 0.37953,0.70917 0.54158,0.63083 0.20825,-0.10077 -0.13757,-0.30192 -0.28983,-0.51693 -0.35863,-0.51315 z m 1.13223,2.08463 c -0.001,1.2e-4 -0.002,7.7e-4 -0.003,0.002 -0.0125,0.0125 0.0604,0.11048 0.21084,0.30231 0.316,0.40288 0.51469,0.53136 0.51469,0.33228 0,-0.0502 -0.19041,-0.24116 -0.42323,-0.42375 -0.17979,-0.14105 -0.27745,-0.21412 -0.2992,-0.21239 z m 2.04794,2.25929 c -0.0167,4.3e-4 -0.0318,0.004 -0.0455,0.01 -0.0438,0.0193 -0.0708,0.0665 -0.0708,0.13694 0,0.14089 0.10882,0.25632 0.24185,0.25632 0.13304,0 0.24236,-0.0478 0.24236,-0.10645 0,-0.0587 -0.10932,-0.17412 -0.24236,-0.25632 -0.0457,-0.0282 -0.0889,-0.0412 -0.12557,-0.0403 z m 0.72605,0.72554 c -0.0167,4.3e-4 -0.0318,0.004 -0.0455,0.01 -0.0438,0.0193 -0.0708,0.0665 -0.0708,0.13694 0,0.14089 0.1088,0.25632 0.24184,0.25632 0.13304,0 0.24185,-0.0478 0.24185,-0.10646 0,-0.0587 -0.10881,-0.17411 -0.24185,-0.25631 -0.0457,-0.0283 -0.0889,-0.0412 -0.12557,-0.0403 z m 1.82159,1.36943 c -10e-4,1.1e-4 -0.002,7.7e-4 -0.003,0.002 -0.0125,0.0125 0.0609,0.11048 0.21136,0.3023 0.18259,0.23282 0.37303,0.42323 0.42323,0.42323 0.19908,0 0.0706,-0.19869 -0.33228,-0.51469 -0.17982,-0.14105 -0.27745,-0.21412 -0.29921,-0.21239 z m 2.0991,1.45624 c -0.17314,0.002 -0.14299,0.0973 0.0749,0.23823 0.4647,0.30031 0.54837,0.30031 0.36277,0 -0.0822,-0.13304 -0.27925,-0.24023 -0.4377,-0.23823 z m 1.16324,0.73897 c -0.13304,0 0.0307,0.15559 0.36328,0.34572 0.3326,0.19013 0.71342,0.34571 0.84646,0.34571 0.13304,0 -0.0302,-0.15558 -0.36277,-0.34571 -0.3326,-0.19013 -0.71393,-0.34572 -0.84697,-0.34572 z m 2.70732,1.43816 c -0.17311,0.002 -0.14354,0.0973 0.0744,0.23822 0.46469,0.30031 0.54888,0.30031 0.36328,0 -0.0822,-0.13303 -0.27925,-0.24022 -0.4377,-0.23822 z m 1.06816,0.50953 c -0.003,3.4e-4 -0.005,10e-4 -0.007,0.002 -0.029,0.0154 0.0412,0.109 0.19172,0.29146 0.18259,0.22134 0.4274,0.40256 0.54415,0.40256 0.36948,0 0.23111,-0.21478 -0.33176,-0.5147 -0.23133,-0.12326 -0.35849,-0.18662 -0.39739,-0.18138 z m 11.71039,9.48159 c -0.0366,4.5e-4 -0.0798,0.0145 -0.12557,0.0424 -0.13304,0.0822 -0.24185,0.25868 -0.24185,0.39171 0,0.133 0.10881,0.1747 0.24185,0.0925 0.13304,-0.0822 0.24185,-0.25867 0.24185,-0.39171 0,-0.0665 -0.027,-0.11035 -0.0708,-0.12712 -0.0137,-0.005 -0.0288,-0.008 -0.0455,-0.008 z m 77.56839,3.78271 c -0.0113,-10e-4 -0.0194,0.006 -0.0243,0.0253 -0.029,0.11479 0.0652,0.64507 0.36225,2.17817 0.0792,0.40863 0.18838,0.69838 0.24288,0.64388 0.13075,-0.13075 -0.348,-2.64046 -0.53795,-2.81998 -0.0171,-0.0161 -0.0316,-0.0261 -0.0429,-0.0274 z m -80.41989,1.3224 c -0.004,-8e-4 -0.007,3.3e-4 -0.0114,0.003 -0.0323,0.0222 -0.0819,0.1593 -0.1602,0.41858 -0.10731,0.35543 -0.26948,0.79067 -0.36018,0.96739 -0.0907,0.17669 0.007,0.10992 0.216,-0.14832 0.20942,-0.25825 0.37159,-0.69347 0.36019,-0.96738 -0.007,-0.17483 -0.0197,-0.26777 -0.0444,-0.27337 z m 80.93821,4.81728 c -0.005,5.8e-4 -0.0102,0.003 -0.015,0.008 -0.0255,0.0255 -0.0428,0.11026 -0.0486,0.25115 -0.01,0.23107 0.0368,0.37018 0.10542,0.33434 0.005,-0.002 0.01,-0.006 0.0145,-0.0103 0.002,-0.002 0.005,-0.004 0.007,-0.007 0.003,-0.003 0.005,-0.005 0.007,-0.008 0.005,-0.006 0.009,-0.0116 0.0134,-0.0181 0.008,-0.0129 0.0156,-0.0273 0.0217,-0.0434 0.003,-0.008 0.006,-0.0166 0.008,-0.0253 0.007,-0.0262 0.0123,-0.0554 0.0145,-0.0863 7.3e-4,-0.0103 9e-4,-0.0208 10e-4,-0.0315 7e-5,-0.005 8e-5,-0.0106 0,-0.016 -1.6e-4,-0.0108 -2.9e-4,-0.022 -10e-4,-0.0331 -0.003,-0.0499 -0.0129,-0.10143 -0.0284,-0.15193 -0.003,-0.0112 -0.007,-0.0226 -0.0114,-0.0336 -0.002,-0.006 -0.004,-0.0111 -0.006,-0.0165 -0.002,-0.006 -0.005,-0.012 -0.007,-0.0176 -0.005,-0.011 -0.009,-0.0209 -0.014,-0.03 v -5.2e-4 c -0.002,-0.004 -0.005,-0.008 -0.007,-0.0124 v -5.2e-4 c -0.002,-0.004 -0.005,-0.008 -0.007,-0.0114 -0.002,-0.004 -0.005,-0.007 -0.007,-0.0103 -0.002,-0.003 -0.004,-0.006 -0.006,-0.008 -0.006,-0.008 -0.0122,-0.0139 -0.0181,-0.0176 -0.004,-0.002 -0.008,-0.004 -0.0114,-0.004 -0.002,-2.8e-4 -0.004,-7.1e-4 -0.006,-5.2e-4 z m -0.14573,1.41955 c -0.005,2e-5 -0.0114,0.002 -0.0181,0.005 -0.0357,0.0159 -0.0893,0.075 -0.16072,0.18552 -0.12898,0.19956 -0.22817,0.52649 -0.22117,0.72605 0.009,0.23924 0.0841,0.19807 0.22117,-0.12092 0.20092,-0.46752 0.26042,-0.79555 0.1788,-0.7953 z m -0.57516,1.76372 c -0.009,2e-5 -0.0223,0.009 -0.0408,0.0258 -0.0185,0.0173 -0.0417,0.0429 -0.0698,0.0765 -0.0281,0.0335 -0.0611,0.0752 -0.0987,0.12402 -0.19894,0.25825 -0.36173,0.57356 -0.36173,0.70073 0,0.0239 -0.0134,0.0632 -0.0382,0.11524 -0.10758,0.22533 -0.4299,0.68759 -0.80822,1.14929 -0.40744,0.49719 -0.75057,0.98173 -0.82992,1.16582 -0.0113,0.0263 -0.0171,0.0462 -0.0171,0.0594 0,0.0792 -0.16819,0.29142 -0.40669,0.524 -0.0397,0.0387 -0.082,0.078 -0.12506,0.11731 -0.0431,0.0393 -0.0877,0.0789 -0.13332,0.11782 -0.61335,0.52263 -0.61788,0.5382 -0.0568,0.19999 0.79474,-0.47922 2.26315,-2.42737 2.75229,-3.65146 0.16095,-0.40282 0.24237,-0.62493 0.24598,-0.69763 0.001,-0.0182 -0.003,-0.0269 -0.0119,-0.0269 z m -4.94802,5.75727 c -0.0808,0.006 -0.36604,0.17001 -0.70279,0.40979 -0.39911,0.2842 -0.72554,0.57119 -0.72554,0.63769 0,0.0665 0.32643,-0.11164 0.72554,-0.39584 0.39912,-0.28419 0.72553,-0.57119 0.72553,-0.63769 0,-0.0104 -0.008,-0.015 -0.0227,-0.014 z m -4.02094,2.2102 c -0.004,3e-5 -0.008,2.8e-4 -0.0119,5.2e-4 -0.004,2.3e-4 -0.009,5.9e-4 -0.0134,0.001 -0.004,4.6e-4 -0.009,8.8e-4 -0.0134,0.002 -0.005,6.7e-4 -0.0102,0.002 -0.015,0.003 -0.005,9.1e-4 -0.01,0.002 -0.015,0.003 -0.005,0.001 -0.0112,0.002 -0.0165,0.004 -0.0274,0.007 -0.0581,0.0171 -0.0915,0.03 -0.0516,0.0198 -0.10088,0.0415 -0.14573,0.0636 -0.0111,0.005 -0.0226,0.0111 -0.0331,0.0165 -0.0742,0.0388 -0.13365,0.0785 -0.16692,0.11111 -0.0189,0.0186 -0.0294,0.035 -0.0294,0.0481 0,0.003 2.9e-4,0.006 5.1e-4,0.009 4.5e-4,0.006 0.001,0.0113 0.003,0.0165 6.5e-4,0.003 0.001,0.005 0.002,0.008 0.002,0.005 0.004,0.01 0.006,0.0139 0.004,0.007 0.009,0.0128 0.014,0.0181 0.002,0.002 0.003,0.004 0.005,0.005 h 5.1e-4 c 0.006,0.005 0.0124,0.009 0.0196,0.0129 0.005,0.002 0.01,0.005 0.015,0.007 h 5.1e-4 c 0.003,9.8e-4 0.005,0.002 0.008,0.003 0.003,8.5e-4 0.005,10e-4 0.008,0.002 h 5.2e-4 c 0.0208,0.005 0.0445,0.008 0.0703,0.007 0.007,-2.3e-4 0.0151,-8.6e-4 0.0227,-0.002 0.008,-6.8e-4 0.0155,-0.001 0.0233,-0.003 0.008,-0.001 0.0158,-0.003 0.0238,-0.004 h 5.2e-4 c 0.008,-0.002 0.0161,-0.004 0.0243,-0.006 0.0248,-0.006 0.0506,-0.0138 0.076,-0.0233 h 5.2e-4 c 0.008,-0.003 0.017,-0.006 0.0253,-0.01 0.0168,-0.007 0.0337,-0.0153 0.0501,-0.0238 h 5.2e-4 c 0.008,-0.004 0.0163,-0.009 0.0243,-0.0134 0.0731,-0.0416 0.13833,-0.0966 0.17828,-0.16123 0.0423,-0.0686 0.0389,-0.11276 -0.002,-0.12971 -0.0102,-0.004 -0.0225,-0.007 -0.0372,-0.008 -0.004,-1.9e-4 -0.008,-10e-6 -0.0119,0 z" /><path
         id="Shade_Y"
         style="display:inline;fill:#e2d297;fill-opacity:1"
         d="m 466.38499,314.07267 c -1.55871,0.0139 -3.31531,1.3075 -5.21156,2.10892 -1.48817,0.62895 -2.87231,1.87827 -5.42965,6.53035 -1.53719,2.69998 -1.85838,7.95387 -3.03289,9.9906 -0.75602,3.77284 -0.37228,5.72256 -1.52083,10.79728 -0.24805,2.69223 -0.50687,3.59922 -0.72864,5.80119 -0.1324,1.31505 0.0484,2.10459 -0.0574,1.77199 -0.18404,-0.57867 -0.52881,1.97502 -0.55191,2.70836 -0.007,0.23043 0.12675,0.49509 1.33222,-1.15497 0.0638,-0.0638 0.42667,-2.54481 0.80667,-5.51336 0.38,-2.96853 0.806,-6.14826 0.94671,-7.06623 0.22929,-1.62503 0.4713,-3.12128 0.74001,-4.65088 0.52665,-2.40087 1.84219,-6.62283 2.84892,-8.91884 0.74348,-1.69562 1.94102,-3.54637 3.20549,-5.08237 0.63224,-0.76801 1.28109,-1.45772 1.89859,-2.0097 0.6175,-0.55198 1.20336,-0.9664 1.70946,-1.18494 0.73655,-0.31805 1.79232,-0.48523 2.9378,-0.4992 1.14549,-0.014 2.38098,0.12546 3.47679,0.42117 0.91617,0.24723 1.42151,0.40005 1.90015,0.6966 6.3e-4,3.9e-4 10e-4,6.6e-4 0.002,10e-4 h 5.2e-4 c 10e-4,7.4e-4 0.002,0.002 0.004,0.003 0.47814,0.29733 0.92943,0.73767 1.7384,1.56063 1.18513,1.20562 1.74176,1.90111 2.09961,2.34973 0.007,0.0108 0.037,0.0429 0.0434,0.0527 0.23823,0.36471 0.53005,0.60341 0.64854,0.53021 0.11853,-0.0732 0.21549,-0.0179 0.21549,0.12299 0,0.1034 0.0679,0.17565 0.15245,0.216 0.27328,0.51651 3.80444,5.58002 3.93361,5.58002 0.14734,0 -2.99904,-5.76975 -3.17552,-6.05234 -1.3229,-1.19951 -0.2173,0.3352 -1.33635,-2.52853 -0.5138,-1.31485 -1.73528,-1.86512 -3.52227,-3.77548 -0.14169,-0.15147 -0.16983,-0.37672 -0.37724,-0.37672 -0.20745,0 -0.31733,-0.0965 -0.24443,-0.21446 0.0729,-0.11797 -0.0293,-0.34926 -0.22737,-0.51366 -0.1981,-0.16442 -0.36019,-0.21055 -0.36019,-0.10232 0,0.10824 -0.17143,-0.0141 -0.38085,-0.27233 -0.20945,-0.25825 -0.31058,-0.30653 -0.22428,-0.10697 0.10464,0.24212 0.0426,0.22305 -0.18707,-0.0568 -0.18935,-0.23074 -0.50457,-0.66124 -0.59117,-0.57464 -0.1651,0.16514 -1.86599,-0.60248 -3.48093,-0.58808 z m 60.92652,30.89631 c -1.80324,-0.0267 -3.21145,0.23043 -3.01481,0.35295 0.20684,0.12927 -0.52028,0.1534 -1.24953,0.1018 -0.92564,-0.0655 -3.91322,0.77483 -5.57744,0.9865 -1.96425,0.2498 -0.88166,-0.0649 -1.39371,0.0403 -0.68442,0.14056 -1.0661,-0.19041 -0.85783,0.51573 0.077,0.26103 -0.0178,0.40369 -0.48524,0.30127 -0.46487,-0.10186 -1.86517,-0.25465 -0.77515,0.42995 0.16562,0.10402 -1.18331,-0.13376 -1.53996,-0.16536 -1.08916,-0.0966 -1.00562,0.0667 -1.00562,0.55552 0,0.30573 -2.09375,0.58979 0.49558,0.9803 0.22118,0.0334 1.87497,-0.24026 2.42052,-0.4594 2.05876,-0.827 4.30679,-1.22823 6.58151,-1.52859 1.86631,-0.1993 3.02008,-0.15647 3.92328,-0.13384 0.90319,0.0226 1.56346,0.11619 2.466,0.29352 1.03915,0.20418 1.98273,0.46513 2.6665,0.7214 0.68377,0.25627 1.10794,0.50821 1.10794,0.6935 0,0.10839 0.14507,0.19689 0.32246,0.19689 0.17739,0 0.58608,0.44871 1.06299,0.88108 1.79041,1.62322 2.90953,5.90111 2.26549,9.32708 -0.17514,0.93164 -0.30418,1.51159 -0.57464,2.25154 -0.27046,0.73996 -1.45995,2.35157 -1.96616,4.01223 -0.62813,2.06061 -2.38476,5.43479 -3.1834,6.74991 -0.10508,0.17304 -2.11607,2.67051 -2.23862,2.79517 -7.21682,7.34114 0.24693,0.9163 0.57516,0.58808 0.76406,-1.93078 5.78367,-6.86752 6.21099,-7.93801 0.0474,-0.13311 0.0539,-0.124 0.0935,-0.2341 0.55012,-0.24955 1.10478,-1.22405 1.41852,-1.83296 0.60985,-1.18361 0.0173,-0.60107 0.45527,-1.44798 0.0454,-0.0879 -0.0173,-0.19964 -0.0212,-0.29972 0.0379,-0.0548 0.13376,-0.25786 0.1478,-0.25786 0.1117,0 0.87934,-1.61779 0.91984,-1.91152 0.39984,-2.89755 0.68493,-4.00752 0.8692,-4.46381 0.009,6.5e-4 0.0182,-0.0236 0.0274,-0.0222 -0.002,-0.004 0.006,-0.0558 0.004,-0.062 0.0344,-0.0758 0.0648,-0.15616 0.0899,-0.185 h 5.1e-4 c 0.1454,0.21684 0.13402,-0.15477 -5.1e-4,-5.2e-4 -0.0163,-0.0247 -0.0471,-0.12419 -0.0672,-0.16588 0.009,-0.57333 0.12084,-1.81424 0.1266,-1.93011 0.24265,-4.57457 -0.81755,-6.59025 -2.41794,-7.62486 0.016,-0.23794 0.0258,-0.46008 -0.0289,-0.47542 -2.96005,-0.82989 -3.19136,-1.00564 -4.54133,-1.1958 -1.78393,-0.25128 0.20124,-0.16098 -2.15646,-0.16071 -0.38142,-0.10701 -0.7953,-0.11538 -1.15548,-0.27854 z m -35.18235,6.05958 c -0.0125,0.0125 0.0609,0.11048 0.21136,0.3023 0.18258,0.23282 0.37303,0.42323 0.42323,0.42323 0.19908,0 0.0707,-0.1987 -0.33228,-0.51469 -0.19182,-0.15045 -0.28983,-0.22333 -0.30231,-0.21084 z m -52.31464,5.85545 c -1.08836,0.0334 -2.7845,0.30008 -2.68252,0.46509 0.0652,0.10552 -0.59647,0.0122 -1.4702,-0.0434 -0.87452,-0.0557 -2.24447,-0.0954 -2.17247,0.0212 0.072,0.11643 -0.57376,0.39501 -1.32602,0.40101 -1.41412,0.011 -3.60178,0.14858 -4.66276,0.35243 -1.11767,0.2147 -1.6243,0.188 -2.46187,0.2527 -0.84377,0.0652 -6.44991,1.49386 -6.39651,1.58026 0.0758,0.12262 0.0122,0.51417 -0.10749,0.85215 -0.11967,0.33798 -0.29542,0.62208 -0.44493,0.52968 -0.12106,-0.0748 -2.76676,-0.011 -2.76676,0.19637 -0.29903,1.26225 -1.01891,2.57097 -1.58595,3.73879 -0.2835,0.58391 -0.52891,1.13258 -0.66404,1.62264 -0.13513,0.49007 -0.16059,0.92184 -0.004,1.27124 0.0817,3e-5 0.14456,1.0558 0.0858,1.36323 -0.0822,0.82422 -0.17771,0.79605 0.0398,1.00717 0.21749,0.21112 0.74788,0.66124 1.91771,2.44223 0.76927,1.17115 1.17889,2.43269 1.69603,3.5202 0.25856,0.54375 0.54431,1.04388 0.91518,1.46761 0.37088,0.42373 0.8267,0.77109 1.42679,1.00872 0.21081,0.0835 0.21324,0.0795 0.37,0.14005 0.0247,0.10036 0.0151,0.2005 -0.11782,0.2005 -0.42928,0 -0.0983,0.26655 0.42685,0.34365 0.24501,0.036 0.44758,0.16387 0.44958,0.28422 0.004,0.22329 0.10849,0.43631 0.25219,0.57826 0.14371,0.14195 0.32618,0.21284 0.48627,0.15141 0.18184,-0.0698 0.40531,-0.006 0.49661,0.14159 0.10056,0.1627 0.0559,0.20066 -0.11317,0.0961 -0.59504,-0.36775 -0.24262,0.0663 0.38602,0.47542 0.651,0.42371 0.65752,0.42312 0.31523,-0.0326 -0.19237,-0.25606 0.57719,0.52407 1.05471,1.02423 0.50664,0.53061 1.58307,1.27046 2.64687,1.83399 0.5319,0.28177 1.06063,0.51954 1.5136,0.66508 0.45297,0.14553 0.82979,0.19863 1.05834,0.11162 0.12652,-0.0482 0.2509,0.15304 0.38085,0.34623 0.10806,0.16136 0.21333,0.31286 0.30541,0.2775 0.21116,-0.081 0.6294,0.0351 1.1374,0.25787 0.50799,0.22277 1.10581,0.55245 1.67587,0.89917 1.14013,0.69344 2.16932,1.45515 2.14922,1.56528 -0.0154,0.12838 0.82882,0.21466 1.68878,0.38447 0.42999,0.0849 0.86389,0.19073 1.19631,0.3328 0.33242,0.14206 0.56364,0.32045 0.58756,0.55087 0.11577,-0.0159 0.0766,-0.31521 0.004,-0.54416 0.59215,0.54007 2.62792,1.7907 2.87734,1.69499 0.10674,-0.041 0.40344,0.0265 0.70229,0.0692 l -0.10232,1.43092 c -0.0603,0.31315 -0.55748,0.97833 -0.96015,1.37201 -0.16382,0.18332 -0.34477,0.63446 -0.57619,1.07022 -0.23142,0.43576 -0.51344,0.85641 -0.87902,0.97978 0.1663,-0.0843 -0.38047,0.62979 -0.38447,0.73742 -0.005,0.13226 0.15945,0.3022 0.33228,0.42168 -0.18591,0.0387 -0.39181,0.13975 -0.51522,0.37001 -0.26608,0.49644 -0.7933,1.5727 -0.7953,2.00556 -0.002,0.35502 -0.50561,1.3286 -0.52451,1.3286 -0.14871,0 -0.20905,0.0995 -0.13385,0.22118 0.0752,0.12167 0.008,0.26417 -0.14986,0.31677 -0.10317,0.0344 0.0378,0.17719 0.17622,0.34933 0.0115,0.0138 0.007,0.0233 0.0191,0.0377 l -0.47956,0.98392 c -0.10041,0.20626 -0.10359,0.8443 -0.11059,1.04386 -0.0118,0.32252 -0.0503,1.42788 0.15813,1.10536 0.1189,-0.18396 0.53956,-1.68771 0.60462,-2.14509 v 0.0191 c -0.005,0.4027 0.50457,-0.73097 1.51464,-2.69441 0.69398,-1.34906 1.40324,-2.62355 1.57613,-2.83187 0.17289,-0.20832 0.23314,-0.5193 0.13384,-0.69143 0.0574,-0.0808 0.17134,-0.26149 0.25218,-0.36845 0.55648,-0.55934 2.15422,-2.83618 2.19935,-3.20962 0.008,-0.0669 0.19748,-0.54057 0.42116,-1.05317 0.14088,-0.32288 0.27148,-0.90086 0.22428,-1.37924 -0.0236,-0.23919 -0.0919,-0.45382 -0.22531,-0.59893 -0.13343,-0.14511 -0.3319,-0.22054 -0.61702,-0.18294 -0.33902,0.0447 -0.59773,0.27198 -0.971,0.51108 -1.3438,-0.79179 -4.10252,-2.2173 -5.13612,-2.759 -1.19735,-0.62751 -2.23155,-1.21335 -2.29805,-1.30225 -0.0665,-0.0889 -0.77377,-0.52862 -1.572,-0.97668 -0.79823,-0.44807 -1.50601,-0.87606 -1.57251,-0.95136 -0.21803,-0.24683 -2.42914,-1.70946 -2.58434,-1.70946 -0.0833,0 -0.48853,-0.25608 -0.9002,-0.56896 -0.41167,-0.31288 -1.11001,-0.75479 -1.55185,-0.98237 -0.836,-0.43062 -4.88084,-4.19202 -4.88084,-4.53874 0,-0.10893 -0.43522,-0.66029 -0.96738,-1.22525 -0.53215,-0.56496 -0.9679,-1.16365 -0.9679,-1.33067 0,-0.167 -0.0912,-0.30385 -0.20309,-0.30385 -0.19976,0 -0.57832,-0.60547 -0.92397,-1.35754 -0.34565,-0.75207 -0.65877,-1.65051 -0.72812,-2.23604 -0.0798,-0.67344 -0.0543,-1.31403 0.0858,-1.93683 0.14011,-0.62281 0.39509,-1.22792 0.77411,-1.83038 0.37903,-0.60246 0.88229,-1.20247 1.51929,-1.81488 0.637,-0.61241 1.40779,-1.23716 2.32182,-1.88981 0.59914,-0.4278 2.18185,-1.12377 3.89589,-1.76785 1.71404,-0.64407 3.5591,-1.23622 4.68395,-1.45624 2.29287,-0.44848 7.77957,-0.89025 8.36435,-0.67334 0.42055,0.15599 0.83811,0.21889 1.16892,0.1943 0.3308,-0.0246 0.5751,-0.13643 0.64906,-0.32918 0.0724,-0.18855 0.36843,-1.16583 0.16639,-1.24333 -0.13855,-0.0532 -0.43406,-0.068 -0.79685,-0.0568 z m 43.05629,29.49123 c -0.60271,-0.0372 -1.45021,0.0199 -2.57039,0.0884 -1.74377,0.10653 -2.81108,0.24823 -3.42304,0.47077 -0.30598,0.11128 -0.4981,0.24292 -0.6041,0.4005 -0.106,0.15758 -0.12603,0.34113 -0.0873,0.55655 0.0204,0.11378 -0.10292,0.81747 -0.27389,1.0232 -0.17156,0.20646 -0.32007,1.88989 -0.39222,3.70106 -0.0721,1.81118 -0.0676,3.75022 0.0672,4.46846 l 0.18345,1.35031 3.65611,-0.0217 c 1.78479,-0.0105 3.41388,-0.52861 3.61993,-0.60771 0.15351,-0.0589 0.43628,-0.19978 0.68109,-0.60048 0.24482,-0.4007 0.45166,-1.0612 0.45166,-2.15904 0,-0.49491 -0.0766,-1.08018 -0.16588,-1.67794 -0.17613,-1.17009 -0.41666,-2.43481 -0.3173,-3.20962 0.20911,-1.62803 0.4916,-2.83205 0.27647,-3.30419 -0.14103,-0.30954 -0.49903,-0.44135 -1.10174,-0.47852 z m 22.80429,4.56457 c -0.0125,-0.0125 -0.11049,0.0609 -0.3023,0.21136 -0.23282,0.18259 -0.42323,0.37303 -0.42323,0.42323 0,0.19908 0.19819,0.0712 0.51418,-0.33176 0.15045,-0.19181 0.22383,-0.29034 0.21135,-0.30283 z m 12.11089,3.07165 c -0.0483,0 -0.12505,0.45795 -0.13384,1.12758 -0.009,0.66964 0.05,1.55098 0.27285,2.39675 0.14589,0.55385 0.15872,1.12672 0.11731,1.63763 -0.0414,0.51091 -0.13709,0.9599 -0.20723,1.26504 -0.85207,3.70672 -0.85515,4.82227 -1.43247,6.2699 -0.30273,0.7591 -1.03485,1.80235 -2.04638,2.95848 -1.01154,1.15612 -2.30212,2.42487 -3.72226,3.63492 -0.82756,0.70513 -2.07349,1.34358 -2.62258,1.34358 -0.20486,0 -0.44026,0.10881 -0.52244,0.24185 -0.0822,0.13304 -0.42137,0.24185 -0.75396,0.24185 -0.3326,0 -5.05526,-0.21312 -4.98006,-0.0915 0.0605,0.0979 2.67141,0.66292 3.83697,0.98702 -0.007,0.003 -0.0146,9.1e-4 -0.0217,0.004 -0.19296,0.0772 -0.13555,0.13465 0.14624,0.14625 0.14631,0.006 0.2379,-0.0138 0.28939,-0.0439 0.093,0.0334 0.52827,0.11674 0.51832,0.13333 -0.0916,0.15264 0.20931,0.10735 0.83612,0.10335 0.70553,-0.005 1.08175,-0.10164 0.98805,-0.25321 -0.0909,-0.1471 0.009,-0.18328 0.25115,-0.0904 0.22138,0.0849 0.30296,0.003 0.40256,-0.0537 0.70219,-0.39947 1.21574,-0.45421 1.73013,-0.59531 0.51439,-0.1411 1.02972,-0.36878 1.73529,-1.11363 0.22812,-0.24515 2.00384,-1.02024 2.15801,-1.14257 -0.1343,-0.23659 -0.0809,-0.46031 0.0734,-0.66507 0.15424,-0.20476 0.40955,-0.39055 0.67851,-0.55139 0.53792,-0.32167 1.13131,-0.54368 1.08521,-0.61702 0.30562,-0.27108 1.29294,-0.84726 1.29294,-0.95291 0,-0.10565 0.22586,-1.47221 0.66559,-2.02675 0.43973,-0.55455 0.41339,-0.86094 0.56948,-1.2268 0.078,-0.18293 -0.13865,-0.22606 -0.35605,-0.22376 -0.2174,0.002 -0.43577,0.0501 -0.3607,0.0501 0.15364,0 1.25627,-0.44164 1.17047,-0.66508 -0.18565,-0.4838 -0.40973,-1.26095 -0.13539,-1.0914 0.13751,0.085 0.23966,-0.27323 0.31057,-0.93793 0.0709,-0.66469 0.11062,-1.63607 0.12247,-2.77813 z m -14.5309,1.52497 c -0.013,-0.0119 -0.11003,0.0604 -0.30127,0.21033 -0.23196,0.18192 -0.42029,0.37115 -0.42168,0.42219 0.002,0.19447 0.19836,0.07 0.51263,-0.33073 0.15016,-0.19143 0.22245,-0.289 0.21032,-0.30179 z m -0.72295,0.63252 c 0,1.6e-4 -0.002,9.2e-4 -0.002,10e-4 v 5.1e-4 c 10e-6,8.4e-4 0.002,-0.002 0.002,-0.002 z m 16.37006,7.78764 c 0.0699,0.17462 0.0613,0.38314 -0.0191,0.46354 -0.0803,0.0804 -0.13762,-0.0623 -0.12712,-0.31729 0.0116,-0.28178 0.069,-0.33921 0.14624,-0.14625 z M 470.5713,408.67 c -0.0406,-0.028 -0.13122,0.0584 -0.23409,0.23513 -0.13717,0.23566 -0.34313,0.37084 -0.45734,0.30024 -0.1142,-0.0706 -0.41087,0.13001 -0.65939,0.44596 -0.24075,0.26902 -0.57358,0.45005 -0.86196,0.67386 -0.0399,0.0182 -0.089,0.0594 -0.12506,0.0708 -0.29429,0.0934 -0.53485,0.27483 -0.53485,0.40308 0,0.023 -0.0315,0.0502 -0.0424,0.0755 -0.7888,0.5095 -1.61236,0.98374 -2.35696,1.5229 -1.62914,0.86681 -4.60376,2.57343 -7.93285,3.66334 -2.93558,0.96109 -5.8528,1.6924 -8.34626,2.1239 -1.24673,0.21576 -2.38745,0.35632 -3.37188,0.41341 -0.98445,0.0571 -1.81245,0.0307 -2.43345,-0.0884 -1.20305,-0.23067 -2.80991,-0.9568 -3.38067,-1.52756 -0.18668,-0.18668 -0.66056,-0.50537 -1.05317,-0.70848 -0.39261,-0.20312 -1.22632,-0.86759 -1.8526,-1.4764 -0.62628,-0.60882 -2.09926,-1.48976 -2.18126,-1.35702 -0.18106,0.29296 2.24253,5.61258 2.48254,5.61258 1.09506,1.32058 -0.91705,0.82924 0.64492,1.54357 -0.0431,0.21044 0.57648,1.01115 1.06298,0.97565 l 6.88537,0.41393 c 0.53215,-0.0834 1.0037,-0.2434 1.048,-0.35553 0.0443,-0.1122 0.37069,-0.14116 0.72554,-0.0641 0.43728,0.095 0.54208,0.0671 0.32504,-0.0863 -0.14412,-0.10186 0.0146,-0.15305 0.31316,-0.1819 0.30096,0.0818 0.36693,0.14558 0.6227,0.14883 3.44827,-0.0697 5.75493,-1.30583 8.44755,-2.02365 l 12.55117,-7.55045 c 0.33259,-0.12645 1.21285,-0.76974 1.21285,-0.99477 0.026,-0.17249 0.0987,-2.01154 -0.56328,-1.95027 0.0322,-0.0654 0.0897,-0.14248 0.0884,-0.19068 -10e-4,-0.0358 -0.009,-0.0578 -0.0227,-0.0672 z m 40.1836,0.89555 c -0.0125,-0.0125 -0.111,0.0604 -0.30283,0.21084 -0.23281,0.18259 -0.42323,0.37303 -0.42323,0.42323 0,0.19908 0.1987,0.0712 0.5147,-0.33176 0.15045,-0.19181 0.22384,-0.28983 0.21136,-0.30231 z m 5.80533,2.41897 c -0.0125,-0.0125 -0.111,0.0604 -0.30283,0.21084 -0.23281,0.18258 -0.42323,0.37303 -0.42323,0.42323 0,0.19908 0.19871,0.0712 0.5147,-0.33176 0.15045,-0.19181 0.22384,-0.28982 0.21136,-0.30231 z" /><path
         id="path22"
         style="display:inline;fill:#6f5a4c;fill-opacity:1;stroke-width:0.15"
         d="m 511.91691,402.056 c 0,2.8569 -1.61539,8.00019 -3.8224,8.00019 -2.20701,0 -7.21832,-5.83827 -7.21832,-8.69517 0,-2.8569 4.45849,-6.61022 6.6655,-6.61022 2.20701,0 4.37522,4.4483 4.37522,7.3052 z" /><path
         id="Mejillas"
         style="display:inline;fill:#ffdfee;fill-opacity:1;stroke-width:0.15"
         d="m 495.01632,383.77333 a 7.676384,4.6753287 0 0 0 -7.67653,4.67516 7.676384,4.6753287 0 0 0 7.67653,4.67517 7.676384,4.6753287 0 0 0 7.67654,-4.67517 7.676384,4.6753287 0 0 0 -7.67654,-4.67516 z m -32.93287,0.25269 a 7.0603776,4.9596391 0 0 0 -7.06004,4.95939 7.0603776,4.9596391 0 0 0 7.06004,4.95991 7.0603776,4.9596391 0 0 0 7.06055,-4.95991 7.0603776,4.9596391 0 0 0 -7.06055,-4.95939 z" /><path
         style="display:inline;fill:#836958"
         d="m 460.71899,454.47827 c -1.78356,-0.12988 -3.13455,-1.44929 -3.77495,-2.02694 -0.2517,-0.22705 -0.79622,-0.88545 -1.12882,-1.05757 -0.86099,-0.44557 -2.51163,-2.13099 -3.07815,-3.06015 -0.26368,-0.43246 -0.45986,-0.3855 -0.46912,-0.18598 -0.009,0.19956 -0.39679,-0.8939 -0.6005,-1.62561 -0.57833,-2.07727 -0.60444,-7.99286 -0.0148,-10.50665 l 0.62657,-3.01375 c 0.23934,-0.62799 0.53613,-0.95009 1.02454,-2.095 0.61577,-1.44344 1.56703,-4.31648 1.93336,-4.6215 l 1.09268,-1.21543 c -0.11789,-0.19076 3.01791,-3.20437 4.00981,-3.90271 0.27633,-0.19455 0.61455,-0.55733 0.7516,-0.80618 0.20209,-0.36695 0.85596,-0.17705 1.01973,1.0727 0.11107,0.84752 0.33748,1.76037 0.34871,1.89341 0.0112,0.13304 0.0999,0.36865 0.19695,0.52359 -0.40009,0.73836 0.3264,0.60297 0.64154,1.57545 0.16652,0.55579 0.46266,1.25456 0.65808,1.55281 0.59571,0.90916 0.0563,1.71639 -1.6631,2.54704 -2.03208,0.98174 -4.12036,3.09259 -4.94906,4.90272 -0.88158,1.92563 -1.05849,3.98309 -0.37304,5.79463 0.29024,0.76705 0.9967,1.75537 1.31896,2.13835 1.16442,1.38386 -1.11159,-0.68967 1.65507,1.63834 0.36514,0.30725 0.0212,0.23024 0.28794,0.31492 0.2668,0.0847 0.66691,0.1477 0.66691,0.27178 0,0.12407 0.0816,0.20501 0.18141,0.17987 0.0998,-0.0251 0.90332,0.1086 1.86287,0.27801 2.14256,0.37817 3.70131,0.28742 5.91942,-0.65815 1.60763,-0.68534 3.54067,-2.4165 5.80979,-1.32061 2.26912,1.09589 0.28468,6.01455 0.008,6.58382 -0.13973,0.28716 -0.37301,0.91234 -0.51839,1.38929 -0.36301,1.19092 -1.59923,2.4697 -3.43401,3.21524 -2.0922,0.85014 -4.46849,0.62778 -6.75597,0.46121 z m 8.97515,-25.73246 c -0.29934,-0.0577 -0.79697,0.0782 -0.79697,-0.0456 0,-0.12379 -0.13607,-0.22576 -0.30236,-0.2266 -0.1663,-8.4e-4 -0.49248,-0.30018 -0.72485,-0.66519 -0.23236,-0.36502 -1.47373,-1.36103 -1.86621,-1.89319 -1.63274,-2.2138 -2.65314,-4.98921 -2.84584,-7.74042 -0.0745,-1.06431 -0.0599,-1.86502 0.0326,-1.77935 1.46401,0.12993 1.65922,-1.17464 2.71109,-2.00298 0.6321,-0.49399 2.72904,-2.77453 4.27765,-4.27611 3.90126,-3.78279 6.99131,-5.74487 7.77306,-6.13486 0.61183,-0.30522 3.54458,1.73003 4.28626,2.32003 0.44355,0.35285 -2.27089,-0.32513 -1.90957,-0.14155 0.36131,0.18359 0.54473,-0.47277 0.46219,-0.33923 -0.0827,0.13377 1.42225,0.72688 1.56986,0.63564 0.237,-0.14647 -0.45117,-0.16084 0.5867,0.73644 0.15389,0.13304 0.65878,0.45139 1.12198,0.70744 0.4632,0.25606 0.8966,0.54021 0.96312,0.63145 0.0665,0.0912 0.48031,0.35003 0.91953,0.57511 0.43922,0.22508 0.85602,0.55891 0.92621,0.74184 0.0702,0.18294 0.33444,0.29279 0.58719,0.24411 0.25276,-0.0487 0.52248,0.0133 0.59938,0.13774 0.18026,0.29166 4.10691,1.9923 5.35812,2.36031 1.3183,0.38775 0.98977,1.38449 -0.74795,6.69905 -0.65216,1.99456 -3.62384,3.78913 -4.50519,4.67048 -0.76786,0.76786 -1.84535,1.64436 -3.73263,1.64436 -1.06306,0 -1.99128,-0.0945 -2.0627,-0.21011 -0.0714,-0.11557 -0.55852,-0.27866 -1.08243,-0.36244 -0.8828,-0.14117 -1.25201,-0.062 -1.93151,-1.46348 -0.40327,-0.83171 -0.78368,-1.78432 -0.84535,-2.11692 -0.18184,-0.98056 -0.42838,-1.45133 -0.76006,-1.45133 -0.17109,0 -0.37041,-0.15463 -0.44293,-0.34362 -0.18785,-0.48952 -0.28145,0.0531 -0.35655,0.60293 -0.11913,0.87215 -0.918,4.29747 -1.04143,4.41827 -0.068,0.0665 -0.16089,0.33467 -0.20651,0.5959 -0.0928,0.53166 -0.75943,1.5789 -0.77122,1.21161 -0.004,-0.12938 -0.26126,0.17748 -0.57137,0.68191 -1.04814,1.70498 -2.9229,1.9151 -4.67128,1.57835 z m -17.39318,-22.38538 c -0.70396,-0.79021 -1.81557,-2.58744 -1.81557,-4.7365 0,-2.07825 0.13172,-2.43399 1.58275,-4.27442 0.98911,-1.25455 0.96849,-1.65237 2.05025,-1.50691 1.98355,0.26672 3.63295,0.0954 4.78281,3.00748 0.32336,0.81891 0.56775,5.79299 0.26032,5.79299 -0.0979,0 -0.99794,-1.89357 -1.23559,-1.35493 -0.51039,1.15683 -2.16277,2.91966 -3.11931,3.32783 -1.04403,0.4455 -1.96478,0.3516 -2.50566,-0.25554 z m 52.9371,-0.80082 c -1.79562,-0.755 -2.49723,-2.29367 -2.44536,-5.36277 l 0.0381,-2.25232 1.06744,-0.9396 c 1.05637,-0.92986 2.91666,-1.95277 3.55133,-1.95277 0.18066,0 0.57947,0.2177 0.88626,0.48378 0.30679,0.26607 0.65642,0.48377 0.77695,0.48377 0.12054,0 0.15188,0.10885 0.0697,0.24189 -0.0822,0.13304 -0.045,0.24189 0.0828,0.24189 0.61173,0 2.02471,3.53608 1.53618,3.84441 -0.12789,0.0807 -0.40905,0.83838 -0.62482,1.6837 -0.38326,1.50153 -0.94223,2.53454 -1.72139,3.18118 -0.59482,0.49366 -2.40403,0.68871 -3.2171,0.34684 z m -35.46922,-7.58178 c -0.0744,-0.12037 -0.54343,-0.16474 -1.0423,-0.0986 -1.30874,0.17353 -4.08752,0.89119 -5.3655,0.309 -0.60467,-0.27546 -1.93536,-1.36955 -2.71824,-1.66101 -1.5816,-0.58882 -1.23217,-0.33868 -1.81784,-0.98174 -0.21516,-0.23625 -2.63824,-1.74746 -2.73638,-1.74746 -0.0981,0 -0.66229,-0.32655 -1.25367,-0.72567 -0.59137,-0.39911 -1.17862,-0.72566 -1.30499,-0.72566 -0.12637,0 -0.22976,-0.16328 -0.22976,-0.36284 0,-0.19955 -0.14995,-0.36283 -0.33322,-0.36283 -0.18327,0 -0.46872,-0.16327 -0.63434,-0.36283 -0.25362,-0.3056 -0.34238,-0.51919 0.15296,-0.51919 0.77502,0 1.74368,-0.45307 1.41932,-0.78214 -0.13304,-0.13497 -0.56694,0.28008 -1.42835,0.2398 -1.31915,-0.0617 -0.892,-0.66879 -1.1088,-1.10546 -0.14158,-0.28515 -1.07268,-0.67099 -1.25008,-0.88474 -0.39537,-0.47639 -0.30376,-1.4923 0.50323,-1.03099 0.88473,0.50576 1.70086,1.35523 1.70086,0.66863 0,-0.59981 -2.34755,-2.36175 -2.60875,-1.33379 -0.10712,0.42155 -0.54676,-1.50661 -0.56667,-1.77097 -0.0199,-0.26436 -1.59034,-0.9535 -1.79213,-1.74364 -0.41425,-1.62204 -0.26974,-5.82786 -0.27098,-8.28999 -7.3e-4,-1.44185 1.23663,-4.23815 2.01432,-6.67304 0.13666,-0.42785 -0.52819,-1.5832 -0.2533,-1.67045 0.42795,-0.13582 2.50889,0.95978 2.8897,1.36283 0.0665,0.0704 0.61076,0.33906 1.20944,0.59702 0.59867,0.25797 1.37661,0.67532 1.72875,0.92746 0.35214,0.25214 0.98135,0.47559 1.39825,0.49656 2.8852,0.50984 3.91669,1.13139 4.28635,3.83796 0.4356,1.10485 0.80747,1.87513 1.48214,1.87513 0.49727,0 1.65539,-1.28044 7.76482,-3.25086 0.46564,-0.15018 1.47329,-0.15465 1.93893,-0.25564 0.46563,-0.10098 1.87661,0.22528 2.80788,0.0152 3.04939,-0.68793 3.80285,-1.01948 11.54325,-2.11326 3.90303,-0.55153 6.31148,-2.35999 6.62864,-1.68569 0.13726,0.29181 0.63774,-0.70749 1.06559,-0.81631 0.4222,-0.10739 0.99102,-0.6785 1.36705,-1.09605 0.37603,-0.41755 0.91437,-0.91143 1.5463,-1.57872 0.63194,-0.66729 1.11738,-1.25516 1.11738,-1.30637 0,-0.0512 0.80219,-0.56801 1.16251,-1.3534 0.51162,-1.06444 1.91465,-4.41685 2.72915,-4.41827 1.03415,0.0937 1.40565,0.9616 1.40565,0.9616 1.28175,4.41514 0.2695,0.96052 1.54851,3.83578 0.14686,0.33015 2.06774,3.23291 2.402,4.70501 0.34865,1.53552 0.44133,14.56409 0.11721,16.01887 -1.51806,1.76974 -0.55205,5.53882 -1.95747,7.46905 -0.25822,0.32018 -1.57798,1.21582 -2.27643,1.9131 -0.72194,0.59382 -1.26969,-0.1015 -1.8942,0.14393 -0.10881,-0.0672 -0.3133,0.92401 -0.49476,1.17581 -0.18151,0.25183 -0.439,0.0743 -0.5511,0.005 -0.1121,-0.0693 -1.05466,1.0065 -1.17983,1.11281 -1.68104,1.42774 -1.17427,0.69126 -3.6349,1.70188 -3.66226,1.50416 -4.05594,2.48564 -7.8849,1.80006 l -2.6689,-0.0333 -0.39929,-1.96073 c -0.33749,-1.65724 0.63273,-1.47049 0.22889,-6.11957 -0.20109,-2.31505 -0.3088,-3.00848 -0.0527,-3.74218 l -1.53833,-0.45432 -1.25571,0.139 c -0.36715,0.0406 -5.1545,0.31199 -5.45385,1.26359 -0.56534,1.79714 -0.10648,6.18848 -0.71761,9.35989 l -0.2508,1.30151 h -2.5489 c -1.40189,0 -2.60977,-0.0985 -2.68416,-0.21887 z m -2.73722,-6.61687 c 0.47992,-0.51376 0.60396,-0.79412 0.40557,-0.91673 -0.16346,-0.10102 -0.35508,-1.45072 0.22779,-1.5492 1.01373,-0.17127 0.79665,-2.13948 0.19259,-2.14232 -0.17415,-8.2e-4 2.05513,2.38782 2.13543,2.25789 0.22851,-0.36974 -1.37421,1.05064 -1.26087,-0.81883 0.11178,-1.84377 0.90432,-3.25069 0.15006,-4.34116 -0.55655,-0.80465 -1.68402,-0.91309 -2.53488,-0.2438 -0.59414,0.46735 0.50121,-0.53849 0.37497,0.28689 -0.0305,0.19955 -0.10511,0.75955 -0.16575,1.24443 -0.13588,1.08645 -0.36676,1.48553 -0.76993,1.33082 -0.16984,-0.0652 -2.94348,0.0226 -3.92427,0.15683 0,0 -2.9453,0.39957 -3.485,1.73909 -0.5397,1.33952 -0.51066,1.01101 -0.51066,1.62846 0,1.84308 1.26741,2.57988 4.6313,2.96759 1.35571,0.11055 3.08247,-0.21809 4.53365,-1.59996 z m 33.4994,0.10869 c 1.27767,-0.90978 1.75757,-1.6939 1.75757,-2.87171 0,-0.83803 -0.13476,-1.19232 -0.62708,-1.64859 -0.96561,-0.8949 -2.74177,-1.38287 -4.69611,-1.29018 l -2.41923,0.14348 -1.10511,-1.56743 c -1.09001,-1.54601 -0.72087,-2.13139 -1.49307,-2.8064 -1.25709,-1.09887 1.17585,-3.22019 0.60217,-0.98191 -0.17024,0.66423 -0.7496,2.15158 -0.82415,2.03107 -0.1985,-0.32084 -0.72207,3.00832 -0.51421,3.92465 0.0973,0.42878 0.70353,-0.51621 1.1156,-0.16947 0.60317,0.50753 -1.08397,1.54867 -0.43568,1.42705 1.47501,-0.27671 -0.5709,1.88864 1.74936,3.41824 2.32026,1.5296 3.87662,1.06551 3.87662,1.06551 1.81307,-0.10225 2.39196,-0.23178 3.01332,-0.67422 z M 458.5068,318.52411 c 0,-0.0502 0.19049,-0.24072 0.4233,-0.42331 0.38365,-0.30087 0.39221,-0.29232 0.0913,0.0913 -0.316,0.40292 -0.51463,0.53106 -0.51463,0.33198 z"
         id="Fill_BR" /><path
         style="display:inline;fill:#6f5a4c"
         d="m 458.789,455.57086 c -3.38984,-0.82124 -10.01962,-8.52807 -9.75137,-8.9621 0.55999,-0.89492 -0.0236,-1.02894 -0.31328,-1.87605 -0.1604,-0.53536 -0.87411,-0.89607 -1.11391,-0.95878 -1.00929,-0.26394 -0.74202,-6.71356 0.15486,-9.62154 0.52468,-1.70117 0.90893,-3.13591 1.09984,-3.01792 0.16794,-0.42871 0.80685,-1.36011 1.1774,-1.94954 2.07317,-4.8233 7.22166,-7.94033 10.19295,-9.40104 0.99379,-0.4364 1.27148,-1.31792 1.20303,-0.96542 -0.0426,0.21925 0.37381,1.11458 0.36361,1.21524 -0.0102,0.10066 -0.71558,1.11164 -1.05182,1.43644 -2.90046,2.80183 -3.74306,3.66155 -5.07187,5.12883 -1.2616,1.49934 -2.91567,4.64747 -3.91627,8.28851 -0.39977,1.45468 -0.0951,10.72325 0.0759,10.99983 0,0 -0.20671,0.14103 0.0893,1.55678 0.0276,0.13219 0.23167,-0.13507 0.34298,0.21565 0.19504,0.61451 3.63424,3.09383 4.5172,3.5485 0.34696,0.17867 0.83525,0.50919 1.08509,0.73449 0.71793,0.64744 2.83132,1.56821 4.64122,2.02211 1.26868,0.31818 2.21296,0.38306 3.99498,0.27449 6.75776,-0.5557 10.39948,-8.71562 7.9274,-9.93249 -1.07199,-0.52768 -3.38639,-0.50851 -4.57958,0.10021 -1.40846,0.71855 -1.48623,0.5449 -0.0907,-0.20249 0.67142,-0.35958 1.8978,-1.12169 2.7253,-1.69357 0.41763,-0.73655 1.30361,-1.82069 2.26355,-1.85481 0.4993,-0.0177 1.13129,0.25244 1.80072,0.72122 0.35994,0.25211 0.35238,0.72414 0.4539,1.5118 0.0812,0.62989 0.25087,1.33426 0.3771,1.56527 0.33274,0.60899 0.79386,3.27314 0.4592,2.79506 -0.20005,-0.28572 -0.22226,-0.24957 -0.10452,0.17014 0.28073,1.00072 -0.98459,4.08445 -1.66088,4.08445 -0.13004,0 -0.18031,0.0908 -0.1117,0.20182 0.0686,0.111 -0.85148,0.80068 -1.44438,1.38258 -0.59291,0.58189 -1.26548,0.73883 -1.26953,0.61135 0.06,0.86833 -1.5493,2.08377 -3.83765,2.28467 -0.36721,0.0322 0.23033,0.48648 -3.92619,0.78867 2.93218,0.26287 -3.31733,-0.17995 -3.75531,-0.31225 0,0 -1.94941,-0.64853 -2.9466,-0.89011 z m 7.72149,-25.4268 c -0.54811,-0.48116 -0.98397,-1.03957 -0.98397,-1.22364 0,-0.18408 -0.10574,-0.33469 -0.23498,-0.33469 -0.36007,0 -1.86504,-4.1899 -2.31666,-5.95831 -0.22084,-0.86475 -0.4612,-2.35865 -0.53414,-3.31977 -0.12361,-1.62876 -0.0933,-1.78024 0.44608,-2.22942 2.21865,-1.84764 -0.0777,3.15046 4.09978,8.81468 0.39248,0.53216 0.90372,1.2662 1.13608,1.63122 0.23237,0.36501 0.55855,0.66435 0.72485,0.66519 0.16629,8.4e-4 0.57088,0.0247 0.57088,0.14962 0.94646,0.4014 1.92378,0.60034 2.82298,0.01 0.49589,-0.34365 1.10915,-1.0102 1.36281,-1.48121 0.25365,-0.47101 0.51458,-0.803 0.57982,-0.73776 0.0653,0.0652 0.26738,-0.0702 0.44918,-0.30091 0.23727,-0.30115 0.21828,-0.11238 -0.0673,0.66895 -0.24347,1.3377 -0.86647,2.30673 -1.95814,3.38509 -0.6039,0.59655 -1.58896,0.85004 -3.21622,0.95106 -1.58061,0.0981 -1.86709,0.20039 -2.88105,-0.68972 z m 18.64324,-2.7245 c -0.0463,-0.0618 -0.52966,-0.16538 -1.05384,-0.24787 -1.19301,-0.18775 -2.44036,-1.54691 -3.13885,-2.29042 l -0.53225,-0.56656 0.83106,0.15587 c 0.45709,0.0857 0.93447,0.25033 1.06086,0.36577 0.41605,0.38004 3.96214,0.24359 4.78957,-0.1843 0.99099,-0.51246 1.17721,-0.71053 2.29736,-2.44362 1.11738,-1.7288 3.04496,-7.28766 3.05684,-8.81548 0.004,-0.54746 0.89315,-0.51941 1.26069,-0.32272 0.44825,0.2399 0.10316,1.87408 -0.3141,1.87408 0.17338,2.48268 -1.02387,5.31407 -1.92569,7.71043 -0.20622,0.51537 0.0428,1.21273 -0.0747,1.14017 -0.11741,-0.0726 -0.14947,0.0349 -0.0712,0.23873 0.23281,0.60669 -2.73956,2.723 -3.93963,3.18132 -0.59013,0.22537 -0.68189,0.0551 -0.88647,-0.0234 -0.20457,-0.0785 -0.37195,-0.0373 -0.37195,0.0916 0,0.22669 -0.8168,0.36428 -0.98771,0.1364 z m -32.58595,-16.10011 c -0.40613,-0.0464 -1.01589,-0.32393 -1.35503,-0.6168 -1.12993,-0.97576 -1.48817,-2.02936 -1.60405,-4.71763 -0.11374,-2.63848 0.25151,-4.21593 1.44427,-6.23751 1.01717,-1.72397 -0.39951,1.99144 0.46108,5.00931 0.56017,1.96446 1.77625,2.06793 3.41535,1.30598 2.52997,-1.17606 2.0533,-2.86385 4.26852,-3.754 0.36014,-0.14472 -0.18252,4.28239 -0.60626,5.17086 -0.22148,0.46445 -0.17962,0.9119 -0.28922,0.84417 -0.10959,-0.0677 -0.14462,0.0192 -0.0779,0.19322 0.0668,0.174 -0.47694,1.19823 -0.87323,1.67898 -1.07167,1.30012 -2.99473,1.3277 -4.78362,1.12342 z m 51.71155,-2.02369 c -2.8736,-1.42241 -4.14619,-5.09507 -3.06006,-8.83123 0.42738,-1.47013 2.50399,-3.95647 3.82952,-4.58509 l 0.74718,-0.35435 -0.60255,0.42875 -2.40089,4.25008 c -0.0487,2.883 0.42657,4.10592 1.99181,5.12484 0.73815,0.48051 2.52527,0.54437 3.32073,0.11865 0.82356,-0.44076 1.66245,-1.81368 2.06261,-3.37568 0.21702,-0.84708 0.53888,-1.68446 0.71526,-1.86084 0.51214,-0.51214 0.73061,2.05582 0.38171,4.48676 -0.33969,2.36685 -1.1323,4.08924 -2.15658,4.68644 -1.05437,0.61475 -3.49873,0.57004 -4.82879,-0.0883 z m 5.74969,-11.82502 c -0.1424,-0.26607 -0.20449,-0.48377 -0.13797,-0.48377 0.0665,0 0.23746,0.2177 0.37986,0.48377 0.1424,0.26608 0.20448,0.48378 0.13796,0.48378 -0.0665,0 -0.23745,-0.2177 -0.37985,-0.48378 z m -0.63466,-1.07929 c -0.0746,-0.19449 -0.34334,-0.41953 -0.59713,-0.50007 -0.25379,-0.0805 -0.46143,-0.25048 -0.46143,-0.37762 0,-0.3185 1.13729,0.45251 1.30248,0.883 0.0735,0.19157 0.0792,0.34832 0.0127,0.34832 -0.0665,0 -0.182,-0.15913 -0.25664,-0.35363 z m -52.097,-1.60379 c -2.41483,-0.86572 -9.24551,-4.99095 -6.52098,-3.75684 2.93909,1.3313 -0.28108,-1.24495 2.1217,0.0369 1.07403,0.57297 2.49102,1.69056 3.03137,2.04901 0.59138,0.39912 1.14603,0.72567 1.23257,0.72567 0.0865,0 0.41,0.24491 0.71881,0.54425 0.30882,0.29933 0.76648,0.67391 1.01703,0.83238 0.83995,0.53127 -0.0131,0.30135 -1.6005,-0.43136 z m 48.86145,0.50606 c 0.19955,-0.12897 0.47168,-0.23448 0.60472,-0.23448 0.13304,0 0.0786,0.10551 -0.12095,0.23448 -0.19956,0.12896 -0.47168,0.23448 -0.60472,0.23448 -0.13304,0 -0.0786,-0.10552 0.12095,-0.23448 z m -7.07734,-1.24569 c -0.23915,-0.35872 0.0974,-0.44079 0.78826,-0.93129 0.30225,-0.21458 0.54876,-0.44025 0.77548,-0.67674 0.40204,-0.41934 0.74188,-0.8727 1.2201,-1.3586 0.69228,-0.7034 1.48118,-1.52974 1.7394,-1.84992 0.7601,-0.94248 2.26798,-3.97112 2.41665,-4.85395 0.0755,-0.44846 0.21006,-1.14193 0.29898,-1.54104 0.32412,-1.45478 0.21962,-14.18722 -0.12903,-15.72274 -0.33426,-1.4721 -1.44112,-4.49556 -1.72679,-4.71683 -0.0859,-0.0665 -0.46324,-0.73336 -0.83858,-1.48188 -0.37533,-0.74851 -1.02176,-1.76512 -1.4365,-2.25913 l -0.75408,-0.89819 c -1.66015,1.85521 -1.05486,2.24591 -2.74094,4.67242 -1.09994,1.58298 -1.20272,0.84896 -1.73365,2.4991 -0.44526,1.38385 -1.06806,3.05379 -2.37169,3.51086 -2.82903,0.9919 -5.70927,0.73406 -6.08442,0.78201 -5.32197,0.68012 4.99758,-2.04039 5.52066,-2.85233 0.48887,-0.7555 1.12858,-2.42887 1.78502,-3.56022 l 2.99634,-4.23105 c 1.78329,-2.8856 2.24696,-3.88337 2.82297,-3.79457 0.30454,0.047 0.61706,1.41151 1.36952,0.94651 0.31839,-0.19677 2.25917,2.58495 2.09299,3.01994 -0.0747,0.19551 1.17471,0.43496 0.0385,0.18113 0.29297,-0.29297 2.25171,6.91958 2.62055,8.90789 0.0494,0.26608 0.1946,1.02803 0.32276,1.69322 0.12816,0.66519 0.23951,3.38941 0.24744,6.05381 l 0.77256,5.25505 -0.72296,0.35868 c -0.76545,0.37976 -1.52888,0.65995 -1.19685,0.73164 0.22585,0.0488 1.16939,-0.59862 1.44038,-0.74366 0.47287,-0.25307 -0.0511,0.35149 -0.21243,1.46041 -0.0925,0.63551 0.33302,1.6847 0.32776,1.98404 -0.007,0.40031 -0.65894,0.25994 -1.05925,0.25994 -0.63391,0 -0.71636,0.36342 -0.15387,0.6782 0.28193,0.15778 0.34009,0.37951 0.20935,0.79816 -0.24456,0.78308 -4.26348,4.86981 -4.88725,6.01838 -0.72552,1.33593 -0.95609,1.00521 -2.58915,1.98022 -0.30094,0.17377 -1.02019,-0.0974 -1.16825,-0.3195 z m -52.5278,-11.45876 c -0.29154,-1.37609 -0.65164,-3.34117 -0.75242,-5.45242 -0.15127,-3.16895 -0.17135,-3.77981 0.45601,-6.30859 0.36746,-1.48121 0.70773,-2.76012 0.81076,-2.76012 0.10303,0 0.1722,-0.13606 0.15372,-0.30236 -0.0788,-0.70904 1.21451,-3.43382 1.53649,-3.43382 1.00548,0 1.72764,0.62481 1.85593,0.57555 0.7741,-0.29712 1.6742,1.17177 2.26326,1.29412 1.04911,0.21792 6.02888,5.02588 6.63747,6.20756 0.1444,0.28037 -0.401,-0.19564 -1.212,-1.05781 -1.15981,-1.23299 -1.94905,-1.35233 -2.54525,-1.38231 -0.4169,-0.021 -1.04611,-0.24442 -1.39825,-0.49656 -0.35214,-0.25214 -1.13008,-0.66949 -1.72875,-0.92746 -0.59868,-0.25796 -1.14293,-0.52662 -1.20944,-0.59702 -0.38081,-0.40305 -1.46339,-0.76073 -1.89134,-0.62491 -0.27489,0.0873 -0.20632,0.59403 -0.34298,1.02188 -0.77769,2.43489 -1.32307,4.39757 -1.32234,5.83942 0.001,2.40477 0.46087,7.00104 0.8544,8.54356 0.18844,0.73861 0.37559,1.55499 0.41589,1.81416 0.0403,0.25918 2.99853,6.11138 3.14614,6.24035 2.97042,2.59527 -3.58354,1.92565 -5.7273,-8.19322 z m 14.17225,-7.69028 c -0.28927,-0.30791 -0.52594,-0.65526 -0.52594,-0.77189 0,-0.11663 0.13775,-0.0237 0.3061,0.20656 0.28392,0.38828 0.44611,0.35049 2.23747,-0.52131 4.42065,-2.15141 8.0505,-3.25645 10.58699,-3.22299 0.90247,0.0119 2.28513,-0.43476 3.17868,-0.6212 5.18128,-1.44234 10.5263,-2.27998 15.84736,-2.78315 -0.86874,3.15547 -13.66242,3.82968 -18.00613,4.7825 -0.93127,0.2101 -2.0742,0.46462 -2.53983,0.5656 -0.46564,0.10099 -1.22758,0.30649 -1.69322,0.45667 -6.10943,1.97042 -7.78131,2.46905 -8.27858,2.46905 -0.32283,0 -0.82363,-0.25192 -1.1129,-0.55984 z m 47.9122,-7.07383 c -0.1663,-0.18052 -0.29501,-0.741 -0.28603,-1.24551 l 0.0163,-0.91729 0.32512,1.20944 c 0.17882,0.66519 0.30754,1.22567 0.28604,1.24551 -0.0215,0.0199 -0.17515,-0.11162 -0.34145,-0.29215 z m -3.31041,-9.22761 c -0.13127,-0.34473 -0.10349,-0.37252 0.13541,-0.1354 0.16531,0.16408 0.23963,0.35926 0.16515,0.43373 -0.0745,0.0745 -0.20973,-0.0598 -0.30056,-0.29833 z m -1.97364,-3.27553 -0.4608,-0.54425 0.54425,0.46079 c 0.29934,0.25344 0.54425,0.49835 0.54425,0.54425 0,0.19358 -0.19467,0.0507 -0.6277,-0.46079 z m -2.07843,-1.31421 c 0.17462,-0.0699 0.38325,-0.0613 0.46362,0.0191 0.0804,0.0804 -0.0625,0.13755 -0.31747,0.12704 -0.28179,-0.0116 -0.33911,-0.0689 -0.14615,-0.14614 z"
         id="Shade_BR" /><path
         style="display:inline;fill:#d8b7a4;fill-opacity:1"
         d="m 475.58688,397.08398 c -0.26949,-1.43648 -0.0177,-7.75647 0.32542,-8.16942 0.17097,-0.20573 0.29414,-0.90942 0.27372,-1.0232 -0.15466,-0.86168 0.62673,-1.21449 4.11431,-1.42754 2.24035,-0.13686 3.38998,-0.22926 3.67205,0.38982 0.21513,0.47214 -0.0672,1.67632 -0.27631,3.30435 -0.15131,1.17987 -0.0856,3.54029 -0.0856,5.01373 0,2.19569 0.50102,3.05241 0.19399,3.17023 -0.20605,0.0791 -2.59314,0.0602 -4.37795,0.0707 l -3.65583,0.0216 z m 16.75344,-45.75315 c -0.30088,-0.38365 -0.29233,-0.3922 0.0913,-0.0913 0.40293,0.31599 0.53106,0.51463 0.33198,0.51463 -0.0502,0 -0.24072,-0.19049 -0.4233,-0.42331 z"
         id="BOCA" /><path
         style="display:inline;fill:#0b0805"
         d="m 462.25607,457.30512 c -1.43351,-0.22628 -4.62026,-1.14899 -5.86592,-1.69846 -0.91723,-0.40459 -1.86712,-1.18259 -3.41946,-2.80067 -3.91547,-4.0813 -5.02907,-5.64333 -5.81723,-8.15972 -0.79391,-2.53477 -0.97131,-3.62163 -0.96844,-5.93328 0.005,-4.00806 1.42397,-8.06761 4.00563,-11.45963 1.87246,-2.46019 5.90864,-6.26775 7.8721,-7.42619 1.17763,-0.69481 0.74113,0.11977 -2.77901,0.61523 -3.5346,0.49751 -5.21864,1.30852 -8.71851,1.8376 -6.23279,0.94222 -8.86508,-0.17027 -10.91087,-4.61129 -1.12044,-2.43227 -1.42673,-3.98058 -1.4116,-7.13571 0.0274,-5.71656 1.79481,-11.50398 5.19514,-17.01181 0.64304,-1.04159 1.16916,-1.98238 1.16916,-2.09065 0,-0.2223 0.0956,-0.18123 -3.50738,-1.50714 -3.66442,-1.34852 -5.08244,-2.07463 -12.82008,-6.56463 -5.0085,-2.90633 -6.80141,-4.63504 -9.0706,-8.74579 -0.5474,-0.99165 -1.10695,-1.87203 -1.24343,-1.95638 -0.13649,-0.0844 -0.4757,-0.65841 -0.7538,-1.27568 -0.70101,-1.55594 -0.75593,-5.53147 -0.0948,-6.86122 1.15289,-2.31877 3.53114,-4.11203 6.9949,-5.27432 3.60958,-1.21122 7.5955,-1.80044 18.80194,-2.77943 5.24685,-0.45836 7.18701,-0.85278 9.1716,-1.86451 l 1.55211,-0.79125 0.0825,-1.69322 c 0.37157,-7.6268 1.57255,-16.44206 3.10749,-22.80916 1.70898,-7.08905 4.65684,-12.16583 7.85626,-13.52996 0.46564,-0.19854 1.80957,-0.81143 2.98651,-1.36199 2.68541,-1.25621 4.40068,-1.34873 6.3262,-0.34124 2.73509,1.43108 6.45238,6.1312 9.28126,11.73519 0.41045,0.8131 0.85493,1.54551 0.98772,1.62758 1.0247,0.6333 6.79897,11.01815 8.47716,15.24593 0.42248,1.06431 0.85218,2.04396 0.9549,2.177 0.10272,0.13304 0.38714,0.78614 0.63205,1.45133 0.75606,2.05355 1.79749,3.50676 3.31214,4.62178 2.24798,1.65487 2.85177,1.75194 5.41558,0.87064 1.17853,-0.40512 2.74146,-0.97356 3.47317,-1.26319 4.90854,-1.94298 11.51682,-3.93746 16.93219,-5.11041 2.84994,-0.61729 10.08884,-0.90192 12.07963,-0.47497 1.7189,0.36863 4.06391,1.50757 5.00796,2.4323 2.2051,2.15995 2.35818,5.79408 0.54985,13.05351 -0.88234,3.54207 -1.37105,4.48103 -5.11296,9.8233 -3.17472,4.53251 -4.46932,5.89419 -13.95155,14.67449 -1.10504,1.02324 -1.96772,1.98475 -1.91707,2.13669 0.0507,0.15195 0.63331,0.5029 1.29481,0.77991 1.41946,0.59441 2.97828,1.6862 2.59154,1.81511 -0.14923,0.0497 -1.06495,-0.243 -2.03494,-0.65055 -2.10831,-0.88581 -2.27861,-0.8994 -2.46692,-0.19674 -0.24536,0.91556 -0.19363,1.03723 1.12478,2.64567 3.2272,3.93712 4.53252,10.47511 2.98003,14.92611 -0.34311,0.9837 -0.91362,2.28303 -1.2678,2.88739 -1.40198,2.3923 -4.09857,4.72493 -7.40349,6.40424 -1.95922,0.99552 -2.04062,1.01396 -4.4149,0.99975 -2.33625,-0.014 -2.57907,-0.0696 -7.10756,-1.62704 -2.57877,-0.88692 -4.78297,-1.55429 -4.89824,-1.48306 -0.11526,0.0712 -0.20956,0.3958 -0.20956,0.72126 0,0.79657 -1.32088,6.98077 -1.76719,8.27382 -0.19606,0.56801 -0.72191,1.63571 -1.16855,2.37267 -0.67916,1.12059 -1.06274,1.46333 -2.34337,2.09378 -2.23369,1.09964 -4.12334,1.08791 -6.5314,-0.0405 -2.18255,-1.02278 -3.39591,-2.32829 -4.29588,-4.62215 -0.60633,-1.54545 -1.06748,-1.97887 -1.06784,-1.00364 -2.1e-4,0.58724 -1.60657,5.45935 -2.15332,6.53107 -0.53951,1.05753 -2.63578,3.09222 -3.53997,3.436 -1.00976,0.38391 -3.27988,0.2721 -4.35056,-0.21427 -0.53525,-0.24315 -1.29684,-0.78501 -1.69243,-1.20413 -0.39559,-0.41913 -0.84104,-0.76205 -0.98989,-0.76205 -0.14886,0 -1.037,0.3834 -1.97366,0.85198 -2.20608,1.10366 -4.41706,3.39827 -5.01814,5.20795 -0.54434,1.63885 -0.39973,4.30511 0.30762,5.67166 0.57294,1.10688 1.6829,2.20354 3.08304,3.04609 0.85857,0.51665 1.25362,0.58223 3.50738,0.58223 2.35103,0 2.66023,-0.057 4.15955,-0.76733 0.89085,-0.42203 2.31584,-1.25389 3.16665,-1.84858 2.05478,-1.43621 2.90903,-1.85902 3.75603,-1.85902 2.35464,0 3.81301,3.9727 2.83439,7.72108 -1.21097,4.63836 -4.44215,7.82739 -9.20815,9.08799 -1.478,0.39093 -5.4653,0.65775 -6.76452,0.45267 z m 4.88074,-1.07506 c 5.01049,-0.69307 8.74975,-3.72764 10.00592,-8.12023 0.51833,-1.8125 0.59798,-3.00696 0.24376,-3.65527 -0.12623,-0.23101 -0.29592,-0.93538 -0.3771,-1.56527 -0.15253,-1.18351 -0.75065,-1.87836 -1.61687,-1.87836 -0.51134,0 -1.82977,0.7174 -3.46092,1.88318 -0.66519,0.47541 -2.02581,1.25305 -3.0236,1.72807 -1.73927,0.82803 -1.92402,0.86369 -4.47494,0.86369 -2.44327,0 -2.76525,-0.055 -3.93899,-0.67348 -1.57239,-0.82847 -2.8878,-2.15367 -3.68264,-3.71005 -0.51745,-1.01323 -0.60241,-1.50452 -0.60141,-3.47784 0.001,-2.0469 0.0751,-2.43846 0.67757,-3.58423 1.13331,-2.15518 3.62988,-4.34902 6.00011,-5.27256 0.58387,-0.22751 1.10696,-0.57676 1.13669,-0.59593 0.0297,-0.0192 -0.34515,-0.76202 -0.8073,-1.83096 -0.89894,-2.07924 -1.80763,-5.29609 -1.80763,-6.39918 v -0.67328 l -1.20166,0.53056 c -3.54372,1.56464 -9.15477,7.13523 -11.13297,11.0527 -1.64344,3.25454 -2.28788,7.36936 -1.7,10.85472 0.2353,1.395 0.60948,1.56374 0.75763,1.9023 0.33055,0.7554 0.79234,1.18193 1.41626,2.64943 0.98137,2.30822 5.17234,6.92353 6.98251,8.07028 1.76797,1.12002 5.15162,2.04261 7.82386,2.13326 0.48927,0.0166 1.74104,-0.0876 2.78172,-0.23155 z m -15.48319,-8.78658 c -0.65494,-2.24016 -1.12562,-8.15066 -0.63147,-10.92353 0.82445,-4.62623 4.07263,-11.42766 5.15587,-11.12708 1.08324,0.30057 -0.59764,1.06446 -1.48743,2.83171 -2.90333,5.76643 -3.82205,11.57659 -2.43899,19.07268 0.69368,1.06503 -0.18612,0.92887 -0.59798,0.14622 z m 19.82913,-17.44091 c 1.82158,-0.90772 2.62174,-2.0833 3.74495,-5.50193 0.53519,-1.62895 1.03444,-3.47793 1.10943,-4.10885 0.075,-0.63093 0.27402,-1.26139 0.44228,-1.40103 0.44067,-0.36572 1.41548,0.6205 1.80141,1.8225 1.09846,3.42127 3.10723,5.32232 6.25465,5.91921 1.3682,0.25948 2.91992,0.038 4.13437,-0.58997 0.83609,-0.43236 1.71279,-1.6 2.36681,-3.15225 0.53256,-1.26398 1.60062,-6.01514 1.88973,-8.40628 l 0.16825,-1.39152 -0.93503,-0.37728 c -3.70889,-1.49652 -5.63723,-2.53529 -9.47117,-5.10201 -2.0901,-1.39925 -4.02489,-2.75226 -4.29954,-3.00668 -0.27465,-0.25441 -0.57142,-0.46257 -0.65948,-0.46257 -0.49267,0 -3.61262,2.39677 -4.65736,3.57782 -2.52503,2.85449 -9.04114,8.73983 -9.70611,8.76653 -0.11024,0.004 -0.46084,0.22491 -0.77912,0.48997 -0.53938,0.44918 -0.56969,0.60066 -0.44608,2.22942 0.0729,0.96112 0.3133,2.45502 0.53414,3.31977 0.45162,1.76841 2.19352,5.56343 2.55359,5.56343 0.12924,0 0.23498,0.15061 0.23498,0.33469 0,0.18407 0.43571,0.72832 0.96825,1.20944 0.85594,0.77329 1.11697,0.87475 2.25045,0.87475 0.88418,0 1.6604,-0.18847 2.5006,-0.60716 z m -23.29325,-8.93711 c 6.62802,-1.12282 11.49231,-2.90564 15.66563,-5.74166 1.89827,-1.28999 6.88608,-6.06966 7.09172,-6.79578 0.17161,-0.60595 1.83393,-1.97071 4.599,-3.77577 1.47696,-0.96417 2.02085,-1.19795 2.52095,-1.08358 0.35072,0.0802 2.5045,1.3727 4.78617,2.87221 5.42215,3.56341 7.93522,4.74432 15.08163,7.08696 7.09515,2.32584 8.9032,2.65243 10.92104,1.97267 5.51827,-1.85897 9.54503,-6.24932 10.36674,-11.30279 0.67263,-4.13664 -0.99632,-10.06277 -3.59194,-12.7543 -1.13256,-1.17441 -1.58672,-1.96595 -1.24808,-2.17524 0.13339,-0.0824 0.24254,-0.50323 0.24254,-0.93506 0,-0.77665 -0.025,-0.79355 -2.30545,-1.558 -2.95722,-0.99133 -3.37538,-0.9899 -3.89332,0.0133 -0.38822,0.75195 -2.03773,2.94533 -2.93201,3.89875 -0.98482,1.04995 -4.72593,3.63175 -7.19669,4.96656 -1.52931,0.82621 -3.84365,1.81279 -5.44248,2.32008 l -2.78172,0.88261 -10.58304,0.1025 c -11.81712,0.11446 -14.6579,-0.0853 -17.40722,-1.22397 -3.42661,-1.41919 -3.81806,-1.5568 -3.81806,-1.34222 0,0.12325 0.11092,0.29264 0.24649,0.37642 0.13557,0.0838 0.53435,0.7161 0.88618,1.40514 0.57696,1.12995 0.6353,1.4869 0.59501,3.6403 -0.0866,4.62856 -0.71283,6.7629 -2.52945,8.62098 -2.03233,2.07871 -5.2448,2.42762 -7.02128,0.7626 -2.83297,-2.65523 -2.59838,-8.93562 0.49204,-13.1731 1.53458,-2.10416 1.99652,-2.52265 3.13705,-2.84198 0.92831,-0.25991 1.02748,-0.3428 0.64924,-0.54266 -1.06096,-0.5606 -3.17661,-2.00944 -3.99829,-2.73811 -1.05675,-0.93713 -1.12836,-0.92653 -5.47507,0.81013 -1.89266,0.75619 -2.81535,1.01632 -2.98899,0.84269 -0.17363,-0.17364 -0.0677,-0.37137 0.34309,-0.64054 0.74572,-0.48861 5.38853,-2.13766 5.84076,-2.31644 0.71371,-0.28215 0.65741,-0.27187 0.0912,-1.26652 -0.26748,-0.46989 -0.8622,-1.47907 -1.24593,-2.28949 l -0.69768,-1.47349 -1.47931,-0.29094 c -0.81362,-0.16002 -1.69298,-0.40524 -1.95413,-0.54493 -0.4715,-0.25222 -0.47148,-0.25523 0.002,-0.43035 0.26219,-0.097 1.02011,-0.0925 1.68425,0.01 0.66415,0.10247 1.22615,0.17038 1.2489,0.15091 0.0227,-0.0195 -0.16622,-0.90573 -0.41994,-1.96946 -0.25372,-1.06373 -0.57746,-3.29969 -0.71941,-4.9688 -0.23385,-2.74955 -0.2114,-3.24963 0.23887,-5.32154 0.54375,-2.50204 2.02386,-7.4949 2.50643,-8.45496 0.16718,-0.33259 0.51802,-0.63507 0.77966,-0.67216 0.59369,-0.0842 5.84639,3.02278 7.53899,4.45929 2.00412,1.70091 4.26223,4.14929 4.81281,5.21834 0.35156,0.68263 0.56619,0.88995 0.69894,0.67515 0.10537,-0.17049 1.07441,-0.72355 2.15341,-1.22901 3.58386,-1.67888 7.93867,-2.88817 10.40067,-2.88817 0.69932,0 2.84198,-0.26537 4.76148,-0.58971 1.91949,-0.32433 4.74175,-0.75866 6.2717,-0.96518 1.52994,-0.20651 3.48924,-0.4832 4.35399,-0.61487 0.86475,-0.13167 2.02979,-0.24159 2.58898,-0.24426 0.97899,-0.005 1.03553,-0.0475 1.52394,-1.15384 1.06679,-2.41645 5.75812,-10.1734 6.75674,-11.17202 0.55247,-0.55246 1.622,-0.6439 2.2111,-0.18904 0.75248,0.58104 2.20092,2.69716 2.91808,4.26322 1.6081,3.51164 2.70842,6.49441 2.8191,7.64209 0.0641,0.66519 0.22254,1.27783 0.35198,1.36141 0.45582,0.29433 0.64396,2.31553 0.65439,7.02994 0.006,2.61966 0.0933,4.81414 0.19435,4.87662 0.1011,0.0625 0.86711,-0.29737 1.70226,-0.79967 1.96016,-1.17896 3.39738,-1.82299 3.60495,-1.61541 0.26026,0.26025 -0.37249,0.74634 -2.70931,2.08135 -1.19735,0.68403 -2.2488,1.31915 -2.33657,1.41138 -0.0878,0.0922 -0.23627,1.11492 -0.33001,2.27266 l -0.17043,2.10497 0.69284,0.15074 c 0.38106,0.0829 1.71055,0.49059 2.95442,0.90594 1.98087,0.66146 2.2876,0.70871 2.47118,0.38067 0.11528,-0.20598 1.05372,-1.17992 2.08543,-2.1643 2.49226,-2.37794 6.82712,-6.49522 8.87352,-8.42812 0.90761,-0.85727 1.93899,-1.94577 2.29195,-2.41888 0.35296,-0.47311 0.75059,-0.98267 0.88363,-1.13235 0.13304,-0.14968 0.73171,-1.04944 1.33039,-1.99948 0.59867,-0.95003 1.69932,-2.56916 2.44588,-3.59806 0.74656,-1.02891 1.52931,-2.2067 1.73944,-2.61732 0.65684,-1.2835 1.96954,-6.90908 2.45737,-10.53103 0.20782,-1.54295 -0.22839,-3.99059 -0.88091,-4.94287 -1.75723,-2.56451 -6.86018,-3.67197 -13.38127,-2.90406 -4.05421,0.47741 -13.52875,2.81786 -15.49408,3.82743 -0.39184,0.20128 -1.58323,0.64184 -2.64754,0.97901 -1.06431,0.33717 -2.96166,1.0066 -4.21634,1.48762 -3.40962,1.30717 -4.13337,1.42615 -5.38399,0.88508 -2.00763,-0.86859 -3.87637,-2.49516 -4.92159,-4.28384 -0.5369,-0.91877 -1.15409,-2.1059 -1.37153,-2.63805 -1.6682,-4.08257 -2.37068,-5.66948 -3.58706,-8.10326 -1.88753,-3.77664 -3.53825,-6.52913 -4.35192,-7.25665 -0.37199,-0.3326 -1.35369,-1.91092 -2.18156,-3.50738 -0.82787,-1.59646 -1.63701,-3.06593 -1.79808,-3.26549 -0.16107,-0.19956 -0.64228,-0.98522 -1.06935,-1.7459 -1.01807,-1.81335 -3.20396,-4.6694 -4.46352,-5.832 -1.37127,-1.26568 -3.16344,-2.09236 -4.54239,-2.09527 -1.65187,-0.003 -7.51183,2.91561 -8.74494,4.35622 -0.95072,1.1107 -2.41045,3.78628 -3.42867,6.2845 -1.56064,3.82907 -3.34601,13.95737 -4.11466,23.34223 -0.33049,4.03515 -0.68474,5.86739 -1.2367,6.39653 -0.12211,0.11706 -0.89684,0.55316 -1.72161,0.9691 -1.71357,0.86417 -4.10904,1.37899 -7.93387,1.70508 -11.72029,0.99925 -14.8653,1.40267 -18.14182,2.32708 -3.04088,0.85794 -5.09216,1.89553 -6.46864,3.27202 -1.51486,1.51486 -1.87651,2.41639 -1.87651,4.67788 0,1.65206 0.0701,1.95577 1.11722,4.05303 0.04,0.0801 0.0814,0.16277 0.12427,0.24826 1.60267,3.19504 3.56026,6.15875 4.81914,7.29607 1.31441,1.18749 3.39011,2.50946 8.08984,5.15226 5.38007,3.02536 6.49534,3.56275 10.22428,4.92652 2.95637,1.08122 3.31856,1.20048 3.68625,0.86773 0.456,-0.41268 0.96561,-0.52664 0.96561,-0.17958 0,0.12548 -0.65724,1.24119 -1.46052,2.47936 -4.03733,6.22304 -5.86179,11.85721 -5.8988,18.21585 -0.009,1.51917 0.0127,2.40451 0.12212,3.1597 0.0849,0.58572 0.22267,1.09315 0.44022,1.7573 1,3.05284 2.60754,5.12282 4.49904,5.79344 1.23227,0.4369 4.27812,0.3223 7.94527,-0.29893 z m 57.1227,-10.27486 c -2.05982,-0.50146 -4.15127,-2.45249 -4.96687,-4.6334 -0.78049,-2.08701 -0.7204,-5.05415 0.13914,-6.87109 1.29916,-2.74618 4.92386,-5.37628 7.0752,-5.1338 0.58761,0.0662 1.37918,0.35022 1.75907,0.63108 0.37988,0.28085 0.85326,0.51065 1.05196,0.51065 0.58306,0 1.86426,4.31978 2.01383,6.78993 0.13506,2.23054 -0.30614,4.62402 -1.16168,6.30208 -1.06211,2.08323 -3.37146,3.02271 -5.91065,2.40455 z m 3.85694,-1.45884 c 0.91628,-0.56629 1.71077,-2.19377 2.06262,-4.2252 0.34759,-2.00689 0.31081,-3.36011 -0.14137,-5.20119 -0.72902,-2.96827 -2.21578,-4.85322 -3.82798,-4.85322 -1.93157,0 -5.3632,3.07341 -6.04314,5.41232 -1.08613,3.73616 0.18646,7.40882 3.06006,8.83123 1.39132,0.68869 3.80504,0.70649 4.88981,0.0361 z m -53.62266,1.50432 c 0.94534,-0.4324 1.81745,-1.42453 2.58682,-2.94281 0.50791,-1.00231 0.57601,-1.5112 0.65082,-4.86375 0.0827,-3.70543 0.0767,-3.75593 -0.57241,-4.86182 -0.77473,-1.31983 -1.83649,-1.90611 -3.45196,-1.90611 -1.2898,0 -1.45971,0.14449 -3.12896,2.66077 -1.70528,2.57061 -2.14818,4.11235 -2.02897,7.06285 0.10861,2.68809 0.46312,3.72623 1.61093,4.71744 0.95462,0.82437 2.70531,0.87827 4.33373,0.13343 z m 19.34158,-17.05384 c -0.0456,-4.63768 0.16769,-6.08728 1.02117,-6.94076 0.55894,-0.55894 3.24634,-1.02898 6.12202,-1.07077 2.96116,-0.043 2.95261,-0.0564 2.69033,4.20178 -0.25162,4.08505 -0.26748,7.88696 -0.0339,8.12018 0.0978,0.0977 1.51289,0.0663 3.14455,-0.0697 6.29267,-0.52455 11.7189,-3.21096 17.02547,-8.42894 2.77159,-2.72533 3.36731,-3.62663 2.65902,-4.02301 -0.58277,-0.32613 -0.4715,-0.6782 0.21434,-0.6782 0.5597,0 0.60497,-0.0855 0.60802,-1.14897 0.002,-0.63193 0.0722,-1.40624 0.15634,-1.72067 0.14096,-0.52661 0.11108,-0.54925 -0.37881,-0.28707 -0.29252,0.15655 -0.71663,0.24474 -0.94248,0.19598 -0.33203,-0.0717 -0.26016,-0.22381 0.37551,-0.79482 l 0.78614,-0.70617 -0.0144,-4.84438 c -0.008,-2.6644 -0.11928,-5.38862 -0.24744,-6.05381 -0.12816,-0.66519 -0.27349,-1.42714 -0.32296,-1.69322 -0.32316,-1.73815 -2.88207,-8.43366 -3.83649,-10.03837 -0.91695,-1.54168 -1.90245,-2.66077 -2.34318,-2.66077 -0.23911,0 -0.70321,0.35376 -1.03134,0.78614 -0.50329,0.66318 -3.50342,5.61213 -5.8288,9.61506 -1.32487,2.28064 -0.96363,2.1213 -6.58181,2.90318 -6.25995,0.87119 -7.81111,1.11438 -10.87621,1.70513 -1.33039,0.25641 -3.12641,0.45551 -3.99116,0.44245 -2.45583,-0.0371 -6.14092,1.08983 -10.49883,3.21062 -1.05149,0.51171 -1.94793,0.93038 -1.9921,0.93038 -0.0442,0 -0.40053,-0.63437 -0.79192,-1.40972 -1.17343,-2.32454 -5.05635,-5.66138 -9.7178,-8.35113 -0.61036,-0.35219 -1.26555,-0.64035 -1.45598,-0.64035 -0.33353,0 -1.50605,3.47068 -2.53328,7.49854 -0.54323,2.13004 -0.32539,7.54082 0.42994,10.67882 l 0.52915,2.19837 1.10241,0.46349 c 2.92729,1.23074 4.63428,2.45432 4.12895,2.95966 -0.17787,0.17786 -0.45293,0.12497 -0.91478,-0.1759 -0.99291,-0.64683 -3.24314,-1.64889 -3.38475,-1.50729 -0.0684,0.0684 0.30167,0.86217 0.82235,1.76394 l 1.09861,1.98685 2.13988,-0.34726 c 1.85168,-0.30049 2.2918,0.0658 2.2918,0.36283 0,0.265 -0.44025,0.42203 -1.63275,0.58239 -0.89801,0.12075 -1.6285,0.28403 -1.62331,0.36283 0.0203,0.30771 2.3033,1.80901 4.10075,2.69661 1.03977,0.51345 3.39765,1.54739 5.23973,2.29763 3.87937,1.58 6.01671,1.48218 11.10666,1.82539 l 3.22474,0.21744 z m -8.03611,-3.74461 c -1.45907,-0.34709 -2.14426,-1.79213 -2.00342,-4.22514 0.0898,-1.55189 0.25986,-2.18851 0.93566,-3.50341 1.85893,-3.61693 3.64328,-3.07616 4.60212,1.39474 0.28452,1.32668 0.0477,3.52351 -0.54977,5.09895 -0.31306,0.82556 -1.91645,1.48896 -2.98459,1.23486 z m 23.87631,-1.65359 c -1.24586,-0.87263 -1.55537,-3.11302 -0.90191,-6.52837 0.35236,-1.84158 0.80943,-2.84587 1.55909,-3.42565 0.51675,-0.39965 1.83061,-0.38649 2.1694,0.0217 0.47165,0.56829 1.48644,3.83472 1.63896,5.2755 0.12655,1.19551 0.0638,1.51367 -0.48272,2.44618 -0.78484,1.33922 -2.18473,2.58962 -2.89923,2.58962 -0.29836,0 -0.78598,-0.17055 -1.08359,-0.37901 z m -7.37766,9.46673 c 0.0737,-0.0539 0.38005,-6.95398 0.40883,-9.20866 l 0.0247,-1.93511 -2.17699,0.0737 c -1.19735,0.0406 -2.8301,0.20382 -3.62833,0.36283 -3.25506,0.44027 -2.04786,8.32218 -2.0561,11.04982 l 3.6888,-0.15291 c 2.02884,-0.0841 3.71141,-0.16947 3.73904,-0.18969 z"
         id="DELINEADO" /></g></g><style
     id="style1">stroke-dashoffset:0;stroke-dashoffset:0;#export-svg { font-family:arial,sans-serif;font-size:14px;fill:#333; }
.edge-animation-frame { from }
.dash { to }
#export-svg .edge-animation-slow { stroke-dasharray:9,5!important;stroke-dashoffset:900;animation:dash 50s linear infinite;stroke-linecap:round; }
#export-svg .edge-animation-fast { stroke-dasharray:9,5!important;stroke-dashoffset:900;animation:dash 20s linear infinite;stroke-linecap:round; }
#export-svg .error-icon { fill:#ffffff; }
#export-svg .error-text { fill:#000000;stroke:#000000; }
#export-svg .edge-thickness-normal { stroke-width:2px; }
#export-svg .edge-thickness-thick { stroke-width:3.5px; }
#export-svg .edge-pattern-solid { stroke-dasharray:0; }
#export-svg .edge-thickness-invisible { stroke-width:0;fill:none; }
#export-svg .edge-pattern-dashed { stroke-dasharray:3; }
#export-svg .edge-pattern-dotted { stroke-dasharray:2; }
#export-svg .marker { fill:#000000;stroke:#000000; }
#export-svg .marker.cross { stroke:#000000; }
#export-svg svg { font-family:arial,sans-serif;font-size:14px; }
#export-svg p { margin:0; }
#export-svg .entityBox { fill:#ffffff;stroke:#000000; }
#export-svg .attributeBoxOdd { fill:#ffffff;stroke:#000000; }
#export-svg .attributeBoxEven { fill:#f2f2f2;stroke:#000000; }
#export-svg .relationshipLabelBox { fill:#ffffff;opacity:0.7;background-color:#ffffff; }
#export-svg .relationshipLabelBox rect { opacity:0.5; }
#export-svg .relationshipLine { stroke:#000000; }
#export-svg .entityTitleText { text-anchor:middle;font-size:18px;fill:#333; }
#export-svg #MD_PARENT_START { fill:#f5f5f5!important;stroke:#000000!important;stroke-width:1; }
#export-svg #MD_PARENT_END { fill:#f5f5f5!important;stroke:#000000!important;stroke-width:1; }
#export-svg .node .neo-node { stroke:#000000; }
</style><style
     id="style10">#export-svg{font-family:arial,sans-serif;font-size:14px;fill:#333;}@keyframes edge-animation-frame{from{stroke-dashoffset:0;}}@keyframes dash{to{stroke-dashoffset:0;}}#export-svg .edge-animation-slow{stroke-dasharray:9,5!important;stroke-dashoffset:900;animation:dash 50s linear infinite;stroke-linecap:round;}#export-svg .edge-animation-fast{stroke-dasharray:9,5!important;stroke-dashoffset:900;animation:dash 20s linear infinite;stroke-linecap:round;}#export-svg .error-icon{fill:#552222;}#export-svg .error-text{fill:#552222;stroke:#552222;}#export-svg .edge-thickness-normal{stroke-width:1px;}#export-svg .edge-thickness-thick{stroke-width:3.5px;}#export-svg .edge-pattern-solid{stroke-dasharray:0;}#export-svg .edge-thickness-invisible{stroke-width:0;fill:none;}#export-svg .edge-pattern-dashed{stroke-dasharray:3;}#export-svg .edge-pattern-dotted{stroke-dasharray:2;}#export-svg .marker{fill:#333333;stroke:#333333;}#export-svg .marker.cross{stroke:#333333;}#export-svg svg{font-family:arial,sans-serif;font-size:14px;}#export-svg p{margin:0;}#export-svg .actor{stroke:#B8B8FF;fill:#ECECFF;}#export-svg text.actor&gt;tspan{fill:black;stroke:none;}#export-svg .actor-line{stroke:#B8B8FF;}#export-svg .messageLine0{stroke-width:1.5;stroke-dasharray:none;stroke:#333;}#export-svg .messageLine1{stroke-width:1.5;stroke-dasharray:2,2;stroke:#333;}#export-svg #arrowhead path{fill:#333;stroke:#333;}#export-svg .sequenceNumber{fill:white;}#export-svg #sequencenumber{fill:#333;}#export-svg #crosshead path{fill:#333;stroke:#333;}#export-svg .messageText{fill:#333;stroke:none;}#export-svg .labelBox{stroke:#B8B8FF;fill:#ECECFF;}#export-svg .labelText,#export-svg .labelText&gt;tspan{fill:black;stroke:none;}#export-svg .loopText,#export-svg .loopText&gt;tspan{fill:black;stroke:none;}#export-svg .loopLine{stroke-width:2px;stroke-dasharray:2,2;stroke:#B8B8FF;fill:#B8B8FF;}#export-svg .note{stroke:#aaaa33;fill:#fff5ad;}#export-svg .noteText,#export-svg .noteText&gt;tspan{fill:black;stroke:none;}#export-svg .activation0{fill:#f4f4f4;stroke:#666;}#export-svg .activation1{fill:#f4f4f4;stroke:#666;}#export-svg .activation2{fill:#f4f4f4;stroke:#666;}#export-svg .actorPopupMenu{position:absolute;}#export-svg .actorPopupMenuPanel{position:absolute;fill:#ECECFF;box-shadow:0px 8px 16px 0px rgba(0,0,0,0.2);filter:drop-shadow(3px 5px 2px rgb(0 0 0 / 0.4));}#export-svg .actor-man line{stroke:#B8B8FF;fill:#ECECFF;}#export-svg .actor-man circle,#export-svg line{stroke:#B8B8FF;fill:#ECECFF;stroke-width:2px;}#export-svg .node .neo-node{stroke:#B8B8FF;}#export-svg [data-look=&quot;neo&quot;].node rect,#export-svg [data-look=&quot;neo&quot;].cluster rect,#export-svg [data-look=&quot;neo&quot;].node polygon{stroke:#B8B8FF;filter:drop-shadow( 1px 2px 2px rgba(185,185,185,1));}#export-svg [data-look=&quot;neo&quot;].node path{stroke:#B8B8FF;}#export-svg [data-look=&quot;neo&quot;].node .outer-path{filter:drop-shadow( 1px 2px 2px rgba(185,185,185,1));}#export-svg [data-look=&quot;neo&quot;].node .neo-line path{stroke:hsl(240, 60%, 86.2745098039%);filter:none;}#export-svg [data-look=&quot;neo&quot;].node circle{stroke:#B8B8FF;filter:drop-shadow( 1px 2px 2px rgba(185,185,185,1));}#export-svg [data-look=&quot;neo&quot;].node circle .state-start{fill:#000000;}#export-svg [data-look=&quot;neo&quot;].statediagram-cluster rect{fill:#ECECFF;stroke:#B8B8FF;stroke-width:1px;}#export-svg [data-look=&quot;neo&quot;].icon-shape .icon{fill:#B8B8FF;filter:drop-shadow( 1px 2px 2px rgba(185,185,185,1));}#export-svg [data-look=&quot;neo&quot;].icon-shape .icon-neo path{stroke:#B8B8FF;filter:drop-shadow( 1px 2px 2px rgba(185,185,185,1));}#export-svg :root{--mermaid-font-family:&quot;trebuchet ms&quot;,verdana,arial,sans-serif;}</style><style
     id="style10-5">#export-svg{font-family:arial,sans-serif;font-size:14px;fill:#333;}@keyframes edge-animation-frame{from{stroke-dashoffset:0;}}@keyframes dash{to{stroke-dashoffset:0;}}#export-svg .edge-animation-slow{stroke-dasharray:9,5!important;stroke-dashoffset:900;animation:dash 50s linear infinite;stroke-linecap:round;}#export-svg .edge-animation-fast{stroke-dasharray:9,5!important;stroke-dashoffset:900;animation:dash 20s linear infinite;stroke-linecap:round;}#export-svg .error-icon{fill:#552222;}#export-svg .error-text{fill:#552222;stroke:#552222;}#export-svg .edge-thickness-normal{stroke-width:1px;}#export-svg .edge-thickness-thick{stroke-width:3.5px;}#export-svg .edge-pattern-solid{stroke-dasharray:0;}#export-svg .edge-thickness-invisible{stroke-width:0;fill:none;}#export-svg .edge-pattern-dashed{stroke-dasharray:3;}#export-svg .edge-pattern-dotted{stroke-dasharray:2;}#export-svg .marker{fill:#333333;stroke:#333333;}#export-svg .marker.cross{stroke:#333333;}#export-svg svg{font-family:arial,sans-serif;font-size:14px;}#export-svg p{margin:0;}#export-svg .actor{stroke:#B8B8FF;fill:#ECECFF;}#export-svg text.actor&gt;tspan{fill:black;stroke:none;}#export-svg .actor-line{stroke:#B8B8FF;}#export-svg .messageLine0{stroke-width:1.5;stroke-dasharray:none;stroke:#333;}#export-svg .messageLine1{stroke-width:1.5;stroke-dasharray:2,2;stroke:#333;}#export-svg #arrowhead path{fill:#333;stroke:#333;}#export-svg .sequenceNumber{fill:white;}#export-svg #sequencenumber{fill:#333;}#export-svg #crosshead path{fill:#333;stroke:#333;}#export-svg .messageText{fill:#333;stroke:none;}#export-svg .labelBox{stroke:#B8B8FF;fill:#ECECFF;}#export-svg .labelText,#export-svg .labelText&gt;tspan{fill:black;stroke:none;}#export-svg .loopText,#export-svg .loopText&gt;tspan{fill:black;stroke:none;}#export-svg .loopLine{stroke-width:2px;stroke-dasharray:2,2;stroke:#B8B8FF;fill:#B8B8FF;}#export-svg .note{stroke:#aaaa33;fill:#fff5ad;}#export-svg .noteText,#export-svg .noteText&gt;tspan{fill:black;stroke:none;}#export-svg .activation0{fill:#f4f4f4;stroke:#666;}#export-svg .activation1{fill:#f4f4f4;stroke:#666;}#export-svg .activation2{fill:#f4f4f4;stroke:#666;}#export-svg .actorPopupMenu{position:absolute;}#export-svg .actorPopupMenuPanel{position:absolute;fill:#ECECFF;box-shadow:0px 8px 16px 0px rgba(0,0,0,0.2);filter:drop-shadow(3px 5px 2px rgb(0 0 0 / 0.4));}#export-svg .actor-man line{stroke:#B8B8FF;fill:#ECECFF;}#export-svg .actor-man circle,#export-svg line{stroke:#B8B8FF;fill:#ECECFF;stroke-width:2px;}#export-svg .node .neo-node{stroke:#B8B8FF;}#export-svg [data-look=&quot;neo&quot;].node rect,#export-svg [data-look=&quot;neo&quot;].cluster rect,#export-svg [data-look=&quot;neo&quot;].node polygon{stroke:#B8B8FF;filter:drop-shadow( 1px 2px 2px rgba(185,185,185,1));}#export-svg [data-look=&quot;neo&quot;].node path{stroke:#B8B8FF;}#export-svg [data-look=&quot;neo&quot;].node .outer-path{filter:drop-shadow( 1px 2px 2px rgba(185,185,185,1));}#export-svg [data-look=&quot;neo&quot;].node .neo-line path{stroke:hsl(240, 60%, 86.2745098039%);filter:none;}#export-svg [data-look=&quot;neo&quot;].node circle{stroke:#B8B8FF;filter:drop-shadow( 1px 2px 2px rgba(185,185,185,1));}#export-svg [data-look=&quot;neo&quot;].node circle .state-start{fill:#000000;}#export-svg [data-look=&quot;neo&quot;].statediagram-cluster rect{fill:#ECECFF;stroke:#B8B8FF;stroke-width:1px;}#export-svg [data-look=&quot;neo&quot;].icon-shape .icon{fill:#B8B8FF;filter:drop-shadow( 1px 2px 2px rgba(185,185,185,1));}#export-svg [data-look=&quot;neo&quot;].icon-shape .icon-neo path{stroke:#B8B8FF;filter:drop-shadow( 1px 2px 2px rgba(185,185,185,1));}#export-svg :root{--mermaid-font-family:&quot;trebuchet ms&quot;,verdana,arial,sans-serif;}</style></svg>
