<?xml version="1.0" encoding="UTF-8" standalone="no"?>
<!-- Created with Inkscape (http://www.inkscape.org/) -->

<svg
   width="210mm"
   height="297mm"
   viewBox="0 0 210 297"
   version="1.1"
   id="svg1"
   xml:space="preserve"
   inkscape:version="1.3.2 (091e20e, 2023-11-25, custom)"
   sodipodi:docname="saque.svg"
   inkscape:export-filename="ataquez.svg"
   inkscape:export-xdpi="96"
   inkscape:export-ydpi="96"
   xmlns:inkscape="http://www.inkscape.org/namespaces/inkscape"
   xmlns:sodipodi="http://sodipodi.sourceforge.net/DTD/sodipodi-0.dtd"
   xmlns="http://www.w3.org/2000/svg"
   xmlns:svg="http://www.w3.org/2000/svg"><sodipodi:namedview
     id="namedview1"
     pagecolor="#ffffff"
     bordercolor="#000000"
     borderopacity="0.25"
     inkscape:showpageshadow="2"
     inkscape:pageopacity="0.0"
     inkscape:pagecheckerboard="0"
     inkscape:deskcolor="#d1d1d1"
     inkscape:document-units="mm"
     inkscape:zoom="2.9611953"
     inkscape:cx="485.95242"
     inkscape:cy="275.05785"
     inkscape:window-width="1920"
     inkscape:window-height="1009"
     inkscape:window-x="-8"
     inkscape:window-y="-8"
     inkscape:window-maximized="1"
     inkscape:current-layer="layer1" /><defs
     id="defs1" /><g
     inkscape:label="Capa 1"
     inkscape:groupmode="layer"
     id="layer1"><path
       id="path1"
       style="fill:#1a1a1a;stroke-width:1.73858"
       d="m 125.29681,70.388113 c -0.25888,-0.03241 -0.49501,0.151236 -0.52735,0.410126 l -0.68575,2.119512 c 0,0 -0.44149,0.542668 0.31626,0.836592 0.75752,0.293995 1.36512,0.591385 1.36512,0.591385 0,0 0.76028,0.404905 0.29699,2.051729 -0.46329,1.646818 1.69752,-0.296926 1.69752,-0.296926 0,0 0.57778,-2.141647 0.8748,-2.215201 0.25682,-0.0636 2.57223,-0.360551 3.21375,-0.4664 0.0539,-0.0012 0.10724,-0.01174 0.15761,-0.03101 0.003,-0.0015 0.0128,-0.0028 0.013,-0.0038 2e-4,-2.8e-4 2e-5,-0.0011 1.5e-4,-0.0013 0.1576,-0.06435 0.2684,-0.208481 0.29002,-0.377331 0.0323,-0.25876 -0.15117,-0.494757 -0.40996,-0.527164 -0.0278,-0.0032 -0.0559,-0.0039 -0.0838,-0.0021 l -7e-5,-9.12e-4 -0.0103,0.0018 c -0.0357,0.0023 -0.0709,0.0087 -0.10504,0.01893 -3.1e-4,8.1e-5 -6.4e-4,1.61e-4 -9.5e-4,2.42e-4 l -3.04819,0.549944 c 0,0 -2.49586,0.551333 -2.49313,0.529533 l 0.003,-0.02175 -1.19352,-0.525738 c 0.24716,-0.702983 0.49437,-1.412209 0.74016,-2.112706 0.0324,-0.258821 -0.15112,-0.494911 -0.40993,-0.527345 z m 1.77619,1.021625 c -0.51166,-0.06398 -0.9783,0.298927 -1.0423,0.810575 -0.064,0.511654 0.29895,0.978289 0.81058,1.042297 0.51165,0.06398 0.97829,-0.298928 1.04229,-0.810577 0.064,-0.511653 -0.29895,-0.978287 -0.81057,-1.042295 z"
       inkscape:export-filename="ataque.svg"
       inkscape:export-xdpi="96"
       inkscape:export-ydpi="96"
       sodipodi:nodetypes="cccscscscccccccccsccscccccsssss" /><path
       d="m 131.15784,68.489781 c -0.39352,3e-6 -0.71252,0.287381 -0.71253,0.641882 1e-5,0.354501 0.31901,0.641878 0.71253,0.641881 0.39351,-7e-6 0.71251,-0.287383 0.71252,-0.641881 0,-0.354498 -0.31901,-0.641875 -0.71252,-0.641882 z"
       style="fill:#1a1a1a;stroke-width:1.25932"
       id="path1-5" /><path
       style="fill:none;stroke:#000000;stroke-width:0.15;stroke-dasharray:none;stroke-opacity:1"
       d="m 126.04433,69.56131 c 0,0 0.6043,-2.355292 2.96947,-1.071531"
       id="path13" /><path
       style="fill:none;stroke:#000000;stroke-width:0.15;stroke-dasharray:none;stroke-opacity:1"
       d="m 126.66793,70.335367 c 0,0 0.6043,-2.355292 2.96947,-1.071531"
       id="path14" /></g></svg>
