<?xml version="1.0" encoding="UTF-8" standalone="no"?>
<!-- Created with Inkscape (http://www.inkscape.org/) -->

<svg
   version="1.1"
   id="svg1"
   width="723.52002"
   height="723.52002"
   viewBox="0 0 723.52002 723.52002"
   sodipodi:docname="fondo1.svg"
   inkscape:version="1.3.2 (091e20e, 2023-11-25, custom)"
   xmlns:inkscape="http://www.inkscape.org/namespaces/inkscape"
   xmlns:sodipodi="http://sodipodi.sourceforge.net/DTD/sodipodi-0.dtd"
   xmlns="http://www.w3.org/2000/svg"
   xmlns:svg="http://www.w3.org/2000/svg">
  <defs
     id="defs1">
    <rect
       x="-142.60147"
       y="-175.01089"
       width="496.32718"
       height="179.64081"
       id="rect47" />
  </defs>
  <sodipodi:namedview
     id="namedview1"
     pagecolor="#ffffff"
     bordercolor="#000000"
     borderopacity="0.25"
     inkscape:showpageshadow="2"
     inkscape:pageopacity="0.0"
     inkscape:pagecheckerboard="0"
     inkscape:deskcolor="#d1d1d1"
     showgrid="false"
     showguides="false"
     inkscape:zoom="1.0799328"
     inkscape:cx="173.15892"
     inkscape:cy="322.70527"
     inkscape:window-width="2160"
     inkscape:window-height="1361"
     inkscape:window-x="-9"
     inkscape:window-y="-9"
     inkscape:window-maximized="1"
     inkscape:current-layer="layer1" />
  <g
     inkscape:groupmode="layer"
     id="layer3"
     inkscape:label="Image 2">
    <rect
       style="fill:#001b30;fill-opacity:1"
       id="rect48"
       width="725.97107"
       height="723.19318"
       x="0"
       y="1.8519664" />
  </g>
  <g
     inkscape:groupmode="layer"
     id="layer1"
     inkscape:label="Image 1"
     style="display:inline;opacity:1;fill:#105589;fill-opacity:1">
    <path
       id="path79"
       style="opacity:1;fill:#e9afc6;fill-opacity:0.48042706;stroke-width:0.231496"
       d="m 268.97144,302.90914 c -2.30655,-0.26279 -6.54779,-1.22121 -9.90419,-2.23812 -27.03491,-8.19087 -45.94065,-32.09576 -47.93467,-60.60978 -0.29576,-4.2293 -0.12135,-11.17562 0.36328,-14.4685 0.41023,-2.78731 0.96699,-5.3291 1.24191,-5.66963 0.10368,-0.12843 0.42026,-1.0669 0.7035,-2.08548 2.44587,-8.79583 7.09536,-17.90016 12.59071,-24.65431 3.38469,-4.16001 9.26567,-9.68468 13.63339,-12.8074 14.09579,-10.0778 32.00554,-14.29182 48.89425,-11.5044 10.82467,1.78657 21.64412,6.56621 30.09447,13.29464 3.6811,2.931 9.10417,8.35481 12.05724,12.05889 7.02717,8.81426 12.34785,21.35599 13.55291,31.94643 0.37643,3.30827 0.38129,15.82305 0.008,19.32991 -0.64901,6.08893 -3.15508,13.96949 -6.63914,20.8774 -3.60336,7.14442 -7.54367,12.50186 -13.3348,18.13063 -6.51314,6.33054 -13.03595,10.55753 -22.07992,14.3085 -3.90982,1.62159 -10.38179,3.41178 -14.0055,3.87401 -2.5081,0.31993 -16.91218,0.48254 -19.24094,0.21721 z m 15.18976,-8.46708 c 10.63724,-1.27823 19.86362,-4.97796 28.35825,-11.37151 17.46481,-13.14501 26.22606,-34.86106 22.79215,-56.4937 -2.71618,-17.11113 -12.97149,-32.17381 -28.20012,-41.41944 -6.619,-4.01854 -14.32278,-6.609 -23.06603,-7.75612 -3.46942,-0.4552 -12.54885,-0.38876 -15.62597,0.11433 -13.47731,2.20349 -24.83642,8.01908 -33.98743,17.40077 -7.49245,7.68132 -12.97563,17.85193 -15.30521,28.38923 -0.83123,3.75989 -1.37896,10.61535 -0.82057,10.27024 0.13043,-0.0806 0.53177,-0.0819 0.89186,-0.003 l 0.65471,0.1438 0.13891,4.2139 c 0.15563,4.7213 0.56916,7.80709 1.57235,11.7331 2.56993,10.05741 7.607,18.9787 14.78397,26.18423 6.52202,6.54798 13.41879,10.86739 22.18705,13.89563 5.62061,1.94115 10.29746,2.73969 17.06073,2.913 4.03361,0.10337 5.69479,0.0499 7.98661,-0.25679 5.49856,-0.73595 9.60956,-1.7637 13.83773,-3.45941 0.79898,-0.32043 1.4761,-0.57204 1.50472,-0.55912 0.0707,0.0319 6.87413,-3.37832 8.03864,-4.02944 0.19098,-0.10679 0.60767,-0.32288 0.92598,-0.48021 0.62085,-0.30687 0.67963,-0.34656 1.73622,-1.17242 0.38197,-0.29856 0.87679,-0.60938 1.09961,-0.69071 0.22281,-0.0813 0.40511,-0.25533 0.40511,-0.38665 0,-0.13132 0.15109,-0.23876 0.33574,-0.23876 0.18466,0 0.41905,-0.13083 0.52087,-0.29074 0.10182,-0.1599 0.60182,-0.59689 1.11111,-0.97109 0.50929,-0.3742 1.00929,-0.81632 1.11111,-0.98249 0.10182,-0.16617 0.29313,-0.30213 0.42514,-0.30213 0.26061,0 5.75587,-5.42 5.75587,-5.67703 0,-0.0862 0.36461,-0.52128 0.81023,-0.9669 0.44563,-0.44563 0.81072,-0.87795 0.81131,-0.96071 5.9e-4,-0.0828 0.28725,-0.46299 0.63703,-0.84496 0.77187,-0.84292 1.90836,-2.56325 1.90836,-2.88874 0,-0.13005 0.10675,-0.23646 0.23722,-0.23646 0.13047,0 0.33624,-0.26043 0.45726,-0.57874 0.12102,-0.3183 0.32679,-0.57874 0.45726,-0.57874 0.13048,0 0.23723,-0.1435 0.23723,-0.3189 0,-0.17539 0.15093,-0.44416 0.3354,-0.59725 0.18447,-0.1531 0.46,-0.66068 0.61229,-1.12795 0.15229,-0.46728 0.36477,-0.9071 0.47219,-0.97737 0.32375,-0.21181 1.98638,-3.55808 2.1595,-4.34628 0.0887,-0.40403 0.25252,-0.7346 0.36395,-0.7346 0.11144,0 0.27102,-0.36461 0.35462,-0.81024 0.0836,-0.44563 0.23711,-0.81023 0.34113,-0.81023 0.10402,0 0.31735,-0.57296 0.47406,-1.27323 0.15672,-0.70028 0.3583,-1.27323 0.44797,-1.27323 0.0897,0 0.29702,-0.65108 0.4608,-1.44685 0.16378,-0.79577 0.37967,-1.55362 0.47974,-1.68413 0.10008,-0.13051 0.25417,-0.78159 0.34242,-1.44685 0.0883,-0.66526 0.23876,-1.20957 0.33446,-1.20957 0.0957,0 0.30633,-1.22403 0.46806,-2.72007 0.16173,-1.49604 0.37326,-2.82425 0.47007,-2.95158 0.24506,-0.32232 0.54556,-7.97637 0.35337,-9.00084 -0.0864,-0.46075 -0.29375,-0.83773 -0.4607,-0.83773 -0.21629,0 -0.34882,-0.59985 -0.46107,-2.08688 -0.0866,-1.14778 -0.21691,-2.2416 -0.28948,-2.4307 -0.0846,-0.22035 0.008,-0.34383 0.25846,-0.34383 0.30182,0 0.36209,-0.14445 0.2656,-0.63662 -0.0686,-0.35014 -0.19327,-1.23698 -0.27694,-1.97077 -0.0837,-0.73379 -0.23685,-1.38652 -0.34038,-1.4505 -0.10353,-0.064 -0.25962,-0.68765 -0.34686,-1.38592 -0.0872,-0.69826 -0.24441,-1.26957 -0.34926,-1.26957 -0.10486,0 -0.26109,-0.49483 -0.34719,-1.09961 -0.0861,-0.60478 -0.29254,-1.41213 -0.45876,-1.79409 -0.16623,-0.38197 -0.37419,-0.95492 -0.46214,-1.27323 -0.18899,-0.68403 -0.63974,-1.76225 -1.40465,-3.36001 -0.30564,-0.63845 -0.55572,-1.34161 -0.55572,-1.5626 0,-0.22099 -0.0959,-0.4018 -0.2131,-0.4018 -0.1172,0 -0.28174,-0.31252 -0.36564,-0.69448 -0.0839,-0.38197 -0.22898,-0.69449 -0.32243,-0.69449 -0.0934,0 -0.31295,-0.36461 -0.4878,-0.81024 -0.17485,-0.44563 -0.40264,-0.81023 -0.5062,-0.81023 -0.10356,0 -0.18829,-0.16602 -0.18829,-0.36892 0,-0.2029 -0.20856,-0.42345 -0.46346,-0.49011 -0.59716,-0.15616 -3.50672,-4.56844 -3.32494,-5.04217 0.0737,-0.19205 0.0187,-0.34919 -0.12226,-0.34919 -0.14095,0 -0.25627,-0.15728 -0.25627,-0.34951 0,-0.19223 -0.20834,-0.5279 -0.46299,-0.74594 -0.25464,-0.21803 -0.46299,-0.50421 -0.46299,-0.63595 0,-0.13174 -0.36461,-0.57415 -0.81024,-0.98313 -0.44562,-0.40898 -0.81023,-0.82333 -0.81023,-0.92076 0,-0.23637 -5.1496,-5.39305 -5.38566,-5.39305 -0.1015,0 -0.51917,-0.36461 -0.92815,-0.81024 -0.40899,-0.44563 -0.85135,-0.81023 -0.98303,-0.81023 -0.13168,0 -0.49701,-0.28648 -0.81184,-0.63662 -0.31483,-0.35013 -0.87936,-0.79287 -1.25452,-0.98385 -0.37515,-0.19099 -0.91311,-0.55924 -1.19546,-0.81835 -0.28235,-0.2591 -0.80878,-0.62354 -1.16986,-0.80987 -0.36108,-0.18632 -0.7086,-0.39601 -0.77226,-0.46599 -0.0637,-0.07 -0.63661,-0.42573 -1.27323,-0.79057 -0.63661,-0.36483 -1.20956,-0.7358 -1.27322,-0.82437 -0.0637,-0.0886 -0.5064,-0.30082 -0.98386,-0.47166 -0.47746,-0.17084 -0.86811,-0.38559 -0.86811,-0.47722 0,-0.0916 -0.30532,-0.23366 -0.67849,-0.31562 -0.37317,-0.082 -0.79706,-0.29189 -0.94198,-0.46651 -0.14492,-0.17461 -0.55864,-0.38231 -0.91937,-0.46154 -0.36073,-0.0792 -1.05269,-0.34636 -1.53768,-0.59362 -0.48498,-0.24726 -1.06811,-0.44956 -1.29583,-0.44956 -0.22773,0 -0.41405,-0.095 -0.41405,-0.21115 0,-0.11613 -0.41614,-0.28145 -0.92477,-0.36739 -0.50862,-0.0859 -0.97918,-0.24427 -1.04568,-0.35187 -0.0665,-0.1076 -0.71813,-0.32648 -1.44806,-0.48641 -0.72993,-0.15993 -1.38349,-0.37228 -1.45235,-0.47189 -0.0689,-0.0996 -0.95433,-0.28224 -1.96772,-0.40582 -1.01338,-0.12358 -2.98842,-0.44739 -4.38897,-0.71958 -2.09711,-0.40756 -3.68244,-0.51447 -8.98412,-0.6059 -3.98633,-0.0687 -6.89526,-0.0196 -7.63937,0.12905 -0.66093,0.13204 -2.39968,0.46313 -3.86389,0.73576 -18.30653,3.40866 -34.16167,16.21206 -41.62591,33.61392 -1.90216,4.43462 -3.60098,10.79863 -4.11203,15.40425 l -0.16296,1.46851 -0.80357,-0.80358 -0.80358,-0.80357 0.27578,-1.70667 c 1.65093,-10.21668 5.44386,-19.14136 11.54112,-27.15592 3.75092,-4.93042 10.2616,-10.81287 15.7825,-14.25961 4.27316,-2.66777 10.65563,-5.41825 15.60709,-6.72578 16.33504,-4.31359 33.49169,-1.56054 47.45032,7.61412 14.89333,9.78902 24.50955,25.66583 26.31379,43.44526 0.42489,4.18704 0.16997,11.20972 -0.55901,15.39966 -1.68492,9.68442 -5.5794,18.47786 -11.68797,26.39053 -1.81002,2.34458 -7.13722,7.73513 -9.41167,9.52358 -9.47057,7.44689 -19.67319,11.5624 -31.55218,12.72745 -3.78111,0.37083 -10.95922,0.13423 -14.6153,-0.48175 -6.12704,-1.03228 -11.10463,-2.63341 -16.56791,-5.32934 -6.16612,-3.04276 -10.95072,-6.47139 -15.74383,-11.28194 -9.39927,-9.43351 -14.9766,-20.89388 -16.77446,-34.46846 -0.4492,-3.39163 -0.63017,-2.83324 -0.23358,0.72071 1.4783,13.24738 8.81276,27.20144 19.06423,36.27034 13.19892,11.67636 29.3614,16.73256 46.79155,14.63805 z M 270.91078,179.40677 c 0,0 -22.26216,8.34831 -21.77108,9.98523 0.49108,1.63693 1.47323,6.05662 1.47323,6.05662 0,0 19.47938,-14.896 45.83385,-15.38708 26.35446,-0.49107 -25.536,-0.65477 -25.536,-0.65477 z m 40.37047,22.18112 c -26.55361,0.10967 -49.86523,16.77734 -49.86523,16.77734 0,0 -2.59358,3.69164 -4.92579,7.4668 l 3.01172,3.93555 c 1.54077,-1.32767 3.28621,-2.89151 5.51563,-5.01758 24.71751,-23.57167 61.05664,-17.35156 61.05664,-17.35156 0,0 22.83435,0.363 -3.27344,-4.74805 -3.86722,-0.75707 -7.72616,-1.07817 -11.51953,-1.0625 z m -83.49609,-6.53906 c -1.15196,-0.84948 -3.19922,25.25 -3.19922,25.25 0,0 3.48784,38.07668 45.98437,60.26367 2.25479,1.1772 4.16574,2.15033 5.98047,3.06445 l 3.07617,-3.60937 c -2.97909,-2.14167 -5.4082,-3.80078 -5.4082,-3.80078 0,0 -45.66797,-22.78782 -45.66797,-64.61328 0,-11.76342 -0.31486,-16.22229 -0.76562,-16.55469 z m 90.86132,36.04687 -5.84375,1.75977 c 0.0399,1.47858 0.0866,3.00389 0.17774,4.82617 1.80062,36.01227 -17.84375,52.38086 -17.84375,52.38086 0,0 -2.12821,8.02041 11.13086,-5.40234 13.25905,-13.42276 13.58789,-49.27149 13.58789,-49.27149 0,0 -0.50171,-1.91816 -1.20899,-4.29297 z m 198.74683,72.8584 c 0,0 -115.05346,-95.6078 -196.54001,-124.0818 -81.48655,-28.47399 11.5748,13.19527 11.5748,13.19527 0,0 109.67233,50.52734 173.62191,113.20149 45.7228,44.81089 11.3433,-2.31496 11.3433,-2.31496 z M 453.96344,103.71016 c 0,0 -207.42032,66.67081 -197.466,70.37475 9.95433,3.70393 204.87386,-71.53223 215.52268,-67.36531 10.64881,4.16693 -18.05668,-3.00944 -18.05668,-3.00944 z M 308.23678,92.598355 c 0,0 -70.722,69.564515 -81.02357,97.228275 -10.30156,27.66376 18.28818,-16.78345 18.28818,-16.78345 0,0 56.71649,-73.268452 78.36136,-84.033011 21.64486,-10.764559 -15.62597,3.588186 -15.62597,3.588186 z M 212.6372,219.71918 c -0.0591,-0.21092 -0.0187,-0.40027 0.44979,-2.11071 2.8218,-10.30213 7.98913,-19.75959 15.12901,-27.68975 0.87493,-0.97177 2.9464,-3.12533 3.00619,-3.12533 0.0228,0 -0.0686,0.12002 -0.20303,0.26672 -0.39326,0.42918 -0.47499,0.70703 -0.15188,0.5164 0.0815,-0.0481 0.15912,-0.0874 0.1725,-0.0874 0.0134,0 -0.37901,0.40979 -0.87196,0.91064 -5.15784,5.24045 -8.70346,10.20034 -11.98684,16.76813 -2.2109,4.42251 -3.97544,9.12014 -5.15718,13.72969 -0.12694,0.49517 -0.25412,0.92455 -0.28261,0.95416 -0.0423,0.0439 -0.0614,0.0195 -0.10399,-0.13252 z m 19.43758,-33.22943 c 0,-0.0134 0.0552,-0.10072 0.12277,-0.19393 0.11908,-0.16439 0.161,-0.32089 0.0859,-0.32089 -0.0202,0 -0.13331,0.0649 -0.25127,0.14432 -0.11795,0.0794 -0.22156,0.13721 -0.23025,0.12852 -0.031,-0.031 1.91003,-1.78794 2.95326,-2.67321 10.57055,-8.97001 23.85517,-14.49292 37.62877,-15.6437 1.50016,-0.12533 2.15019,-0.16052 3.95931,-0.21433 3.4046,-0.10126 7.18252,0.10979 10.773,0.60183 1.23985,0.1699 1.26861,0.1763 1.26861,0.28204 v 0.0912 l -0.48084,-0.0765 c -1.40464,-0.22343 -3.64995,-0.46711 -5.37116,-0.58293 -11.99679,-0.80725 -24.64511,1.84911 -35.15292,7.38272 -5.29996,2.79105 -10.3372,6.39832 -14.70162,10.5281 -0.33199,0.31414 -0.60361,0.56017 -0.60361,0.54672 z m -0.81039,0.32743 c 0.43192,-0.44563 0.88949,-0.81023 1.01681,-0.81023 0.12732,0 -0.12189,0.3646 -0.55382,0.81023 -0.43192,0.44563 -0.88948,0.81024 -1.0168,0.81024 -0.12733,0 0.12189,-0.36461 0.55381,-0.81024 z m 17.70045,-2.84452 c -0.80568,0.43152 -1.61479,0.85738 -2.39843,1.32617 -0.68409,0.40923 -1.34786,0.8418 -2.01172,1.27539 4.2e-4,0.15082 -6.4e-4,0.28391 0,0.4375 1.42928,-0.94364 2.9065,-1.8274 4.47656,-2.66211 -0.0174,-0.10651 -0.0481,-0.26611 -0.0664,-0.37695 z m 0.36914,2.27734 c -1.64263,0.91165 -3.23002,1.92101 -4.77734,2.99023 0.003,0.30973 -0.004,0.48709 0,0.80665 0.49108,39.77716 38.95898,60.40234 38.95898,60.40234 -0.65475,26.3544 -24.39062,39.44922 -24.39062,39.44922 l -0.041,0.0371 c 2.72043,0.89208 5.54083,1.57538 8.43555,2.08203 5.1701,-4.7733 9.9564,-9.5666 13.90039,-14.20899 -0.0577,-0.0523 0.0302,-0.16432 0.29492,-0.34961 0.0103,-0.007 0.0209,-0.0177 0.0312,-0.0254 0.28104,-0.33385 0.56342,-0.66785 0.83594,-1 3.28728,-5.11311 8.33512,-25.00019 8.71289,-26.5 -0.96512,-1.57638 -2.3829,-2.99889 -4.3418,-4.23047 -36.71918,-23.08581 -37.48632,-58.60351 -37.48632,-58.60351 0,0 -0.10051,-0.63587 -0.13282,-0.84961 z m 8.26172,105.0332 -0.39453,0.35742 c 2.44864,0.86378 5.37931,1.62484 8.35547,2.20508 0.10998,-0.0994 0.21067,-0.19943 0.32031,-0.29882 -2.80229,-0.55515 -5.574,-1.30903 -8.28125,-2.26368 z m -6.89062,6.24024 3.63672,1.53906 c -1.233,-0.48146 -2.44575,-0.99635 -3.63672,-1.53906 z m 18.26483,5.3717 c -3.98544,-0.42267 -10.43065,-2.18793 -15.68166,-4.29499 -24.06633,-9.65706 -40.40704,-32.42491 -42.15941,-58.74158 -0.24822,-3.72762 -0.12008,-10.71152 0.24688,-13.45559 0.34382,-2.57106 1.10773,-6.20284 1.33676,-6.3552 0.10473,-0.0697 0.4259,-1.00661 0.71372,-2.08207 2.26467,-8.4622 6.92496,-17.66615 12.43102,-24.5509 2.00618,-2.50851 7.44346,-7.97272 10.1811,-10.23151 9.80955,-8.09372 21.05942,-12.91555 34.23313,-14.67274 3.63324,-0.48462 11.61866,-0.5513 15.04723,-0.12565 12.37941,1.53689 23.89855,6.34007 33.51898,13.97654 2.99194,2.37494 8.20457,7.47819 10.65945,10.4358 5.33925,6.43263 9.24581,13.3865 11.84271,21.08063 2.19252,6.496 2.79483,9.66125 3.16549,16.635 0.32837,6.17803 -0.0126,14.65224 -0.73814,18.3452 -1.58266,8.05573 -5.26103,16.97318 -10.01681,24.28374 -7.63598,11.73798 -19.53459,21.21923 -32.80571,26.1408 -5.85422,2.17102 -10.37362,3.23104 -15.40757,3.61381 -3.69463,0.28094 -13.91354,0.28014 -16.56717,-0.001 z m 15.53854,-8.46069 c 9.24455,-1.17114 17.40988,-4.17074 24.84972,-9.12874 8.27053,-5.51157 14.27747,-11.90317 19.09216,-20.31476 9.55051,-16.68535 10.12978,-37.91299 1.50529,-55.16225 -2.96406,-5.92821 -6.50111,-10.82118 -11.29084,-15.61914 -10.96744,-10.98632 -24.20945,-16.64076 -40.17523,-17.15514 -2.66639,-0.0859 -5.37475,-0.0332 -7.17637,0.13974 -22.59443,2.16846 -41.77127,16.82911 -49.8392,38.10195 -1.18859,3.13398 -2.30158,7.13616 -2.79908,10.06514 -0.39669,2.33542 -0.73052,8.81546 -0.43218,8.38901 0.13288,-0.18996 0.46206,-0.24055 0.94135,-0.14469 l 0.73702,0.1474 v 2.92406 c 0,12.35657 4.5881,25.07442 12.66239,35.09914 3.5838,4.4495 8.86895,9.12711 13.9157,12.31603 2.52737,1.59699 7.78003,4.16545 10.79714,5.27963 2.77397,1.02438 7.67373,2.28288 10.87049,2.79206 3.64143,0.58001 11.86236,0.70701 15.41565,0.23815 2.92678,-0.38619 7.04021,-1.16075 8.10236,-1.52567 0.31831,-0.10936 1.36004,-0.43162 2.31496,-0.71614 0.95492,-0.28452 2.46543,-0.81797 3.35669,-1.18544 0.89126,-0.36747 1.64741,-0.66139 1.68035,-0.65315 0.15956,0.0399 6.76784,-3.25703 7.92673,-3.95474 0.19098,-0.11498 0.60767,-0.33778 0.92598,-0.49511 0.62085,-0.30687 0.67963,-0.34656 1.73622,-1.17242 0.38197,-0.29856 0.87679,-0.60938 1.09961,-0.69071 0.22281,-0.0813 0.40511,-0.25533 0.40511,-0.38665 0,-0.13132 0.15109,-0.23876 0.33574,-0.23876 0.18466,0 0.41905,-0.13083 0.52087,-0.29074 0.10182,-0.1599 0.60182,-0.59689 1.11111,-0.97109 0.50929,-0.3742 1.00929,-0.81632 1.11111,-0.98249 0.10182,-0.16617 0.29313,-0.30213 0.42514,-0.30213 0.26061,0 5.75587,-5.42 5.75587,-5.67703 0,-0.0862 0.36461,-0.52128 0.81023,-0.9669 0.44563,-0.44563 0.81072,-0.87795 0.81131,-0.96071 5.9e-4,-0.0828 0.28725,-0.46299 0.63703,-0.84496 0.77187,-0.84292 1.90836,-2.56325 1.90836,-2.88874 0,-0.13005 0.10675,-0.23646 0.23722,-0.23646 0.13047,0 0.33624,-0.26043 0.45726,-0.57874 0.12102,-0.3183 0.32679,-0.57874 0.45726,-0.57874 0.13048,0 0.23723,-0.1435 0.23723,-0.3189 0,-0.17539 0.15093,-0.44416 0.3354,-0.59725 0.18447,-0.1531 0.46,-0.66068 0.61229,-1.12795 0.15229,-0.46728 0.36477,-0.9071 0.47219,-0.97737 0.32375,-0.21181 1.98638,-3.55808 2.1595,-4.34628 0.0887,-0.40403 0.25252,-0.7346 0.36395,-0.7346 0.11144,0 0.27102,-0.36461 0.35462,-0.81024 0.0836,-0.44563 0.23711,-0.81023 0.34113,-0.81023 0.10402,0 0.31735,-0.57296 0.47406,-1.27323 0.15672,-0.70028 0.3583,-1.27323 0.44797,-1.27323 0.0897,0 0.29702,-0.65108 0.4608,-1.44685 0.16378,-0.79577 0.37967,-1.55362 0.47974,-1.68413 0.10008,-0.13051 0.25417,-0.78159 0.34242,-1.44685 0.0883,-0.66526 0.23876,-1.20957 0.33446,-1.20957 0.0957,0 0.30633,-1.22403 0.46806,-2.72007 0.16173,-1.49604 0.37326,-2.82425 0.47007,-2.95158 0.24506,-0.32232 0.54556,-7.97637 0.35337,-9.00084 -0.0864,-0.46075 -0.29375,-0.83773 -0.4607,-0.83773 -0.21629,0 -0.34882,-0.59985 -0.46107,-2.08688 -0.0866,-1.14778 -0.21691,-2.2416 -0.28948,-2.4307 -0.0846,-0.22035 0.008,-0.34383 0.25846,-0.34383 0.30182,0 0.36209,-0.14445 0.2656,-0.63662 -0.0686,-0.35014 -0.19327,-1.23698 -0.27694,-1.97077 -0.0837,-0.73379 -0.23685,-1.38652 -0.34038,-1.4505 -0.10353,-0.064 -0.25962,-0.68765 -0.34686,-1.38592 -0.0872,-0.69826 -0.24441,-1.26957 -0.34926,-1.26957 -0.10486,0 -0.26109,-0.49483 -0.34719,-1.09961 -0.0861,-0.60478 -0.29254,-1.41213 -0.45876,-1.79409 -0.16623,-0.38197 -0.37419,-0.95492 -0.46214,-1.27323 -0.18899,-0.68403 -0.63974,-1.76225 -1.40465,-3.36001 -0.30564,-0.63845 -0.55572,-1.34161 -0.55572,-1.5626 0,-0.22099 -0.0959,-0.4018 -0.2131,-0.4018 -0.1172,0 -0.28174,-0.31252 -0.36564,-0.69448 -0.0839,-0.38197 -0.22898,-0.69449 -0.32243,-0.69449 -0.0934,0 -0.31295,-0.36461 -0.4878,-0.81024 -0.17485,-0.44563 -0.40264,-0.81023 -0.5062,-0.81023 -0.10356,0 -0.18829,-0.16602 -0.18829,-0.36892 0,-0.2029 -0.20856,-0.42345 -0.46346,-0.49011 -0.59716,-0.15616 -3.50672,-4.56844 -3.32494,-5.04217 0.0737,-0.19205 0.0187,-0.34919 -0.12226,-0.34919 -0.14095,0 -0.25627,-0.15728 -0.25627,-0.34951 0,-0.19223 -0.20834,-0.5279 -0.46299,-0.74594 -0.25464,-0.21803 -0.46299,-0.50421 -0.46299,-0.63595 0,-0.13174 -0.36461,-0.57415 -0.81024,-0.98313 -0.44562,-0.40898 -0.81023,-0.82333 -0.81023,-0.92076 0,-0.23637 -5.1496,-5.39305 -5.38566,-5.39305 -0.1015,0 -0.51917,-0.36461 -0.92815,-0.81024 -0.40899,-0.44563 -0.85135,-0.81023 -0.98303,-0.81023 -0.13168,0 -0.49701,-0.28648 -0.81184,-0.63662 -0.31483,-0.35013 -0.87936,-0.79287 -1.25452,-0.98385 -0.37515,-0.19099 -0.91311,-0.55924 -1.19546,-0.81835 -0.28235,-0.2591 -0.80878,-0.62354 -1.16986,-0.80987 -0.36108,-0.18632 -0.7086,-0.39601 -0.77226,-0.46599 -0.0637,-0.07 -0.63661,-0.42573 -1.27323,-0.79057 -0.63661,-0.36483 -1.20956,-0.7358 -1.27322,-0.82437 -0.0637,-0.0886 -0.5064,-0.30082 -0.98386,-0.47166 -0.47746,-0.17084 -0.86811,-0.38559 -0.86811,-0.47722 0,-0.0916 -0.30532,-0.23366 -0.67849,-0.31562 -0.37317,-0.082 -0.79706,-0.29189 -0.94198,-0.46651 -0.14492,-0.17461 -0.55864,-0.38231 -0.91937,-0.46154 -0.36073,-0.0792 -1.05269,-0.34636 -1.53768,-0.59362 -0.48498,-0.24726 -1.06811,-0.44956 -1.29583,-0.44956 -0.22773,0 -0.41405,-0.0926 -0.41405,-0.20573 0,-0.11316 -0.3602,-0.27331 -0.80046,-0.3559 -0.44025,-0.0826 -1.08856,-0.29964 -1.44069,-0.48233 -0.35213,-0.18269 -1.08574,-0.39897 -1.63025,-0.48062 -0.54451,-0.0816 -0.99001,-0.23331 -0.99001,-0.33701 0,-0.10371 -0.599,-0.25352 -1.3311,-0.33292 -0.73211,-0.0794 -2.42492,-0.34655 -3.76181,-0.59366 -4.11515,-0.76064 -6.41846,-0.95235 -11.22755,-0.93449 -5.29395,0.0197 -5.50602,0.0356 -9.25984,0.69605 -12.91089,2.27154 -23.76205,8.2297 -32.70521,17.95778 -7.51804,8.17789 -12.56856,18.88349 -14.12138,29.93317 l -0.40021,2.84783 -0.78118,-0.80597 -0.78118,-0.80597 0.51991,-2.96785 c 1.30468,-7.44755 3.90892,-14.37681 7.8147,-20.79303 4.42224,-7.26464 11.49782,-14.3959 19.04118,-19.19103 2.31637,-1.47246 8.13244,-4.30925 10.96289,-5.34714 6.74751,-2.47424 15.29061,-3.81427 22.25677,-3.49109 15.27326,0.70857 28.9066,6.67521 39.47487,17.27621 8.86255,8.88999 14.58451,20.22927 16.58209,32.86091 0.59419,3.75739 0.59999,13.11642 0.0105,16.8992 -1.94402,12.47398 -7.24665,23.24111 -15.87565,32.23588 -16.53638,17.23735 -41.83771,22.68311 -64.1983,13.81779 -10.64469,-4.22031 -20.20923,-11.9453 -26.78182,-21.63085 -5.98136,-8.81432 -9.26239,-18.44524 -10.05531,-29.51573 -0.0473,-0.66109 -0.0894,-0.42514 -0.11506,0.64574 -0.09,3.75415 0.87763,9.22449 2.51577,14.22286 7.45729,22.75395 28.03261,38.97258 51.61382,40.68493 3.30309,0.23986 8.75208,0.0755 12.26929,-0.37008 z m -66.50102,-59.17064 c -0.0489,-0.54448 -0.0896,-0.15659 -0.0904,0.862 -8.4e-4,1.01858 0.0392,1.46407 0.0889,0.98997 0.0498,-0.47409 0.0504,-1.30748 0.002,-1.85197 z m 0.81406,-1.96358 c -0.46773,-0.0901 -0.52055,-0.23447 -0.51771,-1.41532 0.002,-0.72326 0.0678,-1.5563 0.14677,-1.85122 l 0.1436,-0.53622 0.72134,0.69862 c 0.66418,0.64324 0.71507,0.80041 0.64205,1.98306 -0.0492,0.79759 -0.18086,1.2725 -0.34724,1.25293 -0.14737,-0.0173 -0.50234,-0.0767 -0.78881,-0.13185 z m -122.774615,70.27399 -0.332031,1.58984 c -2.90579,13.59484 -4.806819,27.41027 -5.580078,41.29102 0.01474,10.54262 -0.03002,21.0874 0.02148,31.6289 1.290546,23.00119 5.584107,45.81618 12.626954,67.74805 V 319.00195 h 42.59571 v 204.64258 h -2.77149 c 4.22501,5.75472 8.59021,11.40603 13.25,16.81445 h 413.36719 c 14.16677,-16.33453 26.34139,-34.38162 36.25586,-53.5957 h -18.47656 v -21.29687 h 18.75195 v 20.76757 c 1.99553,-3.88824 3.93158,-7.80643 5.73633,-11.7871 2.51762,-5.50611 4.79288,-11.11857 6.98828,-16.75977 h -4.37695 v -17.29883 h 10.2207 c 1.19706,-4.0882 2.22894,-8.2211 3.29101,-12.3457 h -13.6875 v -17.29883 h 17.57032 c 0.33822,-0.79911 -0.86244,-0.38623 -1.32227,-0.55664 -0.37561,-0.16851 -1.74399,0.21482 -1.21289,-0.45703 0.48817,-0.93011 0.97668,-1.8609 1.46484,-2.79102 0.38412,1.10091 0.76823,2.20183 1.15235,3.30274 0.87657,-5.50583 1.68578,-11.02227 2.4082,-16.55078 0.59626,-4.9919 1.16694,-9.99623 1.38477,-15.01954 -0.0157,-8.72929 0.0313,-17.461 -0.0234,-26.18945 -0.63048,-16.48642 -2.80932,-32.90431 -6.39063,-49.00781 z m 134.291015,24.22461 h 18.75195 v 21.29687 h -18.75195 z m 25.00195,0 h 18.75196 v 21.29687 h -18.75196 z m 25.23243,0 h 18.05664 v 21.52929 h -18.05664 z m -76.85547,0.46289 h 19.9082 v 21.0664 h -19.9082 z m 101.39453,0 h 18.51953 v 21.0664 h -18.51953 z m 24.76953,0.23047 h 17.59375 v 20.60351 h -17.59375 z m 79.42969,0.0976 h 18.75195 v 21.29883 h -18.75195 z m 25.00195,0 h 18.75 v 21.29883 h -18.75 z m 25.23242,0 h 18.05664 v 21.5293 h -18.05664 z m 100.51758,0.22461 h 19.91016 v 21.06641 H 560.0625 Z m -27.7793,0.23243 h 21.5293 v 20.83398 h -21.5293 z m -149.59375,0.006 h 19.90821 v 21.06641 h -19.90821 z m 101.39453,0 h 18.51954 v 21.06641 h -18.51954 z m -129.17382,0.23243 h 21.52734 v 20.83398 h -21.52734 z m 153.94336,0 h 17.59375 v 20.60351 h -17.59375 z m 79.83203,1.0664 h 14.75195 v 17.29883 h -14.75195 z m 25.00195,0 h 14.75 v 17.29883 h -14.75 z m -435.75,0.14063 h 17.5293 v 16.83593 c -5.8431,0 -11.68627,1e-5 -17.5293,0 z m 406.65039,22.93554 h 22.75 v 25.29883 h -22.75 V 355.42773 Z M 230.24023,354.875 h 18.75196 v 21.29688 h -18.75196 z m 25.00196,0 h 18.75 v 21.29688 h -18.75 z m 25.23242,0 h 18.05664 v 21.5293 h -18.05664 z m -76.85547,0.46289 h 19.9082 v 21.06641 h -19.9082 z m 101.39453,0 h 18.51953 v 21.06641 h -18.51953 z m -129.17578,0.23047 h 21.5293 v 20.83594 h -21.5293 z m 153.94531,0 h 17.59375 v 20.60352 H 329.7832 Z m 79.42969,0.0977 h 18.75 v 21.29882 h -18.75 z m 25.00195,0 h 18.75 v 21.29882 h -18.75 z m 25.23243,0 h 18.05664 v 21.52929 h -18.05664 z m 100.51757,0.2246 h 19.90821 v 21.06641 h -19.90821 z m -27.77929,0.23243 h 21.52929 v 20.83398 h -21.52929 z m -149.59571,0.006 H 402.5 v 21.0664 h -19.91016 z m 101.39649,0 h 18.51953 v 21.0664 h -18.51953 z m -129.17578,0.23242 h 21.52929 v 20.83398 h -21.52929 z m 153.94531,0 h 17.59375 v 20.60351 h -17.59375 z m 104.83398,1.0664 h 14.75 v 17.29883 h -14.75 z m -382.91211,23.78711 h 18.75 v 21.29688 h -18.75 z m 25.00196,0 h 18.75 v 21.29688 h -18.75 z m 25.23242,0 h 18.05664 v 21.5293 h -18.05664 z m -76.85742,0.46289 h 19.91015 v 21.06641 h -19.91015 z m 101.39648,0 h 18.51953 v 21.06641 h -18.51953 z m 281.57422,0.0899 h 18.75 v 21.29883 h -18.75 z m -410.75,0.14062 h 21.5293 v 20.83594 h -21.5293 z m 153.94531,0 h 17.59375 v 20.60352 H 330.2207 Z m 79.42969,0.0977 h 18.75 v 21.29883 h -18.75 z m 25,0 h 18.75195 v 21.29883 h -18.75195 z m 25.23438,0 h 18.05664 v 21.5293 h -18.05664 z m 100.51757,0.22461 h 19.90821 v 21.06641 h -19.90821 z m -27.77929,0.23242 h 21.52929 v 20.83399 h -21.52929 z m -149.59571,0.006 h 19.90821 v 21.06641 h -19.90821 z m 101.39649,0 h 18.51953 v 21.06641 h -18.51953 z m -129.17578,0.23242 h 21.52929 v 20.83399 h -21.52929 z m 153.94531,0 h 17.59375 v 20.60352 h -17.59375 z m 104.83203,1.06641 h 14.75195 v 17.29883 h -14.75195 z m -383.44531,24.52344 h 18.75 v 21.29687 h -18.75 z m 25,0 h 18.75195 v 21.29687 h -18.75195 z m 25.23437,0 h 18.05664 v 21.52929 h -18.05664 z m -76.85742,0.46289 h 19.9082 v 21.0664 h -19.9082 z m 101.39453,0 h 18.52149 v 21.0664 h -18.52149 z m 281.57422,0.0898 h 18.75195 v 21.29883 h -18.75195 z m -410.74805,0.14063 h 21.5293 v 20.83593 h -21.5293 z m 153.94532,0 h 17.59375 v 20.60351 h -17.59375 z m 79.42773,0.0976 h 18.75195 v 21.29883 h -18.75195 z m 25.00195,0 h 18.75196 v 21.29883 h -18.75196 z m 25.23438,0 h 18.05664 v 21.5293 h -18.05664 z m 100.51758,0.22461 h 19.9082 v 21.06641 h -19.9082 z m -27.7793,0.23242 h 21.5293 v 20.83399 h -21.5293 z m -149.5957,0.006 h 19.9082 v 21.06641 h -19.9082 z m 101.39453,0 h 18.51953 v 21.06641 h -18.51953 z m -129.17383,0.23242 h 21.5293 v 20.83399 h -21.5293 z m 153.94531,0 h 17.59375 v 20.60352 H 509.0957 Z m -278.33984,28.15821 h 18.75 v 21.29687 h -18.75 z m 25,0 h 18.75195 v 21.29687 h -18.75195 z m 25.23437,0 h 18.05665 v 21.52929 h -18.05665 z m -76.85742,0.46289 h 19.90821 v 21.0664 h -19.90821 z m 101.39453,0 h 18.51954 v 21.0664 h -18.51954 z m 281.57422,0.0898 h 18.75196 v 21.29883 h -18.75196 z m -410.74804,0.14063 h 21.52929 v 20.83593 h -21.52929 z m 153.94531,0 h 17.59375 v 20.60351 h -17.59375 z m 79.42773,0.0976 h 18.75196 v 21.29883 h -18.75196 z m 25.00196,0 h 18.75195 v 21.29883 h -18.75195 z m 25.23437,0 h 18.05664 v 21.5293 h -18.05664 z m 100.51758,0.22656 h 19.9082 v 21.06446 h -19.9082 z m -27.7793,0.23047 h 21.5293 v 20.83399 h -21.5293 z m -149.5957,0.006 h 19.9082 v 21.06641 h -19.9082 z m 101.39453,0 h 18.51953 v 21.06641 H 484.5 Z m -129.17383,0.23243 h 21.5293 v 20.83398 h -21.5293 z m 153.94531,0 h 17.5918 v 20.60351 h -17.5918 z m -278.61523,25.58984 h 18.75195 v 21.29687 h -18.75195 z m 25.00195,0 h 18.75196 V 486.3091 H 255.6582 Z m 25.23242,0 h 18.05665 v 21.5293 h -18.05665 z m -76.85546,0.46289 h 19.9082 v 21.06641 h -19.9082 z m 101.39453,0 h 18.51953 v 21.06641 h -18.51953 z m -129.17383,0.23242 h 21.5293 v 20.83399 h -21.5293 z m 153.94336,0 h 17.59375 v 20.60156 h -17.59375 z m 79.42969,0.0957 h 18.75195 v 21.29883 h -18.75195 z m 25.00195,0 h 18.75195 v 21.29883 h -18.75195 z m 25.23242,0 h 18.05664 v 21.5293 h -18.05664 z m 100.51953,0.22657 h 19.90821 v 21.06445 h -19.90821 z m -27.78125,0.23047 h 21.5293 v 20.83398 h -21.5293 z m -149.59375,0.006 h 19.90821 v 21.06641 h -19.90821 z m 101.39453,0 h 18.51954 v 21.06641 h -18.51954 z m -129.17382,0.23243 h 21.52734 v 20.83398 h -21.52734 z m 153.94336,0 h 17.59374 v 20.60351 H 509.17188 Z M 230.43945,493.9707 h 18.75196 v 21.29688 h -18.75196 z m 25.00196,0 h 18.75 v 21.29688 h -18.75 z m 25.23242,0 h 18.05664 V 515.5 h -18.05664 z m -76.85742,0.46289 h 19.91015 V 515.5 h -19.91015 z m 101.39648,0 h 18.51953 V 515.5 h -18.51953 z m -129.17578,0.23047 h 21.5293 V 515.5 h -21.5293 z m 153.94531,0 h 17.59375 v 20.60352 h -17.59375 z m 79.42969,0.0977 h 18.75 v 21.29883 h -18.75 z m 25.00195,0 h 18.75 v 21.29883 h -18.75 z m 25.23242,0 h 18.05664 v 21.5293 h -18.05664 z m 100.51758,0.22461 h 19.90821 v 21.0664 h -19.90821 z m -27.77929,0.23242 h 21.52929 v 20.83398 h -21.52929 z m -149.59571,0.006 h 19.90821 v 21.06641 h -19.90821 z m 101.39649,0 h 18.51953 v 21.06641 h -18.51953 z m -129.17578,0.23242 h 21.52929 v 20.83399 h -21.52929 z m 153.94531,0 h 17.59375 v 20.60352 H 508.95508 Z M 361.75977,0 A 361.76001,361.76001 0 0 0 0,361.75977 361.76001,361.76001 0 0 0 361.75977,723.51953 361.76001,361.76001 0 0 0 723.51953,361.75977 361.76001,361.76001 0 0 0 361.75977,0 Z m -0.72461,13.095703 a 349.25,348.92261 0 0 1 349.25,348.921877 349.25,348.92261 0 0 1 -349.25,348.92383 A 349.25,348.92261 0 0 1 11.785156,362.01758 349.25,348.92261 0 0 1 361.03516,13.095703 Z M 332.94531,227.56836 c -4.36433,0.61677 -8.71279,1.6545 -12.91211,2.88867 l -0.92187,0.31445 0.006,0.0352 -6.95508,2.37305 -0.0156,-0.0312 -1.29492,0.4414 0.008,-0.0566 c -12.93879,4.90062 -22.60157,10.72852 -22.60157,10.72852 0,0 -2.77356,4.20259 -5.10937,8.31836 l 0.20312,-0.084 -1.24218,7.17383 c 1.79986,-1.18088 4.88027,-3.91754 9.83203,-8.98828 12.3456,-12.64227 28.46109,-17.04051 41.42968,-18.28906 z M 363.00421,80.774839 A 281.22333,280.56857 0 0 0 81.781062,361.34322 281.22333,280.56857 0 0 0 363.00421,641.91159 281.22333,280.56857 0 0 0 644.22735,361.34322 281.22333,280.56857 0 0 0 363.00421,80.774839 Z m -0.5633,10.15657 A 271.49836,270.61233 0 0 1 633.93928,361.54317 271.49836,270.61233 0 0 1 362.44091,632.15644 271.49836,270.61233 0 0 1 90.942553,361.54317 271.49836,270.61233 0 0 1 362.44091,90.931409 Z m -199.4038,78.490471 v 2.61914 h -8.18359 v 133.24609 h 13.25781 V 172.04102 h -0.49024 v -2.61914 z m 2.01953,2.17382 0.11524,11.80664 -7.75391,-0.11523 0.11523,-3.76172 z m -7.74805,27.94532 h 7.85743 v 15.22265 h -7.85743 z m 0.49024,31.42968 h 7.20312 v 14.89453 h -7.20312 z m 0,30.77344 h 7.03906 v 16.04102 h -7.03906 z m 0.16406,31.5918 h 7.5293 v 9.6582 h -7.5293 z" />
    <path
       style="fill:#e9afc6;fill-opacity:0.48042706;stroke-width:0.115748"
       d=""
       id="path24" />
    <path
       style="fill:#e9afc6;fill-opacity:0.14946619;stroke-width:0.115748"
       d="m 226.98172,197.89368 c 0,-0.29012 0.49141,-2.40346 0.61082,-2.6269 0.11686,-0.21865 0.13139,-0.21223 0.26196,0.11575 0.076,0.19098 0.17147,0.60935 0.2121,0.9297 0.0736,0.58024 0.0717,0.58464 -0.5055,1.15313 -0.31866,0.31387 -0.57938,0.50661 -0.57938,0.42832 z"
       id="path25" />
    <path
       style="fill:#e9afc6;fill-opacity:0.48042706;stroke-width:0.115748"
       d=""
       id="path26" />
    <path
       style="fill:#e9afc6;fill-opacity:0.48042706;stroke-width:0.115748"
       d=""
       id="path27" />
    <path
       style="fill:#e9afc6;fill-opacity:0.48042706;stroke-width:0.115748"
       d=""
       id="path28" />
    <path
       style="fill:#e9afc6;fill-opacity:0.14946619;stroke-width:0.115748"
       d="m 271.42893,302.97248 c -3.31684,-0.1254 -5.9443,-0.58747 -10.59094,-1.86255 -9.50723,-2.60885 -18.28849,-7.23489 -25.86966,-13.62835 -1.77662,-1.49827 -6.03807,-5.74314 -7.57466,-7.54518 -5.95531,-6.98408 -10.67262,-15.59051 -13.30916,-24.28168 -2.37128,-7.81676 -3.28311,-15.14907 -2.97146,-23.89444 0.071,-1.99159 0.182,-4.08986 0.24673,-4.66281 0.31342,-2.7742 0.99286,-6.14786 1.44328,-7.16633 0.15366,-0.34745 0.48762,-1.35128 0.74213,-2.23073 2.06254,-7.12696 5.21438,-13.93026 9.27988,-20.03077 2.24626,-3.37062 3.83984,-5.26814 7.7205,-9.193 1.55241,-1.5701 2.83102,-2.8983 2.84136,-2.95158 0.0103,-0.0533 0.048,-0.0871 0.0838,-0.0752 0.0358,0.0119 0.4264,-0.29426 0.86811,-0.6804 0.4417,-0.38614 1.42814,-1.22631 2.19207,-1.86704 0.76394,-0.64074 1.37648,-1.20545 1.36119,-1.25493 -0.0266,-0.0862 0.40349,-0.37361 0.57189,-0.38213 0.0446,-0.002 0.58692,-0.36871 1.20515,-0.81434 0.61823,-0.44563 1.24738,-0.87781 1.39811,-0.96041 0.15074,-0.0826 0.24341,-0.1998 0.20593,-0.26044 -0.0375,-0.0606 0.0189,-0.11025 0.1254,-0.11025 0.10644,0 0.79966,-0.38351 1.54049,-0.85226 5.5718,-3.52544 11.89843,-6.2643 18.3619,-7.94904 1.79954,-0.46906 5.65646,-1.26675 7.32106,-1.51415 0.52521,-0.078 0.95499,-0.17197 0.95508,-0.2087 9e-5,-0.0367 0.4248,-0.0767 0.94381,-0.0888 0.58972,-0.0138 0.97599,-0.0744 1.02989,-0.16155 0.0474,-0.0768 0.17441,-0.10571 0.28218,-0.0644 0.10776,0.0414 1.72775,0.0164 3.59998,-0.0554 6.95601,-0.26692 11.81044,0.20101 18.04593,1.7395 10.05722,2.48144 19.71785,7.48944 27.35278,14.17949 1.98296,1.73756 6.63008,6.38038 8.23606,8.22844 7.48948,8.61846 13.09182,20.66365 14.88553,32.00431 0.73638,4.6557 0.79416,17.35448 0.10171,22.35341 -1.32477,9.56383 -6.56127,21.6911 -13.01688,30.14598 -3.45859,4.52971 -8.69752,9.73122 -13.24804,13.15342 -6.22137,4.67876 -13.92517,8.52385 -21.62374,10.79277 -4.07858,1.20203 -6.83942,1.73837 -10.15316,1.97244 -2.89719,0.20464 -11.1912,0.30534 -14.58424,0.17707 z m 8.27598,-8.10798 c 7.81554,-0.41915 15.06243,-2.10221 21.44147,-4.97965 5.22989,-2.35911 10.07575,-5.46332 14.61624,-9.36301 1.66282,-1.42815 5.01906,-4.84236 6.49263,-6.60477 7.91892,-9.47115 12.56914,-20.80218 13.65681,-33.27709 0.17792,-2.0406 0.17806,-7.52481 2.3e-4,-9.43346 -0.74707,-8.01897 -2.5455,-14.54024 -5.85749,-21.23975 -1.38785,-2.80736 -2.71743,-5.08703 -4.27517,-7.33018 -4.99675,-7.1953 -11.30437,-13.10092 -18.87396,-17.67108 -3.35095,-2.02314 -9.21792,-4.59351 -12.4429,-5.45134 -0.60478,-0.16087 -1.67256,-0.44423 -2.37283,-0.6297 -3.08837,-0.81795 -7.23436,-1.48043 -10.82244,-1.72929 -3.64196,-0.2526 -9.99854,-0.083 -12.9071,0.34447 -4.27815,0.62869 -9.0375,1.92295 -13.48343,3.66669 -1.92662,0.75564 -6.90381,3.12616 -6.7941,3.23587 0.0326,0.0326 0.22515,-0.0266 0.42797,-0.13148 0.20281,-0.10488 0.39864,-0.16081 0.43516,-0.12429 0.0857,0.0857 0.14532,0.0455 -1.12965,0.76248 -1.17142,0.65877 -1.95678,1.1559 -1.82606,1.1559 0.0438,0 0.77208,-0.39403 1.6184,-0.87562 2.7567,-1.56868 7.32267,-3.66732 10.05096,-4.61968 7.97118,-2.78252 17.0296,-3.80779 25.54821,-2.89166 20.09457,2.16106 37.62379,14.50514 46.50934,32.7519 2.8438,5.83983 4.77105,12.30125 5.55839,18.63542 0.39907,3.21065 0.32497,11.14101 -0.13771,14.7361 -0.7303,5.67457 -2.77192,12.35383 -5.43749,17.78907 -3.38332,6.89877 -7.78788,12.68679 -13.76638,18.09036 -7.59526,6.86484 -17.45554,11.77252 -27.59944,13.73683 -4.28787,0.83033 -6.60859,1.04345 -11.34974,1.04229 -6.48352,-0.002 -10.57695,-0.57378 -16.65192,-2.32767 -14.77942,-4.26692 -27.58124,-14.64983 -35.13385,-28.49525 -3.24295,-5.94498 -5.37594,-12.60184 -6.55161,-20.44692 -0.20005,-1.33494 -0.41536,-2.50688 -0.47847,-2.60433 -0.19019,-0.29369 -0.0146,2.40365 0.29358,4.51061 1.49216,10.2008 6.34544,20.7698 13.36759,29.11061 1.2706,1.5092 4.24888,4.52853 5.86825,5.94912 5.65901,4.96438 11.90694,8.70738 18.86093,11.29914 0.89346,0.33301 1.80498,0.63781 2.02559,0.67735 0.27529,0.0493 0.20141,-7.6e-4 -0.23551,-0.15974 -0.35014,-0.12739 -0.71043,-0.25902 -0.80065,-0.2925 -0.10828,-0.0402 -0.12508,-0.0999 -0.0494,-0.1755 0.0756,-0.0756 0.25442,-0.0562 0.52587,0.0572 0.71845,0.30018 4.02333,1.22972 5.80783,1.63353 1.75969,0.39819 2.32274,0.60467 1.28764,0.47219 -0.67208,-0.086 -3.47143,-0.73999 -4.96506,-1.15991 -0.5663,-0.15922 -0.98299,-0.24419 -0.92599,-0.18883 0.14155,0.13743 3.24653,0.97841 4.89412,1.32554 5.27326,1.11105 10.2893,1.50381 15.58117,1.22 z m 2.95157,-2.32565 c 3.25874,-0.28938 8.26664,-1.32185 11.47795,-2.36639 1.92137,-0.62497 3.82718,-1.33564 3.76053,-1.40229 -0.0253,-0.0253 -0.39742,0.0862 -0.82691,0.2479 -0.42948,0.16165 -0.83394,0.29392 -0.8988,0.29392 -0.0648,0 0.29344,-0.42972 0.7962,-0.95493 5.06725,-5.29342 9.5468,-13.06801 12.32125,-21.38443 2.10392,-6.30653 3.23795,-12.26343 3.70192,-19.44565 0.12915,-1.99928 0.11652,-10.33359 -0.0159,-10.46572 -0.0372,-0.0371 -0.55802,0.13416 -1.15748,0.38054 -7.58463,3.11742 -13.69959,7.10254 -19.25795,12.55042 l -1.79524,1.75956 -1.03649,3.81968 c -2.60346,9.59432 -4.83803,16.27902 -6.55835,19.61928 -0.4954,0.9619 -0.91889,1.55328 -2.03074,2.83582 -0.77265,0.89126 -1.48844,1.75069 -1.59064,1.90984 -0.44169,0.6878 -2.97315,3.53031 -3.14399,3.53031 -0.10332,0 -1.20147,1.01569 -2.44034,2.25709 -1.23887,1.2414 -3.19899,3.15123 -4.35581,4.24406 -1.72174,1.62651 -2.15137,1.9768 -2.3682,1.93081 -0.2003,-0.0425 -0.22256,-0.0293 -0.0913,0.054 0.35865,0.22744 5.15316,0.66968 8.21811,0.75803 1.85508,0.0535 5.80271,-0.0395 7.29212,-0.1718 z m -15.85747,-0.66704 c -0.0955,-0.0524 -0.75618,-0.20911 -1.4682,-0.34816 -0.71202,-0.13906 -2.16544,-0.48521 -3.22983,-0.76925 -1.06439,-0.28404 -1.9663,-0.51276 -2.00424,-0.50827 -0.43537,0.0515 5.95807,1.68706 6.70227,1.7146 0.15433,0.006 0.15433,-0.004 0,-0.0889 z m -7.31637,-2.0843 c 0.17249,-0.12043 0.83449,-0.55703 1.4711,-0.97022 1.52981,-0.99292 3.3829,-2.39253 5.10688,-3.85718 1.51494,-1.28704 4.55807,-4.17966 4.55807,-4.33263 0,-0.0516 -0.86467,-0.5707 -1.92148,-1.15358 -16.68329,-9.20164 -29.22453,-21.90113 -37.01779,-37.48491 -3.44165,-6.88209 -5.97245,-14.41486 -6.85031,-20.38955 -0.1952,-1.32848 -0.19485,-1.33953 0.17621,-5.61378 l 0.37179,-4.28267 0.7589,-1.44685 c 0.4174,-0.79577 1.10398,-2.03673 1.52573,-2.75771 l 0.76683,-1.31085 0.071,4.5518 c 0.0724,4.64464 0.22016,6.71211 0.69322,9.70258 2.45962,15.54848 11.47375,30.23874 26.41164,43.04287 4.11106,3.52382 9.25469,7.27496 13.74105,10.02103 2.15665,1.32008 4.67479,2.72704 4.87729,2.72509 0.17881,-0.002 0.18028,-0.004 1.84642,-2.50152 1.82169,-2.73103 2.97503,-4.85841 4.14031,-7.63696 1.03818,-2.47549 2.33107,-6.5814 2.09903,-6.66602 -0.0532,-0.0194 0.15762,-1.51978 0.46859,-3.33412 0.31097,-1.81435 0.61939,-3.61735 0.68538,-4.00665 0.066,-0.38931 0.11997,-0.91988 0.11997,-1.17903 v -0.4712 l -1.30216,-0.77979 c -3.82844,-2.29264 -8.51229,-5.75634 -12.41397,-9.1801 -1.83162,-1.60727 -5.53747,-5.25733 -7.18174,-7.07361 -6.93126,-7.65639 -11.99632,-16.11334 -14.93708,-24.9399 -1.90155,-5.70741 -2.85656,-11.02371 -3.11275,-17.32779 l -0.0739,-1.81756 1.16572,-0.77614 c 0.64115,-0.42687 1.14348,-0.79838 1.1163,-0.82556 -0.0755,-0.0755 -2.60815,1.63079 -4.25087,2.86399 -6.64624,4.98938 -12.53457,11.87561 -16.34089,19.11018 -2.87396,5.46247 -5.18353,12.80131 -5.97887,18.99829 -0.12244,0.95402 -0.24144,1.75341 -0.26445,1.77641 -0.023,0.023 -0.36512,-0.28436 -0.76025,-0.68304 l -0.71842,-0.72487 0.40636,-2.31035 c 1.43612,-8.16496 4.34103,-15.79771 8.42488,-22.13667 0.38096,-0.59133 0.66726,-1.10055 0.63621,-1.1316 -0.0563,-0.0563 -1.36505,1.9576 -1.77266,2.72762 -0.15047,0.28427 -0.22665,0.3483 -0.25536,0.21466 -0.0416,-0.19347 0.36365,-0.90579 1.6321,-2.86902 0.60681,-0.93918 0.71428,-1.05411 0.76901,-0.82228 0.0593,0.25116 0.0864,0.23488 0.39871,-0.23933 0.67823,-1.02989 2.26757,-3.09006 3.33926,-4.32851 1.45629,-1.68289 5.10219,-5.28908 6.91183,-6.83656 1.29795,-1.10992 4.41375,-3.51353 5.2376,-4.04042 0.17507,-0.11196 0.31831,-0.29741 0.31831,-0.4121 0,-0.11469 0.14323,-0.31993 0.3183,-0.45607 0.30043,-0.23364 0.30206,-0.23966 0.0289,-0.10729 -1.06242,0.51491 -4.50962,3.07511 -6.77126,5.02893 -1.72838,1.49315 -4.81709,4.57827 -6.19408,6.1869 -2.50974,2.93191 -4.98873,6.4955 -6.72337,9.66495 -4.58172,8.37151 -6.9972,16.71736 -7.08527,24.48069 l -0.0217,1.90984 0.40512,0.006 c 0.22281,0.003 0.6186,0.0458 0.87952,0.094 l 0.47441,0.0877 0.0728,3.43629 c 0.0943,4.45342 0.30155,6.57337 0.96405,9.8603 2.28109,11.31749 8.09852,21.88888 16.42715,29.8513 5.86861,5.61056 11.85915,9.37683 19.55255,12.29275 1.14591,0.43431 2.12464,0.79164 2.17496,0.79405 0.0503,0.002 0.23263,-0.0942 0.40512,-0.21458 z m 39.32919,-1.289 c 0.17213,-0.0654 0.28576,-0.14619 0.2525,-0.17945 -0.0333,-0.0332 -0.2358,0.0161 -0.45011,0.10955 -0.44306,0.19331 -0.27932,0.25123 0.19761,0.0699 z m 3.86904,-1.85181 c 3.76759,-1.88481 5.96617,-3.09275 6.80308,-3.73773 0.36447,-0.28087 0.88347,-0.63114 1.15333,-0.77837 0.26987,-0.14723 0.52079,-0.3626 0.55761,-0.47858 0.0368,-0.11599 0.16805,-0.21089 0.29163,-0.21089 0.12359,0 0.53131,-0.27346 0.90604,-0.60768 1.52169,-1.35718 2.15168,-1.89038 2.45181,-2.07515 0.49428,-0.30428 4.93637,-4.70369 5.53055,-5.4774 0.29334,-0.38197 0.79443,-0.99091 1.11354,-1.35319 1.22239,-1.38777 2.46022,-3.07064 2.92101,-3.97122 0.16287,-0.31831 0.39365,-0.64729 0.51286,-0.73107 0.11921,-0.0838 0.32128,-0.35724 0.44904,-0.60768 0.12777,-0.25044 0.28599,-0.45534 0.3516,-0.45534 0.0656,0 0.19704,-0.16928 0.29206,-0.37618 0.095,-0.2069 0.29755,-0.54849 0.45008,-0.75908 0.15253,-0.2106 0.36738,-0.62729 0.47746,-0.92599 0.11006,-0.29869 0.42844,-0.89272 0.7075,-1.32005 0.55707,-0.85308 1.56146,-2.91451 1.90132,-3.90234 0.11901,-0.34593 0.29742,-0.7185 0.39648,-0.82795 0.099,-0.10944 0.25154,-0.4699 0.33889,-0.801 0.0873,-0.33111 0.23609,-0.68794 0.33055,-0.79294 0.0945,-0.10501 0.30843,-0.67805 0.47549,-1.27344 0.16706,-0.59538 0.37904,-1.19741 0.47105,-1.33785 0.092,-0.14044 0.29891,-0.78722 0.45976,-1.4373 0.16085,-0.65007 0.36777,-1.37624 0.45985,-1.61371 0.0921,-0.23747 0.25264,-0.90055 0.35682,-1.4735 0.1042,-0.57295 0.23623,-1.09898 0.29344,-1.16896 0.14104,-0.17256 0.2948,-1.02523 0.51458,-2.85373 0.10137,-0.84327 0.28349,-2.02803 0.40473,-2.63282 0.4436,-2.21282 0.62897,-8.82918 0.27234,-9.72048 -0.10241,-0.25593 -0.23079,-0.46533 -0.2853,-0.46533 -0.21986,0 -0.33599,-0.50989 -0.50777,-2.22925 -0.099,-0.99112 -0.21218,-1.96278 -0.25147,-2.15923 -0.0621,-0.31075 -0.039,-0.35719 0.17816,-0.35719 0.13728,0 0.27887,-0.0763 0.31466,-0.16956 0.0974,-0.25392 -0.38913,-3.46986 -0.6005,-3.96886 -0.10101,-0.2385 -0.2613,-0.87636 -0.35618,-1.41748 -0.0949,-0.54112 -0.24963,-1.10286 -0.34387,-1.2483 -0.0942,-0.14545 -0.27375,-0.74444 -0.3989,-1.3311 -0.12516,-0.58667 -0.35446,-1.40522 -0.50955,-1.81902 -0.15508,-0.4138 -0.38769,-1.07276 -0.51688,-1.46436 -0.1292,-0.39159 -0.54541,-1.38986 -0.92492,-2.21837 -0.37951,-0.82851 -0.75014,-1.73214 -0.82362,-2.00808 -0.0735,-0.27594 -0.20552,-0.58242 -0.29342,-0.68108 -0.0879,-0.0986 -0.24067,-0.40858 -0.33952,-0.68874 -0.0989,-0.28015 -0.2568,-0.59455 -0.35101,-0.69865 -0.0942,-0.1041 -0.32683,-0.51036 -0.51693,-0.90279 -0.19009,-0.39243 -0.39248,-0.71352 -0.44973,-0.71352 -0.0573,0 -0.1359,-0.12676 -0.17479,-0.28168 -0.13124,-0.52292 -0.60256,-0.72426 -2.15604,-0.92102 -6.24809,-0.79137 -13.89626,-0.77259 -20.71645,0.0509 -5.80307,0.70067 -10.99619,1.86576 -16.14683,3.62261 -8.87096,3.02583 -16.2711,7.41773 -23.02416,13.6646 l -0.80055,0.74054 0.97417,1.24492 c 4.36322,5.57583 10.19021,11.16252 16.2529,15.58262 1.93805,1.41296 5.38116,3.71264 5.58257,3.72863 0.0857,0.007 0.4012,-0.34947 0.70117,-0.79171 0.52951,-0.78066 0.59595,-0.83247 2.28161,-1.7788 6.50811,-3.65368 16.92621,-8.44212 21.47124,-9.86876 0.66845,-0.20982 1.2414,-0.4135 1.27323,-0.45263 0.0318,-0.0391 0.76104,-0.28436 1.62047,-0.54495 0.85943,-0.2606 2.70851,-0.86801 4.10906,-1.34982 2.45478,-0.84447 6.01195,-1.82229 8.91259,-2.44996 1.52282,-0.32953 5.29836,-0.98806 5.35278,-0.93364 0.0188,0.0188 0.11053,0.91421 0.20394,1.98987 0.0934,1.07567 0.19206,2.11763 0.21924,2.31545 l 0.0494,0.35969 -1.7552,0.20125 c -3.79285,0.4349 -7.91012,1.2102 -11.45527,2.15711 -0.43918,0.1173 -0.44005,0.11875 -0.36697,0.60606 0.0403,0.26866 0.0154,1.60713 -0.0552,2.97438 -1.11713,21.61409 -5.86416,38.29931 -13.04811,45.86243 -0.57919,0.60976 -0.91515,0.80732 -4.00961,2.35787 -1.85761,0.93079 -3.4035,1.71857 -3.43534,1.75062 -0.19511,0.19649 0.87829,-0.29625 3.47244,-1.59403 z m -41.66305,-67.60339 c 0.42227,-0.65805 1.42462,-1.37752 4.45009,-3.1942 7.37753,-4.42994 15.87448,-8.2501 23.52914,-10.5785 5.40654,-1.64457 10.42664,-2.68402 15.99878,-3.31266 2.6379,-0.2976 10.4497,-0.2953 12.9059,0.004 1.71511,0.20886 4.90263,0.71318 5.29547,0.83783 0.16285,0.0517 0.20255,-0.005 0.20255,-0.29076 0,-0.22614 -0.0585,-0.35505 -0.16107,-0.35505 -0.0886,0 -0.19647,-0.14102 -0.23973,-0.31339 -0.0433,-0.17237 -0.25725,-0.51108 -0.47554,-0.75269 -0.21828,-0.24162 -0.39688,-0.49396 -0.39688,-0.56076 0,-0.0668 -0.35159,-0.50413 -0.7813,-0.97185 -0.42972,-0.46771 -1.17195,-1.3026 -1.64941,-1.85531 -0.94905,-1.09861 -4.16652,-4.26291 -4.62992,-4.5534 -0.15915,-0.0998 -0.63589,-0.50989 -1.05941,-0.9114 -0.42353,-0.4015 -0.83106,-0.73001 -0.90564,-0.73001 -0.0746,0 -0.43123,-0.27885 -0.79255,-0.61967 -0.36133,-0.34083 -0.94344,-0.8012 -1.29358,-1.02306 -0.35013,-0.22185 -0.98338,-0.65919 -1.40722,-0.97185 -0.42383,-0.31267 -1.28326,-0.87723 -1.90984,-1.25458 -0.62658,-0.37735 -1.47884,-0.90728 -1.89393,-1.17762 -0.41508,-0.27034 -1.04012,-0.60357 -1.38897,-0.7405 -0.34886,-0.13694 -0.73845,-0.34425 -0.86578,-0.4607 -0.12732,-0.11644 -0.43374,-0.2665 -0.68093,-0.33347 -0.24719,-0.067 -0.64311,-0.25598 -0.87982,-0.42002 -0.23671,-0.16404 -0.84181,-0.44845 -1.34466,-0.63203 -0.50285,-0.18357 -1.22679,-0.46709 -1.60876,-0.63006 -0.38197,-0.16296 -0.80909,-0.29753 -0.94917,-0.29904 -0.14007,-0.002 -0.29995,-0.0837 -0.35529,-0.18254 -0.0553,-0.0989 -0.4616,-0.27534 -0.9028,-0.39211 -0.4412,-0.11678 -1.04157,-0.32124 -1.33416,-0.45436 -0.29259,-0.13311 -0.89159,-0.32227 -1.3311,-0.42035 -0.43952,-0.0981 -1.00753,-0.27867 -1.26224,-0.40132 -0.27579,-0.13279 -1.1653,-0.31831 -2.19921,-0.45866 -0.95485,-0.12962 -2.14483,-0.31759 -2.64439,-0.41771 -0.49955,-0.10012 -0.99438,-0.16295 -1.0996,-0.13962 -0.10523,0.0233 0.26621,0.11295 0.8254,0.19916 0.5592,0.0862 0.97589,0.1904 0.92599,0.23153 -0.0499,0.0411 -0.73575,0.16462 -1.5241,0.27442 -10.68938,1.48888 -22.6709,5.85491 -32.34192,11.78528 -2.12625,1.30384 -4.24792,2.76504 -4.24792,2.92555 0,0.23665 0.80258,3.41273 1.27942,5.06311 0.80772,2.79558 2.19536,6.5897 3.45431,9.44492 1.42521,3.23225 4.89385,9.63205 5.22051,9.63205 0.0504,0 0.26161,-0.26478 0.46928,-0.58841 z m -33.85399,-21.1722 c 0.0908,0 0.16513,-0.0812 0.16513,-0.18045 0,-0.0999 0.0559,-0.14591 0.12516,-0.10311 0.0688,0.0425 0.27762,-0.0687 0.46398,-0.24726 0.31235,-0.29926 0.33334,-0.37033 0.26872,-0.90969 -0.24238,-2.02278 -0.6396,-1.94263 -1.09645,0.22122 -0.18977,0.89882 -0.30563,2.03801 -0.14461,1.42185 0.0291,-0.11141 0.12724,-0.20256 0.21807,-0.20256 z m 26.02095,-11.05886 c 3.24428,-1.56855 9.55282,-4.20823 15.58696,-6.52204 l 2.14634,-0.82302 h 4.90463 c 2.69755,0 4.8782,-0.0264 4.84589,-0.0587 -0.0323,-0.0323 -2.29374,-0.059 -5.02539,-0.0594 -5.48103,-6.8e-4 -5.44235,-0.004 -9.81295,0.87155 -5.89516,1.18113 -10.94586,2.9763 -15.93045,5.66215 -1.38902,0.74844 -2.21788,1.28831 -1.1752,0.76545 0.27673,-0.13877 0.52863,-0.22682 0.55977,-0.19568 0.0311,0.0311 0.10237,0.56867 0.15828,1.19449 0.0559,0.62583 0.10351,1.14984 0.10578,1.16447 0.002,0.0146 0.37552,-0.21365 0.82945,-0.5073 0.45393,-0.29364 1.71703,-0.96502 2.80689,-1.49195 z m -5.02119,0.1033 c 0,-0.0837 -0.44609,0.18576 -0.52867,0.31938 -0.0432,0.0699 0.0581,0.0376 0.22505,-0.0718 0.16699,-0.10942 0.30362,-0.22083 0.30362,-0.24757 z m -2.8283,-0.39991 c 0.0561,-0.0908 0.0105,-0.0904 -0.16073,0.001 -0.13146,0.0704 -0.27425,0.18492 -0.31731,0.25459 -0.0561,0.0908 -0.0105,0.0904 0.16073,-0.001 0.13146,-0.0703 0.27425,-0.18492 0.31731,-0.25459 z m 1.23677,-1.13488 c 1.00249,-0.59855 1.36292,-0.89128 0.63661,-0.51702 -0.53423,0.27528 -1.82303,1.09564 -1.82303,1.16041 0,0.0671 -0.0393,0.0884 1.18642,-0.64339 z m 39.61974,-5.44248 c -0.0366,-0.0592 -0.36521,-0.1416 -0.73026,-0.1831 -0.36505,-0.0415 -0.7679,-0.10371 -0.89522,-0.13823 -0.12732,-0.0345 -0.19258,-0.0217 -0.14502,0.0284 0.0476,0.0502 0.46425,0.15425 0.92598,0.2313 0.46173,0.0771 0.85561,0.14665 0.87528,0.15466 0.0197,0.008 0.006,-0.0339 -0.0308,-0.0931 z m -2.31651,-0.3621 c -0.48636,-0.14515 -3.03477,-0.27938 -2.91659,-0.15362 0.0805,0.0857 1.51611,0.20713 2.91313,0.24645 l 0.34725,0.01 z"
       id="path29" />
    <path
       style="fill:#e9afc6;fill-opacity:0.14946619;stroke-width:0.115748"
       d="m 271.4868,302.9756 c -2.57202,-0.0954 -3.43629,-0.19594 -5.67165,-0.65952 -11.782,-2.44344 -21.93841,-7.32817 -30.84682,-14.83581 -1.92812,-1.62492 -6.36061,-6.07548 -7.91673,-7.94899 -10.04432,-12.09295 -15.47326,-26.47946 -15.98649,-42.36374 -0.0776,-2.40258 0.0926,-8.24268 0.29343,-10.06584 0.32752,-2.97343 0.91717,-5.73636 1.71769,-8.04872 0.25345,-0.7321 0.67667,-2.03427 0.9405,-2.89369 1.9181,-6.2484 5.06716,-12.8793 8.70748,-18.33517 2.3691,-3.55064 3.86494,-5.34013 7.77362,-9.29966 1.52396,-1.54378 2.7285,-2.80688 2.67675,-2.80688 -0.0518,0 -0.002,-0.10211 0.11124,-0.22691 0.11294,-0.12479 0.2444,-0.21594 0.29214,-0.20255 0.11107,0.0311 3.32312,-2.66437 4.18929,-3.51562 0.36168,-0.35544 0.72817,-0.64626 0.81442,-0.64626 0.20379,0 1.82681,-1.17979 1.82681,-1.32793 0,-0.0623 0.0468,-0.0844 0.10398,-0.049 0.0572,0.0353 0.27104,-0.0918 0.47523,-0.28254 0.20419,-0.19074 0.4197,-0.3468 0.47892,-0.3468 0.0592,0 0.58759,-0.30484 1.17417,-0.67743 5.70655,-3.62469 12.15942,-6.43705 18.61927,-8.11485 1.83992,-0.47788 5.69392,-1.27526 7.36199,-1.52317 0.52521,-0.078 0.95492,-0.17338 0.95492,-0.21184 0,-0.0384 0.38635,-0.0758 0.85856,-0.083 0.47221,-0.007 0.92444,-0.0538 1.00496,-0.10354 0.16742,-0.10347 0.9868,-0.12949 6.29671,-0.19996 5.35809,-0.0711 7.4519,0.0899 11.81477,0.90842 10.24713,1.92253 19.62499,6.05163 27.93147,12.29834 3.43669,2.58449 8.18033,7.07941 11.61661,11.00752 7.4537,8.52057 13.18171,20.91688 14.90007,32.24609 0.2737,1.80451 0.57705,7.48903 0.58064,10.88054 0.003,2.98888 -0.21283,8.29433 -0.41466,10.18581 -0.67507,6.32638 -3.53059,14.89504 -7.35981,22.0849 -3.30676,6.20888 -6.65489,10.71423 -11.71895,15.76944 -3.75037,3.74382 -6.59571,6.10685 -10.3108,8.56307 -6.75225,4.4642 -14.26771,7.73261 -22.06885,9.59753 -2.65836,0.6355 -4.13975,0.86851 -6.66003,1.04755 -2.82847,0.20094 -11.20791,0.30466 -14.56085,0.18023 z m 10.12795,-8.22506 c 7.44002,-0.64371 14.09871,-2.34476 20.12904,-5.14225 13.62117,-6.31889 24.4647,-17.71219 30.02596,-31.54825 2.90823,-7.23549 4.26243,-14.20798 4.27132,-21.99211 0.005,-4.2713 -0.27403,-7.37237 -1.01889,-11.32877 -3.09483,-16.43856 -13.44232,-31.01842 -28.29013,-39.8615 -3.8106,-2.26952 -8.89486,-4.44994 -12.90589,-5.53477 -6.14746,-1.66266 -10.83494,-2.304 -16.84133,-2.30422 -5.17826,-1.9e-4 -8.28301,0.28315 -12.12322,1.10636 -5.22638,1.12036 -10.73023,3.0759 -15.31722,5.44228 -1.00256,0.51722 -1.86437,1.07481 -1.05174,0.68048 0.21282,-0.10326 0.41683,-0.15787 0.45335,-0.12135 0.0875,0.0875 0.15221,0.0443 -1.30327,0.87122 -0.70028,0.39786 -1.35136,0.79978 -1.44685,0.89314 -0.0955,0.0934 0.63372,-0.28466 1.62047,-0.84005 4.43821,-2.49808 9.56184,-4.6062 14.01849,-5.76792 8.02203,-2.09113 15.91925,-2.50671 24.06258,-1.26628 10.61237,1.61652 20.39749,6.06877 28.87911,13.14003 1.58533,1.32171 4.68437,4.36699 6.22376,6.11579 5.26994,5.98682 9.39312,13.26676 11.87058,20.95884 1.09487,3.3994 1.97321,7.34972 2.40444,10.81397 0.40032,3.216 0.32535,11.1407 -0.13956,14.7524 -0.94395,7.33289 -3.8513,15.5955 -7.78099,22.11332 -4.55582,7.55633 -10.81258,14.09179 -18.09889,18.90508 -8.02862,5.30366 -16.73296,8.37716 -26.83089,9.474 -2.10686,0.22886 -8.99081,0.19372 -11.40117,-0.0582 -3.98326,-0.41628 -7.25161,-1.07989 -11.28542,-2.2914 -11.61631,-3.48883 -22.13064,-10.86441 -29.6813,-20.82084 -6.20785,-8.18577 -9.74589,-16.85695 -11.40967,-27.9633 -0.41866,-2.79472 -0.64716,-3.35998 -0.53396,-1.32093 0.28454,5.12572 2.03044,11.88664 4.52833,17.53581 4.77398,10.79668 12.04114,19.44057 21.76046,25.88289 3.18221,2.10927 7.20413,4.2225 10.57019,5.55388 2.11858,0.83795 3.75429,1.40434 3.67222,1.27154 -0.0318,-0.0514 -0.29486,-0.15988 -0.58462,-0.24101 -0.28976,-0.0811 -0.55238,-0.18884 -0.58361,-0.23938 -0.14652,-0.23706 0.23959,-0.17324 1.51285,0.2501 1.12186,0.37301 3.07075,0.88685 6.42076,1.69292 0.22988,0.0553 0.24661,0.0797 0.0814,0.1185 -0.26206,0.0616 -2.66936,-0.44863 -4.55412,-0.96523 -0.79042,-0.21666 -1.47035,-0.39392 -1.51094,-0.39392 -0.51262,0 2.51993,0.8447 4.7683,1.32817 2.93753,0.63168 6.13747,1.04348 9.83858,1.26615 1.13409,0.0682 6.1456,-0.041 7.58149,-0.16521 z m -1.32152,-2.08041 c 5.39224,-0.23275 11.437,-1.49417 16.63717,-3.47184 0.37044,-0.14089 0.65067,-0.27903 0.62272,-0.30697 -0.0279,-0.028 -0.31994,0.0553 -0.64888,0.18492 -0.32894,0.12966 -0.65727,0.23575 -0.72961,0.23575 -0.0723,0 0.25719,-0.40368 0.7323,-0.89705 3.13423,-3.25474 6.42941,-8.0536 8.83077,-12.86051 4.17988,-8.36703 6.5694,-17.55941 7.23996,-27.85185 0.13203,-2.02655 0.15026,-9.43246 0.0251,-10.21255 l -0.0782,-0.48773 -1.21536,0.49658 c -7.42554,3.03403 -13.51852,7.01485 -19.26289,12.58534 l -1.6629,1.61257 -0.25199,0.95348 c -2.76993,10.4811 -5.34408,18.41951 -7.17771,22.13535 -0.72472,1.46865 -0.93148,1.77229 -2.20678,3.24094 -0.77393,0.89126 -1.49225,1.75069 -1.59627,1.90984 -0.42318,0.64747 -2.95716,3.5344 -3.1495,3.58819 -0.11382,0.0318 -1.63072,1.44153 -3.37089,3.13267 -4.79857,4.66336 -5.5135,5.31643 -5.74235,5.24552 -0.16363,-0.0507 -0.1683,-0.0423 -0.0259,0.0466 0.48675,0.30401 4.98099,0.67389 9.89645,0.8145 0.31831,0.009 1.72896,-0.0331 3.13478,-0.0938 z m -13.60997,-0.80304 c -0.0955,-0.055 -0.61636,-0.18723 -1.15748,-0.29374 -0.88427,-0.17406 -4.57183,-1.08856 -5.15078,-1.27737 -0.19481,-0.0635 -0.20162,-0.0561 -0.043,0.0469 0.21685,0.14077 3.28514,0.95395 5.07801,1.3458 1.36941,0.2993 1.51946,0.32032 1.27322,0.17842 z m -5.93884,-2.92095 c 1.85718,-1.23209 3.82515,-2.70499 5.30223,-3.96839 1.35592,-1.15978 4.57204,-4.21934 4.57204,-4.34949 0,-0.0556 -0.45575,-0.34694 -1.01279,-0.64754 -17.02619,-9.18799 -29.8035,-21.93378 -37.75553,-37.6624 -3.44691,-6.81777 -5.88564,-13.90622 -6.91268,-20.09247 l -0.30915,-1.86216 0.37282,-4.33035 0.37282,-4.33035 0.75811,-1.44685 c 0.41697,-0.79577 1.1042,-2.03674 1.5272,-2.75771 l 0.76908,-1.31086 0.0729,4.49393 c 0.0828,5.10373 0.24377,7.18742 0.8067,10.43921 1.8931,10.93546 6.91505,21.29986 15.03823,31.03619 6.58569,7.89351 15.25136,15.29868 24.88336,21.26385 2.04219,1.26475 4.80051,2.81303 5.00277,2.80813 0.33311,-0.008 3.02106,-4.158 4.38349,-6.76767 1.82659,-3.49876 3.68341,-8.59073 3.6721,-10.07007 -0.002,-0.25464 0.21461,-1.71307 0.48124,-3.24094 0.5947,-3.40788 0.81314,-4.84123 0.81314,-5.33564 0,-0.35926 -0.0667,-0.41836 -1.30216,-1.15475 -2.75726,-1.64337 -7.28217,-4.86708 -10.04114,-7.15368 -3.2222,-2.67053 -7.21957,-6.49386 -9.77855,-9.35283 -10.54354,-11.77952 -16.49653,-24.91452 -17.64291,-38.92825 -0.0625,-0.76394 -0.14721,-2.17648 -0.18826,-3.13899 l -0.0746,-1.75001 0.84947,-0.58716 c 1.77787,-1.22887 1.6062,-1.21834 -0.25014,0.0153 -5.02772,3.34135 -9.91864,7.9439 -13.73646,12.92656 -4.44338,5.7991 -7.31389,11.52461 -9.36444,18.67826 -0.75628,2.6384 -1.34064,5.31805 -1.66922,7.6544 -0.1343,0.95492 -0.27133,1.91407 -0.3045,2.13145 l -0.0603,0.39522 -0.74317,-0.74317 -0.74317,-0.74317 0.34933,-2.02489 c 1.3954,-8.08856 3.80935,-14.64422 7.98056,-21.6731 0.14167,-0.23873 0.22872,-0.43406 0.19344,-0.43406 -0.0353,0 -0.28745,0.3759 -0.56039,0.83532 -0.28927,0.48692 -0.51111,0.75816 -0.53188,0.65033 -0.0358,-0.18606 0.72571,-1.51102 1.78063,-3.098 0.36323,-0.54643 0.58177,-0.78565 0.60569,-0.66299 0.0206,0.10553 0.0727,0.1898 0.11575,0.18725 0.0431,-0.003 0.38825,-0.45716 0.76705,-1.01024 1.44431,-2.10882 3.04996,-3.95491 6.01675,-6.91774 3.05996,-3.05588 5.14325,-4.86097 7.87877,-6.82665 0.76393,-0.54895 1.40737,-1.08572 1.42986,-1.19283 0.0225,-0.10711 0.12666,-0.29621 0.23149,-0.42021 0.17446,-0.20636 0.15629,-0.20438 -0.2145,0.0234 -1.73244,1.06413 -4.72908,3.34477 -6.91014,5.25906 -1.63393,1.43409 -5.01171,4.90893 -6.2795,6.45994 -2.64869,3.24042 -4.43365,5.85565 -6.20978,9.09826 -3.38263,6.17552 -5.72757,12.87136 -6.58287,18.797 -0.29144,2.01913 -0.57742,5.95575 -0.50451,6.94487 0.0375,0.50939 0.0473,0.52101 0.44351,0.52716 0.22281,0.003 0.61843,0.0457 0.87915,0.094 l 0.47403,0.0877 0.0735,3.43635 c 0.11151,5.21674 0.45402,7.96705 1.53785,12.34895 2.69669,10.90265 8.70573,20.9265 17.08727,28.50379 5.85176,5.29025 11.42477,8.58929 19.76554,11.70058 0.35014,0.13061 0.67263,0.24018 0.71666,0.2435 0.044,0.003 0.79928,-0.47111 1.67835,-1.0543 z m 38.31235,-0.63463 c -0.0573,-0.0573 -0.65857,0.16108 -0.65857,0.23922 0,0.0301 0.15892,-6.8e-4 0.35315,-0.0684 0.19424,-0.0677 0.33168,-0.14459 0.30542,-0.17084 z m 3.16242,-1.43563 c 3.81567,-1.89132 6.14751,-3.16203 7.11719,-3.87844 0.44563,-0.32924 1.03409,-0.7382 1.30769,-0.90879 0.2736,-0.17059 0.52659,-0.38607 0.56219,-0.47885 0.0356,-0.0928 0.16378,-0.16867 0.28485,-0.16867 0.12106,0 0.5239,-0.27346 0.8952,-0.60768 1.25929,-1.13356 2.14383,-1.88027 2.45543,-2.07284 0.49886,-0.3083 4.66131,-4.43237 5.39225,-5.34253 0.36734,-0.45742 0.93042,-1.12626 1.25128,-1.48631 1.13275,-1.2711 2.46797,-3.08663 2.92359,-3.97528 0.1632,-0.31831 0.39426,-0.64729 0.51347,-0.73107 0.11921,-0.0838 0.32128,-0.35724 0.44904,-0.60768 0.12777,-0.25044 0.28445,-0.45534 0.34818,-0.45534 0.0637,0 0.1781,-0.14324 0.25416,-0.31831 0.0761,-0.17507 0.258,-0.48048 0.40433,-0.67869 0.14632,-0.19822 0.39118,-0.66838 0.54414,-1.04482 0.15297,-0.37643 0.47036,-0.96952 0.70531,-1.31796 0.54978,-0.81531 1.18378,-2.0838 1.73401,-3.46935 0.24017,-0.60478 0.5277,-1.21635 0.63896,-1.35903 0.11125,-0.14269 0.23871,-0.45362 0.28324,-0.69096 0.0445,-0.23735 0.20174,-0.64147 0.34935,-0.89806 0.14763,-0.25658 0.3781,-0.87292 0.51218,-1.36964 0.13407,-0.49672 0.3178,-1.01758 0.4083,-1.15748 0.0905,-0.13989 0.30022,-0.80126 0.46608,-1.46971 0.16585,-0.66844 0.37491,-1.40476 0.46456,-1.63627 0.0897,-0.2315 0.24911,-0.88259 0.3543,-1.44685 0.10519,-0.56426 0.23211,-1.07802 0.28204,-1.14168 0.1417,-0.18067 0.32194,-1.15436 0.52679,-2.84586 0.10341,-0.85391 0.28477,-2.04738 0.403,-2.65217 0.26843,-1.37303 0.4976,-5.38 0.44395,-7.76208 -0.0336,-1.48977 -0.0757,-1.84988 -0.24392,-2.08347 -0.11185,-0.15531 -0.27892,-0.38707 -0.37128,-0.51502 -0.10534,-0.14594 -0.23471,-0.9007 -0.34718,-2.02559 -0.0986,-0.98613 -0.21077,-1.96224 -0.24929,-2.16914 -0.0613,-0.32915 -0.039,-0.37618 0.178,-0.37618 0.13641,0 0.276,-0.0729 0.31021,-0.16211 0.0935,-0.24365 -0.40906,-3.54971 -0.59807,-3.93433 -0.0904,-0.18404 -0.24487,-0.79827 -0.34319,-1.36493 -0.0983,-0.56667 -0.2777,-1.22343 -0.39862,-1.45947 -0.12092,-0.23603 -0.27759,-0.75525 -0.34815,-1.15381 -0.17396,-0.9826 -1.22582,-3.944 -2.00379,-5.64148 -0.35013,-0.76394 -0.69885,-1.62337 -0.77497,-1.90984 -0.0761,-0.28648 -0.21029,-0.60158 -0.29819,-0.70024 -0.0879,-0.0986 -0.24107,-0.40969 -0.34039,-0.69119 -0.0993,-0.2815 -0.27421,-0.61748 -0.38865,-0.74661 -0.11444,-0.12914 -0.3509,-0.53429 -0.52547,-0.90035 -0.17456,-0.36605 -0.36056,-0.66555 -0.4133,-0.66555 -0.0528,0 -0.14922,-0.15292 -0.21438,-0.33982 -0.17066,-0.48954 -0.61764,-0.66726 -2.17263,-0.86382 -6.10191,-0.77129 -13.3415,-0.77185 -20.18665,-0.002 -15.53408,1.7481 -29.03307,7.5741 -39.12517,16.88598 -0.53982,0.49809 -1.05309,0.97132 -1.14059,1.05161 -0.13264,0.12173 -0.0268,0.31561 0.63662,1.16633 5.32592,6.82944 11.97717,12.92994 19.70999,18.07791 l 2.36233,1.57268 0.17518,-0.26384 c 0.92291,-1.38998 0.94794,-1.41212 2.73952,-2.4232 6.3336,-3.57439 16.93279,-8.44722 21.47124,-9.8711 0.66845,-0.20971 1.23272,-0.42339 1.25394,-0.47483 0.0212,-0.0514 0.11947,-0.0935 0.21834,-0.0935 0.0989,0 1.97906,-0.60191 4.17821,-1.33757 3.80855,-1.27404 7.2209,-2.23508 10.26486,-2.89095 1.55792,-0.33568 5.29034,-0.99491 5.34176,-0.94348 0.0184,0.0184 0.11289,0.91611 0.21008,1.99501 0.0972,1.0789 0.19842,2.12322 0.225,2.32071 l 0.0483,0.35907 -1.69723,0.1962 c -3.2248,0.37279 -7.09287,1.0602 -9.91533,1.76209 -2.27688,0.56622 -2.04841,0.44907 -1.96468,1.00736 0.14674,0.97854 -0.31275,8.01288 -0.82166,12.57879 -1.70572,15.30372 -5.38014,27.25437 -10.49206,34.12427 -0.62951,0.84601 -2.2825,2.76677 -2.40545,2.79512 -0.20229,0.0466 -6.86215,3.46683 -6.75923,3.4712 0.0703,0.003 1.39366,-0.62203 2.94086,-1.38893 z m -41.20137,-67.83257 c 0.28706,-0.44735 0.65761,-0.77559 1.54573,-1.36925 2.75314,-1.84032 6.48277,-3.96828 10.31223,-5.8837 10.88214,-5.44304 21.42462,-8.67058 32.12005,-9.83345 2.73773,-0.29766 10.40179,-0.29566 12.9059,0.003 1.67992,0.20061 4.88205,0.70814 5.29547,0.83932 0.2914,0.0925 0.26944,-0.42134 -0.0289,-0.67682 -0.12732,-0.10902 -0.2315,-0.27504 -0.2315,-0.36894 0,-0.0939 -0.14862,-0.34182 -0.33027,-0.55094 -0.18164,-0.20911 -0.39756,-0.51042 -0.47982,-0.66958 -0.31762,-0.61456 -4.39595,-4.97919 -5.90906,-6.32387 -0.7067,-0.62803 -1.66891,-1.49345 -2.13825,-1.92317 -0.46934,-0.42971 -0.9086,-0.7813 -0.97614,-0.7813 -0.0675,0 -0.42407,-0.27697 -0.7923,-0.61549 -0.36822,-0.33852 -1.03187,-0.85702 -1.47478,-1.15221 -0.4429,-0.29519 -1.09175,-0.74103 -1.44189,-0.99077 -0.35013,-0.24973 -1.20956,-0.8047 -1.90984,-1.23325 -0.70027,-0.42855 -1.54752,-0.9569 -1.88278,-1.17411 -0.33525,-0.21721 -0.88216,-0.50192 -1.21535,-0.63268 -0.33319,-0.13076 -0.70997,-0.33302 -0.8373,-0.44947 -0.12732,-0.11644 -0.43374,-0.2665 -0.68093,-0.33347 -0.24719,-0.067 -0.64311,-0.25598 -0.87982,-0.42002 -0.23671,-0.16404 -0.84181,-0.44845 -1.34466,-0.63203 -0.50285,-0.18357 -1.22679,-0.46709 -1.60876,-0.63006 -0.38197,-0.16296 -0.80909,-0.29753 -0.94917,-0.29904 -0.14007,-0.002 -0.29633,-0.0771 -0.34724,-0.16798 -0.0509,-0.0909 -0.45717,-0.2682 -0.9028,-0.39404 -0.44563,-0.12584 -1.04462,-0.3345 -1.3311,-0.46368 -0.28648,-0.12919 -0.91151,-0.32167 -1.38897,-0.42773 -0.47747,-0.10607 -0.97438,-0.25983 -1.10425,-0.34169 -0.28628,-0.18044 -1.08316,-0.34649 -2.77331,-0.57787 -0.70028,-0.0959 -1.55053,-0.22988 -1.88945,-0.2978 -0.33893,-0.0679 -0.67749,-0.10135 -0.75236,-0.0743 -0.0749,0.0271 0.16277,0.0881 0.5281,0.13572 0.67651,0.0881 0.81467,0.29165 0.19795,0.29165 -0.58207,0 -5.02205,0.79059 -7.17896,1.2783 -9.43384,2.13313 -18.87546,6.02759 -27.12293,11.1876 -2.12248,1.32793 -3.42163,2.24857 -3.42413,2.42651 -0.001,0.074 0.21136,0.98392 0.47199,2.02204 1.45106,5.77955 3.36851,10.87659 6.11208,16.24733 1.40025,2.7411 3.18491,5.84527 3.36058,5.84527 0.0547,0 0.26931,-0.26478 0.47698,-0.58841 z m -33.35678,-14.94416 c 0.22156,-0.41463 0.22785,-0.45111 0.0374,-0.21679 -0.35553,0.43744 -0.67892,1.01976 -0.47393,0.85341 0.0936,-0.076 0.29003,-0.36243 0.43653,-0.63662 z m -0.12776,-6.45954 c 0.0548,0 0.24067,-0.14723 0.41307,-0.32717 0.30961,-0.32317 0.31197,-0.33759 0.19286,-1.17747 -0.16202,-1.14236 -0.42459,-1.46607 -0.68075,-0.83925 -0.16654,0.4075 -0.5867,2.31544 -0.58999,2.6791 l -0.002,0.27734 0.28384,-0.30627 c 0.15612,-0.16845 0.32867,-0.30628 0.38347,-0.30628 z m 22.9143,-9.395 c 2.30868,-1.4218 10.25716,-4.87585 18.2034,-7.91038 2.42427,-0.92579 2.58096,-1.00812 1.73622,-0.91226 -0.87427,0.0992 -4.51238,0.77121 -6.19608,1.14448 -4.88456,1.08289 -9.83937,2.92202 -14.17556,5.26169 -1.21332,0.65467 -2.09601,1.22696 -1.17566,0.76223 0.21281,-0.10745 0.4127,-0.16961 0.4442,-0.13811 0.0315,0.0315 0.0814,0.38692 0.11079,0.78983 0.0659,0.90199 0.15178,1.48493 0.21876,1.48493 0.0278,0 0.40309,-0.21709 0.83393,-0.48241 z m -5.2284,-1.69035 c -0.0388,-0.0388 -0.16046,0.0236 -0.27035,0.13865 -0.19101,0.19998 -0.18791,0.20309 0.0705,0.0705 0.14869,-0.0763 0.23861,-0.17039 0.19981,-0.20919 z m 1.93177,-1.57384 0.26028,-0.2163 -0.28937,0.16821 c -0.15915,0.0925 -0.53678,0.31199 -0.83917,0.48772 -0.30239,0.17574 -0.54981,0.34362 -0.54981,0.37308 0,0.0785 1.11389,-0.55993 1.41807,-0.81271 z m 40.21985,-4.88868 c -0.0385,-0.0385 -0.1383,-0.0426 -0.22185,-0.009 -0.0923,0.0369 -0.0649,0.0644 0.0699,0.0699 0.12201,0.005 0.19038,-0.0223 0.15192,-0.0608 z m -1.1898,-0.15169 c -0.0605,-0.0582 -0.42248,-0.13378 -0.80444,-0.16789 l -0.69449,-0.062 0.75236,0.15375 c 0.4138,0.0846 0.7758,0.16012 0.80445,0.16789 0.0287,0.008 0.003,-0.0335 -0.0579,-0.0917 z m -2.32999,-0.35772 c -0.34987,-0.14099 -2.89701,-0.28731 -2.7765,-0.15949 0.0795,0.0843 1.17283,0.18372 2.73945,0.24909 0.2786,0.0116 0.27998,0.008 0.037,-0.0896 z m -5.67976,-0.20182 c -1.28915,-0.0186 -3.39865,-0.0186 -4.6878,0 -1.28914,0.0186 -0.23439,0.0339 2.3439,0.0339 2.57829,0 3.63304,-0.0152 2.3439,-0.0339 z"
       id="path30" />
    <path
       style="fill:#e9afc6;fill-opacity:0.48042706;stroke-width:0.115748"
       d=""
       id="path31" />
    <path
       style="fill:#e9afc6;fill-opacity:0.48042706;stroke-width:0.115748"
       d=""
       id="path32" />
    <ellipse
       style="fill:#e9afc6;fill-opacity:0.14946619"
       id="path33"
       cx="227.4447"
       cy="198.27623"
       rx="2.083463"
       ry="4.6299176" />
    <path
       style="fill:#e9afc6;fill-opacity:0.14946619"
       d="m 226.42739,191.97016 -1.35046,3.27385 17.67877,-16.36924 -1.39139,-1.71877 -13.25907,12.11324 z"
       id="path34" />
    <path
       style="fill:#e9afc6;fill-opacity:0.14946619"
       d="m 218.76361,238.55651 2.31496,12.15354 5.44016,14.58424 8.91259,10.99605 10.76456,8.91259 16.55195,7.06063 16.20471,0.81023 8.56535,0.34725 13.65826,-4.97716 -4.39842,8.79684 -51.04485,-3.58819 -30.55745,-37.84957 1.50472,-43.75273 z"
       id="path35" />
    <path
       style="fill:#e9afc6;fill-opacity:0.14946619"
       d="m 219.57385,234.27384 0.46299,-4.05118 1.27323,-10.07007 5.09291,-12.84802 10.30157,-13.07952 9.95432,-7.63936 -3.1252,-6.71339 -30.21021,41.90076 4.74567,12.96377 z"
       id="path36" />
    <path
       style="fill:#e9afc6;fill-opacity:0.14946619"
       d="m 291.86339,242.83754 -3.51938,1.30954 -5.23816,2.53723 6.79323,2.86462 z"
       id="path37" />
    <path
       style="fill:#e9afc6;fill-opacity:0.14946619"
       d="m 332.62278,227.61416 6.13846,-0.40923 0.0819,4.86985 -5.64739,0.3683 z"
       id="path38" />
    <path
       style="fill:#e9afc6;fill-opacity:0.14946619"
       d="m 298.0837,291.04493 10.64,-6.87508"
       id="path39" />
    <path
       style="fill:#e9afc6;fill-opacity:0.14946619"
       d="m 298.16555,290.06278 14.65046,-8.34831 10.88554,-11.37662 6.46584,-10.64 3.84677,-11.78584 1.30954,-16.86031 6.30216,-1.22769 -15.0597,50.25354 -26.76369,11.62215 z"
       id="path40" />
    <path
       style="fill:#e9afc6;fill-opacity:0.14946619"
       d="m 212.63631,219.26585 -0.77754,4.05139 7.22293,-8.04139 7.30477,-22.40538 -0.532,0.0818 -4.58339,6.34308 -3.11015,5.68831 -2.61908,5.70877 -2.49631,7.48892 z"
       id="path41" />
    <path
       style="fill:#e9afc6;fill-opacity:0.14946619"
       d="m 224.54493,220.32985 -1.88246,-15.50984 6.01569,-2.20985 -0.20462,3.39661 z"
       id="path42" />
    <path
       style="fill:#e9afc6;fill-opacity:0.14946619"
       d="m 219.90016,233.73216 0.22508,-3.04877 -3.56031,-0.71615 2.23031,4.6243 z"
       id="path43" />
    <path
       style="fill:#e9afc6;fill-opacity:0.14946619"
       d="m 244.47447,189.26924 -0.90031,-8.512 5.15631,-0.28647 0.81846,8.18462 z"
       id="path44" />
    <path
       style="fill:#e9afc6;fill-opacity:0.14946619"
       d="m 249.08958,185.08096 19.09841,-6.48188 4.51417,1.62047 15.74172,0.34724 1.38897,-0.81023 12.73228,3.93543 15.27872,10.8803 8.33386,10.88031 4.74566,9.25984 3.70394,12.15353 2.31495,5.20866 -2.54645,-30.21022 -6.71338,-9.37558 0.92598,-3.35669 -15.39447,-11.69054 -9.95433,-3.47244 -56.60074,5.5559 z"
       id="path45" />
    <path
       id="path46"
       style="opacity:1;fill:#e9afc6;fill-opacity:0.14946619;stroke-width:0.769755"
       inkscape:transform-center-x="4.8411888"
       inkscape:transform-center-y="-2.3146461"
       d="m 288.86611,164.37519 a 5.2997555,29.94948 73.340801 0 0 -33.40932,7.38577 5.2997555,29.94948 73.340801 0 0 -18.07133,12.22006 5.2997555,29.94948 73.340801 0 0 36.39277,-7.04453 5.2997555,29.94948 73.340801 0 0 15.6278,-6.96411 l -1.03814,-1.35125 -5.90534,-0.9041 9.51206,-2.9496 a 5.2997555,29.94948 73.340801 0 0 -0.12307,-0.0529 5.2997555,29.94948 73.340801 0 0 -2.98543,-0.33929 z" />
    <text
       xml:space="preserve"
       id="text47"
       style="font-style:normal;font-variant:normal;font-weight:normal;font-stretch:normal;font-size:96px;font-family:'Bauhaus 93';-inkscape-font-specification:'Bauhaus 93, ';white-space:pre;shape-inside:url(#rect47);display:inline;fill:#e9afc6;fill-opacity:0.480427"
       transform="matrix(1.0626789,0,0,1,408.80435,701.89553)"><tspan
         x="-142.60156"
         y="-86.76668"
         id="tspan1">CVR</tspan></text>
  </g>
</svg>
