<?xml version="1.0" encoding="UTF-8" standalone="no"?>
<!-- Created with Inkscape (http://www.inkscape.org/) -->

<svg
   version="1.1"
   id="svg1"
   width="16"
   height="16"
   viewBox="0 0 16 16"
   sodipodi:docname="logo.svg"
   inkscape:version="1.3.2 (091e20e, 2023-11-25, custom)"
   xmlns:inkscape="http://www.inkscape.org/namespaces/inkscape"
   xmlns:sodipodi="http://sodipodi.sourceforge.net/DTD/sodipodi-0.dtd"
   xmlns="http://www.w3.org/2000/svg"
   xmlns:svg="http://www.w3.org/2000/svg">
  <defs
     id="defs1">
    <rect
       x="-142.60147"
       y="-175.01089"
       width="496.32718"
       height="179.64081"
       id="rect47" />
  </defs>
  <sodipodi:namedview
     id="namedview1"
     pagecolor="#ffffff"
     bordercolor="#000000"
     borderopacity="0.25"
     inkscape:showpageshadow="2"
     inkscape:pageopacity="0.0"
     inkscape:pagecheckerboard="0"
     inkscape:deskcolor="#d1d1d1"
     showgrid="false"
     showguides="false"
     inkscape:zoom="32"
     inkscape:cx="0.359375"
     inkscape:cy="4.5625"
     inkscape:window-width="2160"
     inkscape:window-height="1361"
     inkscape:window-x="-9"
     inkscape:window-y="-9"
     inkscape:window-maximized="1"
     inkscape:current-layer="layer1" />
  <g
     inkscape:groupmode="layer"
     id="layer3"
     inkscape:label="Image 2" />
  <g
     inkscape:groupmode="layer"
     id="layer1"
     inkscape:label="Image 1"
     style="display:inline;opacity:1;fill:#105589;fill-opacity:1">
    <path
       style="fill:#001B30;fill-opacity:1;stroke-width:0.115748"
       d=""
       id="path24" />
    <path
       style="fill:#001B30;fill-opacity:1;stroke-width:0.115748"
       d=""
       id="path26" />
    <path
       style="fill:#001B30;fill-opacity:1;stroke-width:0.115748"
       d=""
       id="path27" />
    <path
       style="fill:#001B30;fill-opacity:1;stroke-width:0.115748"
       d=""
       id="path28" />
    <path
       style="fill:#001B30;fill-opacity:1;stroke-width:0.115748"
       d=""
       id="path31" />
    <path
       style="fill:#001B30;fill-opacity:1;stroke-width:0.115748"
       d=""
       id="path32" />
    <path
       id="path79"
       style="fill:#001B30;fill-opacity:1;stroke-width:0.00505538"
       d="M 5.9469337,6.6148929 C 5.8965913,6.608876 5.8039427,6.5882175 5.7306487,6.5660214 5.1402592,6.3871489 4.7273983,5.8651193 4.6838552,5.2424317 c -0.00669,-0.092361 -0.00267,-0.2440502 0.00795,-0.3159602 0.00895,-0.060838 0.021127,-0.1163758 0.027143,-0.1238101 0.002,-0.00267 0.00916,-0.023333 0.015376,-0.045529 C 4.7877456,4.5650491 4.8892796,4.3662269 5.0092856,4.2187297 5.0832018,4.1278865 5.2116244,4.0072383 5.3070075,3.9390455 5.6148314,3.7189699 6.0059441,3.626943 6.3747537,3.687815 6.6111421,3.726792 6.847417,3.8312073 7.0319521,3.9781428 c 0.080387,0.063981 0.1988156,0.1824492 0.2633046,0.263338 0.1534607,0.1924844 0.2696493,0.4663721 0.2959704,0.6976395 0.00823,0.07225 0.00835,0.3455439 1.737e-4,0.4221272 -0.01417,0.1329696 -0.068898,0.305063 -0.1449801,0.4559162 C 7.3677315,5.9731849 7.2816815,6.0901824 7.1552173,6.2130967 7.0129817,6.3513476 6.8705388,6.4436554 6.6730337,6.525567 6.5876518,6.5610004 6.4463193,6.6000714 6.3671888,6.610166 6.3124343,6.617118 5.9978577,6.6207248 5.9470072,6.6148424 Z M 6.278645,6.42999 C 6.510942,6.4020443 6.7124251,6.321276 6.8979297,6.1816544 7.2793215,5.894596 7.4706493,5.4203682 7.3956572,4.9479523 7.3363562,4.5742822 7.1123895,4.2453454 6.779829,4.043441 6.635287,3.9556862 6.4670512,3.8991196 6.276118,3.8740688 6.2003503,3.8641073 6.0020763,3.8655781 5.9348796,3.876743 5.6405606,3.9248791 5.3925059,4.0518649 5.1926674,4.2567376 5.0290447,4.4244786 4.909306,4.6465867 4.8584356,4.8766974 c -0.018184,0.082112 -0.030152,0.2318156 -0.017917,0.224281 0.00267,-0.002 0.011633,-0.002 0.019455,-7.36e-5 l 0.014307,0.00335 0.00335,0.092027 c 0.00335,0.1030985 0.012435,0.1704889 0.034364,0.2562246 0.056091,0.2196279 0.1661165,0.4144521 0.3228463,0.5718038 0.1424294,0.1429976 0.293042,0.2373244 0.4845236,0.3034514 0.1227404,0.042387 0.2248692,0.059836 0.3725668,0.063646 0.088089,0.002 0.1243651,0.00134 0.1744133,-0.00535 0.1200728,-0.016045 0.2098467,-0.038509 0.3021811,-0.075547 0.017449,-0.00702 0.032225,-0.012502 0.032826,-0.012235 0.00134,6.686e-4 0.1501179,-0.073775 0.1755498,-0.087988 0.00402,-0.002 0.013237,-0.00702 0.02019,-0.010502 0.013572,-0.00669 0.014842,-0.00755 0.037907,-0.025606 0.00835,-0.00669 0.019121,-0.013304 0.024001,-0.015109 0.00468,-0.002 0.00883,-0.00535 0.00883,-0.00842 0,-0.00267 0.00335,-0.00535 0.00735,-0.00535 0.00402,0 0.00916,-0.00267 0.011367,-0.00602 0.002,-0.00335 0.01317,-0.013037 0.024268,-0.021193 0.011094,-0.00816 0.022062,-0.017851 0.024268,-0.02146 0.002,-0.00335 0.00669,-0.00669 0.0093,-0.00669 0.00602,0 0.1256955,-0.1183614 0.1256955,-0.1239772 0,-0.002 0.00795,-0.011367 0.017717,-0.021127 0.00976,-0.00976 0.017717,-0.019188 0.017717,-0.020993 1.34e-5,-0.002 0.00602,-0.010092 0.013906,-0.018452 0.016847,-0.018386 0.041652,-0.055958 0.041652,-0.063112 0,-0.00267 0.002,-0.00535 0.00535,-0.00535 0.00267,0 0.00735,-0.00602 0.00996,-0.012635 0.00267,-0.00695 0.00716,-0.012635 0.00997,-0.012635 0.00267,0 0.00535,-0.00335 0.00535,-0.00695 0,-0.00402 0.00335,-0.00969 0.00735,-0.013037 0.00402,-0.00335 0.010024,-0.014441 0.013371,-0.024603 0.00335,-0.010229 0.00795,-0.01979 0.010297,-0.021327 0.00709,-0.00468 0.043389,-0.077699 0.047133,-0.094909 0.002,-0.00883 0.00535,-0.016045 0.00795,-0.016045 0.00267,0 0.00602,-0.00795 0.00776,-0.017717 0.002,-0.00976 0.00535,-0.017717 0.00749,-0.017717 0.002,0 0.00695,-0.012502 0.010365,-0.027813 0.00335,-0.01531 0.00782,-0.027812 0.00976,-0.027812 0.002,0 0.00669,-0.014241 0.010092,-0.031623 0.00335,-0.017382 0.00829,-0.033896 0.010502,-0.03677 0.002,-0.00267 0.00535,-0.017049 0.00749,-0.031623 0.002,-0.014508 0.00535,-0.026408 0.00728,-0.026408 0.002,0 0.00669,-0.026743 0.010229,-0.059435 0.00335,-0.032692 0.00816,-0.061708 0.010297,-0.064448 0.00535,-0.00702 0.0119,-0.1741861 0.00769,-0.1965559 -0.002,-0.010092 -0.00669,-0.018319 -0.010092,-0.018319 -0.00468,0 -0.00762,-0.013104 -0.010092,-0.045595 -0.002,-0.025071 -0.00468,-0.048938 -0.00602,-0.053083 -0.002,-0.00468 1.738e-4,-0.00749 0.00535,-0.00749 0.00669,0 0.00788,-0.00335 0.00602,-0.013906 -0.00134,-0.00762 -0.00402,-0.02701 -0.00602,-0.043056 -0.002,-0.016045 -0.00535,-0.030286 -0.00742,-0.03169 -0.002,-0.00134 -0.00535,-0.015043 -0.00756,-0.030286 -0.002,-0.015243 -0.00535,-0.027745 -0.00762,-0.027745 -0.002,0 -0.00602,-0.010832 -0.00755,-0.024001 -0.002,-0.01317 -0.00669,-0.030821 -0.010024,-0.039178 -0.00335,-0.00835 -0.00816,-0.020859 -0.010092,-0.027812 -0.00402,-0.014909 -0.013973,-0.038509 -0.030686,-0.073375 -0.00669,-0.013906 -0.0121,-0.029282 -0.0121,-0.034097 0,-0.00468 -0.002,-0.00876 -0.00468,-0.00876 -0.00267,0 -0.00602,-0.00682 -0.00795,-0.015176 -0.002,-0.00835 -0.00468,-0.015176 -0.00702,-0.015176 -0.002,0 -0.00682,-0.00795 -0.010627,-0.017717 -0.00402,-0.00976 -0.00876,-0.017717 -0.011037,-0.017717 -0.002,0 -0.00402,-0.00335 -0.00402,-0.00802 0,-0.00468 -0.00468,-0.00923 -0.010092,-0.010695 -0.013037,-0.00335 -0.076576,-0.099762 -0.072605,-0.1101052 0.00134,-0.00402 4.079e-4,-0.00762 -0.00267,-0.00762 -0.00335,0 -0.00535,-0.00335 -0.00535,-0.00762 0,-0.00402 -0.00468,-0.0115 -0.010092,-0.016313 -0.00535,-0.00468 -0.010092,-0.011037 -0.010092,-0.013906 0,-0.00267 -0.00795,-0.012569 -0.017717,-0.02146 -0.00969,-0.00895 -0.017717,-0.017984 -0.017717,-0.020123 0,-0.00535 -0.1124581,-0.117773 -0.1176125,-0.117773 -0.002,0 -0.011367,-0.00795 -0.020258,-0.017717 -0.00895,-0.00976 -0.018586,-0.017717 -0.02146,-0.017717 -0.00267,0 -0.010832,-0.00602 -0.017717,-0.013906 -0.00688,-0.00762 -0.019188,-0.017316 -0.027411,-0.02146 -0.00823,-0.00402 -0.019923,-0.012235 -0.026141,-0.017851 -0.00602,-0.00535 -0.01765,-0.013639 -0.025539,-0.017717 -0.00788,-0.00402 -0.015443,-0.00862 -0.016847,-0.010161 -0.00134,-0.00134 -0.013906,-0.0093 -0.027813,-0.017249 -0.013906,-0.00795 -0.026408,-0.016045 -0.027812,-0.017984 -0.00134,-0.002 -0.011037,-0.00669 -0.021461,-0.010297 -0.010434,-0.00402 -0.018986,-0.00842 -0.018986,-0.010434 0,-0.002 -0.00669,-0.00535 -0.014842,-0.00688 -0.00816,-0.002 -0.017382,-0.00669 -0.020592,-0.010161 -0.00335,-0.00402 -0.012168,-0.00835 -0.020057,-0.010092 -0.00788,-0.002 -0.022998,-0.00755 -0.033562,-0.01297 -0.010559,-0.00535 -0.023333,-0.00983 -0.02828,-0.00983 -0.00468,0 -0.00902,-0.002 -0.00902,-0.00468 0,-0.00267 -0.00909,-0.00602 -0.02019,-0.00802 -0.011094,-0.002 -0.021394,-0.00535 -0.022864,-0.00769 -0.00134,-0.00267 -0.015645,-0.00716 -0.031623,-0.010627 -0.015912,-0.00335 -0.030219,-0.00816 -0.03169,-0.010297 -0.00134,-0.002 -0.020859,-0.00602 -0.042988,-0.00883 -0.022129,-0.00267 -0.065251,-0.00976 -0.095844,-0.015711 -0.045797,-0.00889 -0.080421,-0.01123 -0.1961949,-0.013237 -0.087053,-0.00134 -0.1505792,-4.347e-4 -0.166825,0.00267 -0.014441,0.00267 -0.052415,0.010092 -0.084385,0.016045 -0.3997705,0.074437 -0.7460164,0.3540344 -0.9090173,0.7340558 -0.041517,0.096841 -0.078636,0.2358203 -0.089801,0.336398 l -0.00335,0.032091 -0.017517,-0.017517 -0.017584,-0.017584 0.00602,-0.037305 C 4.8879324,4.7432736 4.9707799,4.5483758 5.1039297,4.3733609 5.1858413,4.2656896 5.3280235,4.1372264 5.4485844,4.0619604 c 0.093317,-0.058232 0.232698,-0.118328 0.3408305,-0.1468821 0.3567221,-0.0942 0.7313883,-0.034096 1.0362103,0.1662768 0.3252398,0.2137712 0.5352403,0.5604918 0.5746383,0.9487564 0.0093,0.091431 0.00402,0.2447923 -0.012235,0.336291 C 7.3512316,5.5779004 7.2661577,5.7699301 7.1327604,5.9427254 7.0932487,5.993937 6.9768997,6.1116432 6.9272326,6.1507003 6.7204144,6.3133201 6.497611,6.4031943 6.2381974,6.4286396 6.1556305,6.4367291 5.9988739,6.4313138 5.9190348,6.4181432 5.7852298,6.3956128 5.6765291,6.3606473 5.5572249,6.3017674 5.4225708,6.2353128 5.318082,6.1604411 5.2134127,6.0553907 5.0081523,5.8493815 4.8863545,5.5991138 4.8470968,5.3026755 c -0.00983,-0.07407 -0.013772,-0.061842 -0.00535,0.015711 0.032291,0.2892915 0.192451,0.5940198 0.4163173,0.7920666 0.2882419,0.2549878 0.6411932,0.3654 1.0218296,0.319664 z M 5.9892868,3.9178593 c 0,0 -0.4861615,0.1823088 -0.4754379,0.2180566 0.010695,0.035768 0.032158,0.1322674 0.032158,0.1322674 0,0 0.4253897,-0.3253 1.0009173,-0.3360235 C 7.1224447,3.9214644 5.9892736,3.9178531 5.9892736,3.9178531 Z M 6.8708866,4.402249 c -0.5798732,0.00267 -1.0889462,0.3663828 -1.0889462,0.3663828 0,0 -0.056626,0.080614 -0.1075712,0.1630612 l 0.065787,0.085943 C 5.7737846,4.9886207 5.8119181,4.9545241 5.860603,4.9080597 6.4003828,4.393304 7.1939468,4.5291415 7.1939468,4.5291415 c 0,0 0.4986569,0.00795 -0.071482,-0.1036868 C 7.0380125,4.4089414 6.9537409,4.4019215 6.8708999,4.4022557 Z M 5.0475102,4.2594519 c -0.025137,-0.018519 -0.069864,0.551406 -0.069864,0.551406 0,0 0.076169,0.8315115 1.0041998,1.3160283 0.049273,0.025739 0.090978,0.046933 0.1306027,0.066922 l 0.067177,-0.078822 C 6.1145757,6.0681872 6.061525,6.0319852 6.061525,6.0319852 c 0,0 -0.9972936,-0.4976339 -0.9972936,-1.4110169 0,-0.2568865 -0.00688,-0.3542552 -0.016714,-0.3615157 z M 7.031728,5.046638 6.9041138,5.0850798 c 6.686e-4,0.032291 0.002,0.065585 0.00402,0.1053912 0.039311,0.7864307 -0.3896686,1.1438882 -0.3896686,1.1438882 0,0 -0.046464,0.1751486 0.2430741,-0.1179737 0.2895455,-0.2931289 0.2967258,-1.0759828 0.2967258,-1.0759828 0,0 -0.010968,-0.041919 -0.026408,-0.093751 z m 4.340207,1.5910728 c 0,0 -2.5125184,-2.087871 -4.2920106,-2.7096827 -1.7794922,-0.6218118 0.2527681,0.2881548 0.2527681,0.2881548 0,0 2.3950061,1.1034137 3.7915285,2.4720775 0.998491,0.9785807 0.247714,-0.050542 0.247714,-0.050542 z M 9.9867646,2.2648113 c 0,0 -4.529616,1.4559439 -4.3122346,1.5368327 0.2173814,0.080882 4.474005,-1.5621108 4.706556,-1.4711135 0.232545,0.090997 -0.3943214,-0.065719 -0.3943214,-0.065719 z M 6.8044052,2.0221518 c 0,0 -1.5444208,1.5191426 -1.7693836,2.1232576 -0.2249629,0.6041151 0.399376,-0.3665165 0.399376,-0.3665165 0,0 1.2385693,-1.6000246 1.7112459,-1.8351027 0.4726767,-0.2350714 -0.3412383,0.078362 -0.3412383,0.078362 z M 4.7167148,4.7982022 c -0.00134,-0.00468 -4.145e-4,-0.00876 0.00983,-0.046131 0.061641,-0.2249761 0.1744667,-0.4315069 0.3303876,-0.6046833 0.019121,-0.021193 0.064315,-0.068253 0.065652,-0.068253 4.947e-4,0 -0.00134,0.00267 -0.00468,0.00602 -0.00862,0.00936 -0.010365,0.015443 -0.00335,0.011298 0.002,-0.00134 0.00335,-0.002 0.00402,-0.002 2.808e-4,0 -0.00829,0.00895 -0.019054,0.019856 -0.112639,0.1144437 -0.1900642,0.2227566 -0.261767,0.3661822 -0.04827,0.09658 -0.086819,0.1991633 -0.1126254,0.2998279 -0.00267,0.010832 -0.00535,0.02019 -0.00602,0.020859 -6.685e-4,6.684e-4 -0.00134,4.211e-4 -0.002,-0.00267 z M 5.1411884,4.0725367 c 0,-2.741e-4 0.00134,-0.002 0.00267,-0.00402 0.00267,-0.00335 0.00335,-0.00702 0.002,-0.00702 -4.412e-4,0 -0.00267,0.00134 -0.00535,0.00335 -0.00267,0.002 -0.00468,0.00267 -0.00535,0.00267 -6.685e-4,-6.686e-4 0.041717,-0.039044 0.064516,-0.058365 0.2308395,-0.1958873 0.5209465,-0.3164951 0.8217305,-0.341626 0.03276,-0.00267 0.046933,-0.00335 0.086465,-0.00468 0.07435,-0.002 0.1568502,0.00267 0.2352586,0.013171 0.027076,0.00402 0.027678,0.00402 0.027678,0.00602 v 0.002 L 6.3603154,3.682702 C 6.3296289,3.6780256 6.2806101,3.6724731 6.2430237,3.6699996 5.9810362,3.65235 5.7048285,3.7103802 5.4753596,3.8312222 5.3596189,3.8921947 5.2496145,3.9709506 5.1543049,4.061139 c -0.00723,0.00688 -0.01317,0.012235 -0.01317,0.011967 z m -0.017717,0.00716 c 0.00942,-0.00976 0.019455,-0.017717 0.022196,-0.017717 0.00267,0 -0.00267,0.00795 -0.012101,0.017717 -0.00942,0.00976 -0.019388,0.017717 -0.022196,0.017717 -0.00267,0 0.00267,-0.00795 0.0121,-0.017717 z m 0.3865398,-0.062109 c -0.017584,0.00942 -0.0353,0.018719 -0.052348,0.028948 -0.014909,0.00895 -0.029417,0.018386 -0.043925,0.027878 6.7e-6,0.00335 -2e-5,0.00602 0,0.00956 0.031221,-0.020592 0.063446,-0.039913 0.097757,-0.058165 -3.811e-4,-0.002 -0.00134,-0.00602 -0.00134,-0.00823 z m 0.00809,0.04974 c -0.035901,0.019923 -0.070539,0.041919 -0.1043285,0.065318 7.35e-5,0.00675 -7.35e-5,0.010627 0,0.017584 C 5.4244681,5.0188756 6.264552,5.4692893 6.264552,5.4692893 6.2502452,6.0448074 5.7319123,6.3307694 5.7319123,6.3307694 L 5.7312437,6.331438 C 5.7906791,6.3508933 5.8522459,6.3658691 5.915458,6.3769 6.0283644,6.2726592 6.1328862,6.1679826 6.2190164,6.0666026 c -0.00134,-0.00134 6.552e-4,-0.00335 0.00669,-0.00762 2.139e-4,-1.404e-4 4.546e-4,-3.811e-4 6.686e-4,-5.549e-4 0.00602,-0.00728 0.012301,-0.014574 0.018251,-0.021862 C 6.3164119,5.9249017 6.4266436,5.4906137 6.4348936,5.457861 6.413834,5.4234303 6.3828799,5.3923424 6.3400788,5.365473 5.5382112,4.8613273 5.5214572,4.0857006 5.5214572,4.0857006 c 0,0 -0.002,-0.013906 -0.00267,-0.018519 z m 0.1804169,2.2936998 -0.00862,0.00782 c 0.053485,0.018853 0.1174721,0.0355 0.1824693,0.048136 0.00267,-0.002 0.00468,-0.00468 0.00702,-0.00669 -0.061178,-0.0121 -0.121729,-0.028613 -0.1808495,-0.049405 z M 5.5480392,6.497303 5.6274567,6.5309318 C 5.6005135,6.5204299 5.5740391,6.5091372 5.5480392,6.497303 Z m 0.398868,0.117305 C 5.8598742,6.6053794 5.7191228,6.5668036 5.6044519,6.5208136 5.0788923,6.3099239 4.7220499,5.8127178 4.6837816,5.2380192 c -0.00535,-0.081403 -0.00267,-0.2339148 0.00535,-0.2938376 0.00749,-0.056159 0.024202,-0.1354631 0.029217,-0.1387858 0.002,-0.00134 0.0093,-0.021996 0.015578,-0.045462 C 4.7833962,4.575138 4.8851511,4.3741429 5.0053911,4.2237911 5.0491816,4.1690367 5.1679375,4.0496854 5.2277265,4.0003593 5.4419456,3.8236128 5.6876136,3.7183083 5.9753006,3.6799399 c 0.079345,-0.010559 0.2537309,-0.012035 0.3286026,-0.00267 0.2703378,0.033562 0.5218892,0.1384583 0.7319832,0.3052232 0.065318,0.05188 0.1791668,0.1633084 0.2327783,0.2278911 0.1165964,0.1404773 0.201911,0.2923334 0.258618,0.4603551 0.047868,0.1418612 0.06104,0.2109834 0.069129,0.363274 0.00716,0.1349149 -2.808e-4,0.3199783 -0.016112,0.4006197 C 7.5457347,5.6105567 7.4654077,5.8052941 7.361554,5.9649389 7.1948025,6.2212703 6.934961,6.4283226 6.6451481,6.5357998 c -0.1278483,0.047401 -0.2265407,0.07056 -0.3364716,0.078917 -0.080681,0.00602 -0.3038391,0.00602 -0.3617897,-2.01e-5 z M 6.2862332,6.429843 C 6.4881175,6.4042372 6.6664284,6.3387588 6.8289011,6.2304858 7.0095118,6.1101255 7.1406895,5.9705508 7.2458335,5.786858 7.4543966,5.4224876 7.4670458,4.9589166 7.2787265,4.5822314 7.2140102,4.452772 7.1367517,4.3459232 7.0321559,4.2411401 6.792652,4.0012284 6.5034742,3.8777459 6.1548149,3.8665141 6.0965836,3.8645084 6.037443,3.8658455 5.9980984,3.8698569 5.504683,3.9171907 5.0859055,4.2373695 4.9097138,4.7019232 c -0.02594,0.06844 -0.050275,0.1558408 -0.061106,0.2198016 -0.00862,0.051011 -0.015978,0.192511 -0.00942,0.183198 0.00267,-0.00402 0.010092,-0.00535 0.020525,-0.00335 l 0.016112,0.00335 v 0.063848 c 0,0.2698432 0.1001971,0.5475753 0.276522,0.7664943 0.078261,0.097168 0.1936743,0.1993171 0.3038859,0.268954 0.055156,0.034899 0.1699005,0.090964 0.2357869,0.1152927 0.060571,0.022397 0.1675805,0.049874 0.2373913,0.060973 0.079519,0.012702 0.2590458,0.015443 0.3366386,0.00535 0.063914,-0.00842 0.1537481,-0.025339 0.1769404,-0.033294 0.00695,-0.00267 0.029684,-0.00942 0.050542,-0.015645 0.020859,-0.00602 0.053819,-0.017851 0.073301,-0.025874 0.019455,-0.00802 0.035968,-0.014441 0.036703,-0.014241 0.00335,6.686e-4 0.1477913,-0.071127 0.1731028,-0.086364 0.00402,-0.00267 0.013237,-0.00735 0.02019,-0.010832 0.013572,-0.00669 0.014842,-0.00755 0.037907,-0.025606 0.00835,-0.00669 0.019121,-0.013304 0.024001,-0.015109 0.00468,-0.002 0.00883,-0.00535 0.00883,-0.00842 0,-0.00267 0.00335,-0.00535 0.00735,-0.00535 0.00402,0 0.00916,-0.00267 0.011367,-0.00602 0.002,-0.00335 0.013171,-0.013037 0.024268,-0.021193 0.011094,-0.00816 0.022062,-0.017851 0.024268,-0.02146 0.002,-0.00335 0.00669,-0.00669 0.0093,-0.00669 0.00602,0 0.1256955,-0.1183614 0.1256955,-0.1239772 0,-0.002 0.00795,-0.011367 0.017717,-0.021127 0.00976,-0.00976 0.017717,-0.019188 0.017717,-0.020993 1.33e-5,-0.002 0.00602,-0.010092 0.013906,-0.018452 0.016847,-0.018386 0.041652,-0.055958 0.041652,-0.063112 0,-0.00267 0.002,-0.00535 0.00535,-0.00535 0.00267,0 0.00735,-0.00602 0.00997,-0.012635 0.00267,-0.00695 0.00716,-0.012635 0.00996,-0.012635 0.00267,0 0.00535,-0.00335 0.00535,-0.00695 0,-0.00402 0.00335,-0.00969 0.00735,-0.013037 0.00402,-0.00335 0.010024,-0.014441 0.013371,-0.024603 0.00335,-0.010229 0.00795,-0.01979 0.010297,-0.021327 0.00709,-0.00468 0.043389,-0.077706 0.047133,-0.094915 0.002,-0.00883 0.00535,-0.016045 0.00795,-0.016045 0.00267,0 0.00602,-0.00795 0.00776,-0.017717 0.002,-0.00976 0.00535,-0.017717 0.00742,-0.017717 0.002,0 0.00695,-0.012502 0.010365,-0.027812 0.00335,-0.01531 0.00782,-0.027811 0.00976,-0.027811 0.002,0 0.00669,-0.014241 0.010092,-0.031623 0.00335,-0.017382 0.00829,-0.033896 0.010502,-0.03677 0.002,-0.00267 0.00535,-0.017048 0.00749,-0.031623 0.002,-0.014508 0.00535,-0.026408 0.00728,-0.026408 0.002,0 0.00669,-0.026742 0.010229,-0.059434 0.00335,-0.032693 0.00816,-0.061708 0.010297,-0.064449 0.00535,-0.00702 0.0119,-0.174186 0.00769,-0.1965559 -0.002,-0.010092 -0.00669,-0.018319 -0.010092,-0.018319 -0.00468,0 -0.00762,-0.013104 -0.010092,-0.045595 -0.002,-0.025072 -0.00468,-0.048938 -0.00602,-0.053083 -0.002,-0.00468 1.804e-4,-0.00749 0.00535,-0.00749 0.00669,0 0.00788,-0.00335 0.00602,-0.013906 -0.00134,-0.00762 -0.00402,-0.02701 -0.00602,-0.043054 -0.002,-0.016045 -0.00535,-0.030286 -0.00742,-0.03169 -0.002,-0.00134 -0.00535,-0.015043 -0.00755,-0.030286 -0.002,-0.015243 -0.00535,-0.027745 -0.00762,-0.027745 -0.002,0 -0.00602,-0.010832 -0.00755,-0.024001 -0.002,-0.013237 -0.00669,-0.030821 -0.010024,-0.039178 -0.00335,-0.00835 -0.00816,-0.020859 -0.010092,-0.027812 -0.00402,-0.014909 -0.013973,-0.038509 -0.030686,-0.073375 -0.00669,-0.013906 -0.0121,-0.029282 -0.0121,-0.034097 0,-0.00468 -0.002,-0.00876 -0.00468,-0.00876 -0.00267,0 -0.00602,-0.00682 -0.00795,-0.015176 -0.002,-0.00835 -0.00468,-0.015176 -0.00702,-0.015176 -0.002,0 -0.00682,-0.00795 -0.010627,-0.017717 -0.00402,-0.00976 -0.00883,-0.017717 -0.011037,-0.017717 -0.002,0 -0.00402,-0.00335 -0.00402,-0.00802 0,-0.00468 -0.00468,-0.00923 -0.010092,-0.010695 -0.013037,-0.00335 -0.076576,-0.099769 -0.072612,-0.1101108 0.00134,-0.00402 4.145e-4,-0.00762 -0.00267,-0.00762 -0.00335,0 -0.00535,-0.00335 -0.00535,-0.00762 0,-0.00402 -0.00468,-0.011566 -0.010092,-0.016313 -0.00535,-0.00468 -0.010092,-0.011037 -0.010092,-0.013906 0,-0.00267 -0.00795,-0.012569 -0.017717,-0.02146 -0.00976,-0.00895 -0.017717,-0.017984 -0.017717,-0.020123 0,-0.00535 -0.1124513,-0.117773 -0.1176058,-0.117773 -0.002,0 -0.011367,-0.00795 -0.020258,-0.017717 -0.00895,-0.00969 -0.018586,-0.017717 -0.02146,-0.017717 -0.00267,0 -0.010832,-0.00602 -0.017717,-0.013906 -0.00688,-0.00762 -0.019188,-0.017315 -0.027411,-0.021461 -0.00816,-0.00402 -0.019923,-0.012235 -0.026141,-0.017851 -0.00602,-0.00535 -0.01765,-0.013639 -0.025539,-0.017717 -0.00788,-0.00402 -0.015443,-0.00862 -0.016847,-0.010161 -0.00134,-0.00134 -0.013906,-0.0093 -0.027813,-0.017249 -0.013906,-0.00795 -0.026408,-0.016045 -0.027812,-0.017984 -0.00134,-0.002 -0.011037,-0.00669 -0.02146,-0.010297 -0.010434,-0.00402 -0.018987,-0.00842 -0.018987,-0.010434 0,-0.002 -0.00669,-0.00535 -0.014843,-0.00688 -0.00816,-0.002 -0.017382,-0.00669 -0.020592,-0.010161 -0.00335,-0.00402 -0.012168,-0.00835 -0.020057,-0.010092 -0.00788,-0.002 -0.022998,-0.00755 -0.033562,-0.01297 -0.010559,-0.00535 -0.023333,-0.00983 -0.02828,-0.00983 -0.00468,0 -0.00902,-0.002 -0.00902,-0.00468 0,-0.00267 -0.00788,-0.00602 -0.017516,-0.00776 -0.00963,-0.002 -0.023801,-0.00669 -0.031489,-0.010502 -0.00769,-0.00402 -0.023733,-0.00869 -0.035568,-0.010502 -0.0119,-0.002 -0.021594,-0.00535 -0.021594,-0.00735 0,-0.002 -0.013104,-0.00535 -0.029082,-0.00728 -0.015978,-0.002 -0.05295,-0.00755 -0.082146,-0.01297 -0.089923,-0.016581 -0.140225,-0.020793 -0.245242,-0.020392 -0.1156135,4.346e-4 -0.12024,6.686e-4 -0.2022185,0.015176 C 5.6286469,3.979761 5.3916768,4.1098756 5.1963779,4.3223164 5.0322003,4.5009014 4.9219083,4.7346892 4.8879991,4.9759916 l -0.00876,0.062176 -0.017048,-0.017582 -0.017049,-0.017584 0.011367,-0.064783 C 4.8849906,4.7755781 4.9418715,4.6242569 5.027166,4.4841406 5.1237391,4.3254987 5.2782493,4.169765 5.4429819,4.0650488 c 0.05061,-0.032158 0.1775955,-0.094099 0.2394104,-0.1167701 0.14735,-0.054019 0.3339109,-0.083296 0.4860344,-0.076236 0.3335366,0.01551 0.6312585,0.1457721 0.8620512,0.3772735 0.1935406,0.1941424 0.3184939,0.4417693 0.3621173,0.7176161 0.01297,0.082052 0.013104,0.2864366 2.14e-4,0.3690436 C 7.3503557,5.6083799 7.2345616,5.8435116 7.0461221,6.0399337 6.6850008,6.4163648 6.1324717,6.5352878 5.6441642,6.341687 5.4117068,6.2495264 5.2028362,6.0808293 5.0593102,5.8693178 4.9286875,5.6768268 4.8570383,5.4665122 4.8397226,5.224755 c -0.00134,-0.014441 -0.002,-0.0093 -0.00267,0.014106 -0.002,0.081986 0.019188,0.2014431 0.054956,0.3105984 0.1628539,0.4968985 0.6121778,0.8510801 1.1271407,0.8884725 0.072131,0.00535 0.1911272,0.00134 0.2679311,-0.00809 z M 4.8339931,5.1376822 c -0.00134,-0.0119 -0.002,-0.00335 -0.002,0.018853 -2.01e-5,0.022263 6.685e-4,0.031957 0.002,0.021594 0.00134,-0.010365 0.00134,-0.028547 4e-5,-0.040448 z m 0.017784,-0.042854 c -0.010229,-0.002 -0.011367,-0.00535 -0.011298,-0.030887 3.34e-5,-0.015778 0.00134,-0.033962 0.00335,-0.040448 l 0.00335,-0.0117 0.015778,0.015243 c 0.014508,0.014039 0.015645,0.017517 0.014039,0.043323 -0.00134,0.017382 -0.00402,0.027812 -0.00755,0.027344 -0.00335,-3.877e-4 -0.010968,-0.002 -0.017249,-0.00267 z m -2.6811353,1.5346332 -0.00723,0.034698 c -0.063442,0.2968862 -0.1049656,0.5985793 -0.1218533,0.90171 3.209e-4,0.2302244 -6.618e-4,0.4605022 4.613e-4,0.6907065 0.028213,0.5022938 0.1219449,1.0005296 0.2757465,1.4794715 V 6.9663468 H 3.247968 V 11.435304 H 3.187463 c 0.092261,0.125676 0.1875905,0.249085 0.2893515,0.367193 h 9.0270535 c 0.309376,-0.356709 0.575241,-0.750818 0.791754,-1.170411 h -0.403489 v -0.465081 h 0.409499 v 0.453522 c 0.04359,-0.08491 0.08586,-0.170482 0.125274,-0.257408 0.05496,-0.12024 0.104666,-0.242806 0.152611,-0.3659947 H 13.48393 V 9.6193489 h 0.223198 c 0.02614,-0.089272 0.04868,-0.179527 0.07186,-0.2696022 H 13.480096 V 8.9719786 h 0.383699 c 0.0074,-0.017449 -0.01885,-0.00842 -0.02888,-0.012168 -0.0082,-0.00402 -0.0381,0.00468 -0.02648,-0.00997 0.0107,-0.020325 0.02132,-0.040648 0.03203,-0.060973 0.0083,0.024068 0.01678,0.048069 0.02513,0.072124 0.01912,-0.1202334 0.03684,-0.2407007 0.05261,-0.3614288 0.01304,-0.1090151 0.02548,-0.2182973 0.03022,-0.3279942 -3.07e-4,-0.1906324 6.69e-4,-0.3813116 -5.14e-4,-0.571924 -0.01377,-0.3600315 -0.06137,-0.7185586 -0.139555,-1.0702265 z m 2.932633,0.5290156 h 0.409498 v 0.465075 h -0.409498 z m 0.545984,0 H 6.0587632 V 7.623552 H 5.6492586 Z m 0.5510248,0 H 6.5946052 V 7.6286263 H 6.2002834 Z M 4.5219239,7.1685691 H 4.9566733 V 7.628613 H 4.5219239 Z m 2.2142416,0 H 7.1405893 V 7.628613 H 6.7361655 Z m 0.5409097,0.00535 H 7.6612884 V 7.6238528 H 7.2770752 Z m 1.7345785,0.002 H 9.4211584 V 7.6410482 H 9.0116537 Z m 0.5459907,0 H 9.9671023 V 7.6410482 H 9.5576444 Z m 0.5510186,0 h 0.394321 v 0.4701631 h -0.394321 z m 2.195094,0.00468 h 0.434796 v 0.4600581 h -0.434796 z m -0.606642,0.00535 h 0.470156 V 7.6409278 H 11.697115 Z M 8.430303,7.1860904 H 8.8650592 V 7.646138 H 8.430303 Z m 2.214242,0 h 0.40443 V 7.646138 h -0.40443 z m -2.8208774,0.00535 H 8.293777 v 0.454983 H 7.8236676 Z m 3.3617934,0 h 0.384206 v 0.449951 h -0.384206 z m 1.743357,0.023266 h 0.322151 v 0.377787 h -0.322151 z m 0.54599,0 h 0.322112 v 0.377775 h -0.322112 z m -9.5158495,0.00335 h 0.3828026 v 0.3676598 c -0.1276008,0 -0.2552017,0 -0.3828026,0 z M 12.839338,7.7189216 H 13.33615 V 8.2713907 H 12.839338 V 7.7625918 Z m -7.7381961,0.031623 h 0.409498 v 0.4650751 h -0.409498 z m 0.545984,0 h 0.4094646 v 0.465075 H 5.6471259 Z m 0.5510248,0 H 6.5924725 V 8.220694 H 6.1981507 Z M 4.5197912,7.7606368 H 4.9545406 V 8.2206806 H 4.5197912 Z m 2.2142416,0 H 7.1384566 V 8.2206806 H 6.7340328 Z m -2.8209239,0.00535 H 4.3832651 V 8.2210016 H 3.9131089 Z m 3.3618336,0 H 7.6591557 V 8.2159272 H 7.2749425 Z m 1.7345785,0.002 H 9.418979 V 8.2331157 H 9.009521 Z m 0.5459907,0 H 9.9649696 V 8.2331157 H 9.5555117 Z m 0.5510183,0 h 0.394322 V 8.2381433 H 10.10653 Z m 2.195094,0.00468 h 0.434749 v 0.4600476 h -0.434749 z m -0.606642,0.00535 h 0.470156 v 0.454972 H 11.694982 Z M 8.4281303,7.7781514 H 8.8629265 V 8.238199 H 8.4281303 Z m 2.2142817,0 h 0.40443 V 8.238199 h -0.40443 z m -2.820924,0.00535 H 8.2916443 V 8.2384842 H 7.821488 Z m 3.36184,0 h 0.384207 V 8.23345 h -0.384207 z m 2.289348,0.023266 h 0.32211 v 0.3777802 h -0.32211 z M 5.1106956,8.3262257 H 5.5201535 V 8.7913076 H 5.1106956 Z m 0.5459839,0 H 6.0661442 V 8.7913076 H 5.6566795 Z m 0.5510249,0 H 6.6020263 V 8.796382 H 6.2077044 Z M 4.5293048,8.336318 H 4.964101 V 8.7963656 H 4.5293048 Z m 2.2142817,0 H 7.1480102 V 8.7963656 H 6.7435865 Z m 6.1489815,0.002 h 0.409459 V 8.803446 H 12.892568 Z M 3.9226627,8.341668 H 4.3928188 V 8.7966828 H 3.9226627 Z m 3.3618335,0 H 7.6687094 V 8.7916085 H 7.2844962 Z m 1.7345785,0.002 H 9.4285326 V 8.808797 H 9.0190747 Z m 0.5459439,0 H 9.9745233 V 8.808797 H 9.5650186 Z m 0.5510654,0 h 0.394321 v 0.4701631 h -0.394321 z m 2.195093,0.00468 h 0.43475 v 0.4600581 h -0.43475 z m -0.606642,0.00535 h 0.470156 V 8.8086768 H 11.704535 Z M 8.4376839,8.3538506 H 8.8724334 V 8.8138914 H 8.4376839 Z m 2.2142821,0 h 0.40443 v 0.4600408 h -0.40443 z m -2.8209242,0.00535 H 8.301198 v 0.454965 H 7.8310418 Z m 3.3618402,0 h 0.384207 V 8.809138 h -0.384207 z m 2.289307,0.023266 H 13.80434 V 8.760233 H 13.482189 Z M 5.1085629,8.9179724 H 5.5180208 V 9.3830547 H 5.1085629 Z m 0.5459439,0 H 6.0640115 V 9.3830547 H 5.6545068 Z m 0.5510649,0 H 6.5998936 V 9.3881282 H 6.2055717 Z M 4.5271721,8.9280648 H 4.9619215 V 9.3881156 H 4.5271721 Z m 2.2142417,0 H 7.1458775 V 9.3881156 H 6.7414138 Z m 6.1489752,0.002 h 0.409505 V 9.395195 H 12.890389 Z M 3.92053,8.9334124 H 4.3906861 V 9.3884297 H 3.92053 Z m 3.3618401,0 H 7.6665767 V 9.3833551 H 7.2823701 Z m 1.7345317,0.002 H 9.4263999 V 9.400537 H 9.0169018 Z m 0.5459841,0 H 9.9723906 V 9.400537 H 9.5628859 Z m 0.5510651,0 h 0.394322 v 0.4701568 h -0.394322 z m 2.195094,0.00468 h 0.43475 v 0.460054 h -0.43475 z m -0.606642,0.00535 h 0.470156 V 9.4004232 H 11.702403 Z M 8.4355512,8.9455973 H 8.8703073 V 9.4056446 H 8.4355512 Z m 2.2142418,0 h 0.404424 v 0.4600473 h -0.404424 z m -2.8208839,0.00535 H 8.2990653 V 9.4059188 H 7.8289091 Z m 3.3618399,0 h 0.384207 V 9.4008852 H 11.190749 Z M 5.1124003,9.5658631 h 0.409458 v 0.4650759 h -0.409458 z m 0.5459439,0 H 6.0678489 V 10.030939 H 5.6583442 Z m 0.5510651,0 H 6.603731 V 10.036013 H 6.2094093 Z M 4.5310096,9.5759895 H 4.965759 V 10.03603 H 4.5310096 Z m 2.2142416,0 H 7.149675 V 10.03603 H 6.7452512 Z m 6.1489818,0.00205 h 0.409498 v 0.4651215 h -0.409498 z m -8.9698656,0.0033 H 4.3945237 V 10.03635 H 3.9243674 Z m 3.3618403,0 H 7.6704142 V 10.031275 H 7.2862077 Z m 1.7345317,0.00205 H 9.4302441 V 10.048501 H 9.0207394 Z m 0.5459907,0 h 0.409498 v 0.4651155 h -0.409498 z m 0.5510649,0 h 0.394315 v 0.4701495 h -0.394315 z m 2.195088,0.00466 h 0.434749 V 10.04805 h -0.434749 z m -0.606643,0.00535 h 0.470157 V 10.048371 H 11.70624 Z M 8.4393887,9.5935447 H 8.8741449 V 10.053592 H 8.4393887 Z m 2.2142413,0 h 0.404424 V 10.053592 H 10.65363 Z m -2.8208834,0.00535 H 8.3029028 V 10.053865 H 7.8327466 Z m 3.3618404,0 h 0.384167 V 10.048832 H 11.194587 Z M 5.1102209,10.157719 h 0.4095047 v 0.465083 H 5.1102209 Z m 0.5459906,0 h 0.4095047 v 0.465083 H 5.6562115 Z m 0.5510249,0 h 0.3943152 v 0.470156 H 6.2072364 Z m -1.6783595,0.01013 h 0.4347494 v 0.460047 H 4.5288769 Z m 2.2142416,0 h 0.4044238 v 0.460047 H 6.7431185 Z m -2.8208838,0.0053 H 4.392391 v 0.454975 H 3.9222347 Z m 3.3617935,0 h 0.3842132 v 0.4499 H 7.2840282 Z m 1.7345785,0.002 h 0.409498 v 0.465122 h -0.409498 z m 0.5459907,0 h 0.409498 v 0.465122 h -0.409498 z m 0.5510186,0 h 0.394321 v 0.470155 h -0.394321 z m 2.195134,0.0047 h 0.434749 v 0.460007 H 12.31075 Z m -0.606682,0.0053 h 0.470149 v 0.454973 h -0.470149 z m -3.266812,1.47e-4 h 0.4347562 v 0.460048 H 8.437256 Z m 2.214242,0 h 0.40443 v 0.460048 h -0.40443 z m -2.8208841,0.0053 H 8.30073 v 0.454966 H 7.8306139 Z m 3.3618001,0 h 0.384206 v 0.449939 h -0.384206 z m -6.0869265,0.59993 H 5.5149922 V 11.2556 H 5.1054875 Z m 0.5459907,0 H 6.0609361 V 11.2556 H 5.6514782 Z m 0.5510249,0 h 0.3943151 v 0.470149 H 6.2025031 Z m -1.6784064,0.01013 h 0.4347962 v 0.459899 H 4.5240967 Z m 2.2142885,0 h 0.4044236 v 0.459899 H 6.7383852 Z m -2.820924,0.0053 H 4.3876107 V 11.26116 H 3.9174612 Z m 3.3618335,0 h 0.3842132 v 0.449932 H 7.2792947 Z m 1.7345787,0.002 h 0.4094579 v 0.465121 H 9.0138734 Z m 0.5459839,0 h 0.4094646 v 0.465121 H 9.5598573 Z m 0.5510247,0 h 0.394322 v 0.470156 h -0.394322 z m 2.195088,0.0047 h 0.434756 v 0.460047 H 12.30597 Z m -0.606635,0.0053 h 0.470149 v 0.454974 h -0.470149 z m -3.2668524,1.07e-4 h 0.4347493 v 0.460041 H 8.4324826 Z m 2.2142814,0 h 0.404424 v 0.460041 h -0.404424 z m -2.8209237,0.0053 h 0.4701563 v 0.454968 H 7.8258403 Z m 3.3618407,0 h 0.384206 v 0.449933 H 11.187681 Z M 7.9732439,0.00375725 A 7.9000673,7.9000673 0 0 0 0.07317001,7.9000605 7.9000673,7.9000673 0 0 0 7.9732306,15.800122 7.9000673,7.9000673 0 0 0 15.873292,7.9000605 7.9000673,7.9000673 0 0 0 7.9732306,0 Z M 7.9573991,0.28973941 A 7.6268754,7.6197258 0 0 1 15.584274,7.9094472 7.6268754,7.6197258 0 0 1 7.9573991,15.529202 7.6268754,7.6197258 0 0 1 0.33052438,7.9094472 7.6268754,7.6197258 0 0 1 7.9573991,0.28973941 Z M 7.3439777,4.9733641 c -0.095309,0.013505 -0.1902647,0.036102 -0.2819708,0.063112 l -0.020123,0.00688 1.404e-4,6.685e-4 -0.1518828,0.051813 -3.478e-4,-6.686e-4 -0.02828,0.00963 1.738e-4,-0.00134 C 6.5791349,5.2104853 6.3681182,5.337758 6.3681182,5.337758 c 0,0 -0.060571,0.091773 -0.1115751,0.1816537 l 0.00468,-0.002 -0.027143,0.1566631 C 6.2733902,5.6482595 6.3406538,5.5885104 6.4487862,5.4777773 6.7183886,5.2016965 7.0703171,5.1056516 7.3535247,5.0783811 Z M 8.0004007,1.7677055 A 6.1413177,6.1270197 0 0 0 1.859087,7.8947255 6.1413177,6.1270197 0 0 0 8.0004007,14.021739 6.1413177,6.1270197 0 0 0 14.141715,7.8947255 6.1413177,6.1270197 0 0 0 8.0004007,1.7677055 Z M 7.9880992,1.9895062 A 5.9289454,5.9095964 0 0 1 13.917045,7.8990911 5.9289454,5.9095964 0 0 1 7.9880992,13.808703 5.9289454,5.9095964 0 0 1 2.0591528,7.8990911 5.9289454,5.9095964 0 0 1 7.9880992,1.9895062 Z M 3.6335451,3.7035733 v 0.057162 H 3.454833 V 6.6705439 H 3.7443583 V 3.7607353 H 3.733663 v -0.057162 z m 0.044125,0.047468 0.00267,0.2578358 -0.1693255,-0.00267 0.00267,-0.082146 z M 3.5084646,4.3613066 h 0.171592 V 4.6937401 H 3.5084646 Z M 3.51916,5.0476676 H 3.6764597 V 5.3729275 H 3.5191616 Z m 0,0.6720272 H 3.6728763 V 6.069992 H 3.5191616 Z M 3.52251,6.4095924 H 3.686935 V 6.6205021 H 3.52251 Z" />
    <path
       style="fill:#001B30;fill-opacity:1;stroke-width:0.0025277"
       d="m 5.0299672,4.3215743 c 0,-0.00602 0.010695,-0.052482 0.013304,-0.057362 0.00267,-0.00468 0.00267,-0.00468 0.00602,0.00267 0.00134,0.00402 0.00402,0.013304 0.00468,0.020325 0.00134,0.012702 0.00134,0.01277 -0.011037,0.025205 -0.00695,0.00682 -0.012635,0.011037 -0.012635,0.00936 z"
       id="path25" />
    <path
       style="fill:#001B30;fill-opacity:1;stroke-width:0.0025277"
       d="M 6.0005988,6.6162702 C 5.9281673,6.6135959 5.870785,6.6034339 5.7693181,6.5756219 5.5616976,6.5186608 5.3699354,6.4176218 5.2043805,6.2780069 5.1656042,6.2453145 5.0725209,6.1525856 5.038966,6.1132343 4.9089116,5.9607163 4.8058936,5.7727715 4.7483175,5.5829748 4.6965712,5.4122721 4.6766214,5.2521525 4.6834005,5.0611725 c 0.00134,-0.043523 0.00402,-0.089313 0.00535,-0.1018276 0.00682,-0.060571 0.021661,-0.1342531 0.031556,-0.156496 0.00335,-0.00755 0.010627,-0.029484 0.01618,-0.048738 0.04506,-0.1556334 0.1138686,-0.3042069 0.202653,-0.4374304 0.049072,-0.073601 0.08385,-0.1150386 0.1685968,-0.2007542 0.033896,-0.034297 0.061842,-0.063312 0.062042,-0.064449 2.14e-4,-0.00134 0.00134,-0.002 0.002,-0.00134 6.686e-4,2.475e-4 0.0093,-0.00669 0.018987,-0.014842 0.00963,-0.00842 0.031155,-0.026809 0.047868,-0.040782 0.016714,-0.013972 0.030085,-0.026341 0.029751,-0.027411 -5.817e-4,-0.002 0.00883,-0.00816 0.012502,-0.00835 6.686e-4,-3.34e-5 0.012837,-0.00802 0.026341,-0.017784 0.013505,-0.00969 0.027278,-0.019188 0.030553,-0.020993 0.00335,-0.002 0.00535,-0.00468 0.00468,-0.00535 -6.686e-4,-0.00134 4.079e-4,-0.00267 0.00267,-0.00267 0.002,0 0.017449,-0.00835 0.033629,-0.018586 0.1216773,-0.076992 0.2598348,-0.1368002 0.4009805,-0.1735908 0.039311,-0.010229 0.1235294,-0.027678 0.1598788,-0.033094 0.0115,-0.002 0.020859,-0.00402 0.020859,-0.00468 0,-6.686e-4 0.0093,-0.00134 0.020592,-0.002 0.012903,-2.741e-4 0.021327,-0.00134 0.022464,-0.00335 0.00134,-0.002 0.00402,-0.002 0.00602,-0.00134 0.00267,6.685e-4 0.037707,3.61e-4 0.078615,-0.00134 0.1519097,-0.00602 0.2579161,0.00468 0.3940878,0.037974 0.2196278,0.05422 0.4305978,0.1635558 0.5973293,0.3096557 0.043323,0.037907 0.1447827,0.139334 0.1798552,0.1796881 0.1635559,0.1882122 0.2858951,0.4512494 0.3250659,0.6989097 0.016112,0.1016672 0.017316,0.3789851 0.002,0.4881472 C 7.5575683,5.5972083 7.4432317,5.8620372 7.3022531,6.0466727 7.2267258,6.1455921 7.1123226,6.259187 7.0129482,6.3339184 6.877084,6.4360942 6.7088483,6.5200581 6.5407262,6.5696115 c -0.089065,0.026274 -0.1493557,0.037974 -0.2217204,0.043056 -0.063246,0.00468 -0.244391,0.00669 -0.3184872,0.00402 z M 6.1813299,6.4392095 C 6.3520058,6.4300502 6.51026,6.3932796 6.6495673,6.3304686 6.7637769,6.2789229 6.8695962,6.2111579 6.9687499,6.125997 7.0050526,6.0948423 7.0783599,6.0202514 7.1105375,5.9817625 7.2834733,5.7749377 7.3850205,5.5274912 7.4087743,5.2550674 7.4127907,5.2104747 7.4127907,5.090736 7.408781,5.0490582 7.3924682,4.873943 7.3532239,4.731527 7.2808659,4.5852265 7.2505803,4.5239198 7.221498,4.474139 7.1875019,4.4251539 7.0783866,4.2680228 6.9406371,4.1390582 6.7753363,4.0392493 6.7021561,3.9950576 6.5740337,3.9389389 6.5036079,3.9202059 c -0.013171,-0.00334 -0.036503,-0.00969 -0.051813,-0.013772 -0.067444,-0.01785 -0.1579868,-0.032291 -0.2363416,-0.037773 -0.079531,-0.00535 -0.2183442,-0.002 -0.2818638,0.00749 -0.093424,0.013706 -0.1973582,0.041985 -0.2944528,0.080073 -0.042052,0.016513 -0.1507595,0.068266 -0.1483662,0.070667 6.686e-4,6.685e-4 0.00468,-5.817e-4 0.00936,-0.00267 0.00468,-0.002 0.00869,-0.00335 0.00949,-0.00267 0.002,0.002 0.00335,6.686e-4 -0.02467,0.016647 -0.025606,0.014374 -0.042721,0.025272 -0.039913,0.025272 6.686e-4,0 0.016847,-0.00862 0.035366,-0.019121 0.06017,-0.03423 0.1599122,-0.080086 0.219494,-0.1008855 0.1740723,-0.060772 0.3718917,-0.083155 0.5579177,-0.063112 0.438821,0.047201 0.8216235,0.3167625 1.0156655,0.7152293 0.062109,0.1275273 0.1041886,0.268633 0.1213833,0.4069575 0.00869,0.070118 0.00709,0.2432947 -0.00335,0.3218034 C 7.375547,5.4482538 7.3310211,5.5941129 7.272783,5.7128086 7.1989008,5.8634613 7.1027155,5.9898587 6.9721596,6.1078658 6.8062906,6.2577764 6.5909616,6.3649528 6.3694419,6.4078475 6.2758037,6.4259654 6.225127,6.4306453 6.1215876,6.4305784 5.9800005,6.4305449 5.8906144,6.4180763 5.757946,6.379768 5.4351932,6.2865912 5.1556293,6.05985 4.9906962,5.757495 4.9198826,5.6276679 4.8732976,5.4822968 4.847625,5.3109789 4.842945,5.2818299 4.838535,5.2562249 4.837191,5.2540839 c -0.00402,-0.00669 -3.208e-4,0.052482 0.00669,0.098498 0.032558,0.2227699 0.1385719,0.4535692 0.2919189,0.6357177 0.027745,0.03296 0.092789,0.098893 0.1281491,0.129914 0.1235827,0.1084133 0.2600219,0.1901512 0.4118847,0.2467511 0.019522,0.00728 0.039445,0.013906 0.044258,0.014775 0.00602,0.00134 0.00468,-1.34e-5 -0.00535,-0.00335 -0.00762,-0.00267 -0.015511,-0.00535 -0.017517,-0.00669 -0.00267,-6.686e-4 -0.00267,-0.002 -0.00134,-0.00402 0.00134,-0.00134 0.00535,-0.00134 0.0115,0.00134 0.015711,0.00669 0.087855,0.026876 0.1268252,0.035634 0.038442,0.00869 0.050744,0.013237 0.028146,0.010297 -0.014708,-0.002 -0.075807,-0.01618 -0.1084268,-0.025339 -0.012368,-0.00335 -0.02146,-0.00535 -0.02019,-0.00402 0.00335,0.00267 0.070894,0.021394 0.106876,0.028948 0.115159,0.024268 0.2246955,0.032826 0.3402623,0.026676 z m 0.064449,-0.050811 c 0.071161,-0.00602 0.1805238,-0.028882 0.2506554,-0.05168 0.041985,-0.013639 0.083576,-0.029149 0.082119,-0.030619 -5.549e-4,-5.549e-4 -0.00869,0.002 -0.018051,0.00535 -0.00936,0.00335 -0.018184,0.00669 -0.019656,0.00669 -0.00134,0 0.00669,-0.00936 0.017382,-0.020859 0.1106593,-0.1156003 0.2084828,-0.2853804 0.2690675,-0.4669939 0.04593,-0.1377229 0.070713,-0.267804 0.080842,-0.4246542 0.00267,-0.043656 0.00267,-0.2256582 -3.476e-4,-0.2285464 -6.686e-4,-6.686e-4 -0.012168,0.00267 -0.025272,0.00829 C 6.7168844,5.253448 6.5833468,5.3404738 6.4619703,5.4594437 l -0.039178,0.038442 -0.022664,0.083416 C 6.3433009,5.7908221 6.2944766,5.9368016 6.25691,6.0097479 c -0.010832,0.020992 -0.020057,0.033896 -0.044325,0.061909 -0.016847,0.019455 -0.032492,0.038242 -0.034698,0.041718 -0.00963,0.015043 -0.064917,0.077097 -0.068661,0.077097 -0.002,0 -0.026207,0.022196 -0.053284,0.049273 -0.027076,0.027076 -0.069858,0.068814 -0.095123,0.092682 -0.037572,0.035501 -0.046999,0.043189 -0.05168,0.042186 -0.00468,-6.685e-4 -0.00468,-6.417e-4 -0.002,0.00134 0.00782,0.00468 0.112532,0.014641 0.1794674,0.01658 0.040515,0.00134 0.1267184,-6.686e-4 0.1592438,-0.00402 z M 5.8994862,6.3738246 c -0.002,-0.00134 -0.016513,-0.00468 -0.032091,-0.00762 -0.015578,-0.00335 -0.047267,-0.010627 -0.070532,-0.01678 -0.023266,-0.00602 -0.042921,-0.011162 -0.043791,-0.011094 -0.00949,0.00134 0.1301146,0.036837 0.1463673,0.037439 0.00335,1.471e-4 0.00335,-6.69e-5 0,-0.002 z M 5.7397144,6.3282959 c 0.00402,-0.00267 0.018251,-0.012168 0.032158,-0.021193 0.033427,-0.021662 0.073875,-0.052215 0.1115217,-0.084232 0.033093,-0.02808 0.099535,-0.091278 0.099535,-0.094621 0,-0.00134 -0.018853,-0.012435 -0.041985,-0.025205 C 5.5766198,5.9021039 5.3027453,5.6247729 5.1325574,5.2844572 5.0573982,5.1341656 5.0021285,4.969667 4.982961,4.8391914 4.978941,4.8101764 4.978941,4.8099094 4.986981,4.7165981 l 0.00809,-0.093525 0.01658,-0.031623 c 0.00909,-0.017382 0.024135,-0.044459 0.033294,-0.060238 l 0.016714,-0.028614 0.00134,0.099401 c 0.00134,0.1014271 0.00468,0.1465745 0.015109,0.2118792 0.053685,0.3395468 0.2505619,0.6603541 0.5767711,0.9399648 0.089781,0.076958 0.2021049,0.1588693 0.3000752,0.2188389 0.047066,0.028815 0.1020882,0.059569 0.1065142,0.059501 0.00402,-3.34e-5 0.00402,-6.69e-5 0.040315,-0.054621 0.039779,-0.059636 0.064983,-0.1060932 0.090416,-0.1667717 0.022664,-0.054087 0.050877,-0.1437263 0.045862,-0.1455716 -0.00134,-4.212e-4 0.00335,-0.03316 0.010229,-0.072813 0.00682,-0.039646 0.013504,-0.07899 0.014976,-0.087495 0.00134,-0.00849 0.00267,-0.020123 0.00267,-0.025739 V 5.4688745 L 6.2375155,5.4518302 C 6.1539123,5.4017556 6.0516231,5.3261218 5.9664222,5.2513502 5.9264424,5.216251 5.8454935,5.1365456 5.8095852,5.0968801 5.6582239,4.9296806 5.5476112,4.7449983 5.4833895,4.5522466 5.4418721,4.4276075 5.4210131,4.3115125 5.4154173,4.1738432 l -0.00134,-0.039713 0.025472,-0.016982 c 0.013973,-0.0093 0.024937,-0.017449 0.024402,-0.018051 -0.00134,-0.00134 -0.056961,0.035634 -0.092829,0.06251 C 5.2259765,4.2705689 5.0973862,4.4209472 5.0142645,4.578934 4.9514874,4.6982247 4.9010714,4.8584912 4.883702,4.9938206 c -0.00267,0.020859 -0.00535,0.038309 -0.00602,0.038776 -5.013e-4,5.082e-4 -0.00795,-0.00602 -0.01658,-0.014909 l -0.015711,-0.015845 0.00889,-0.050476 c 0.031356,-0.1783042 0.094795,-0.344989 0.1839803,-0.4834204 0.00829,-0.012903 0.014574,-0.024068 0.013906,-0.024737 -0.00134,-0.00134 -0.029817,0.042721 -0.038709,0.059569 -0.00335,0.00602 -0.00468,0.00762 -0.00535,0.00468 -6.685e-4,-0.00402 0.00795,-0.01979 0.035634,-0.062644 0.013237,-0.020525 0.015578,-0.022998 0.01678,-0.017984 0.00134,0.00535 0.002,0.00535 0.00869,-0.00535 0.014775,-0.022464 0.04954,-0.067484 0.072919,-0.094527 0.031823,-0.03677 0.1114216,-0.1155067 0.1509402,-0.1492956 0.028347,-0.024268 0.096386,-0.07673 0.1143767,-0.088236 0.00402,-0.00267 0.00695,-0.00669 0.00695,-0.00902 0,-0.00267 0.00335,-0.00695 0.00695,-0.00996 0.00669,-0.00535 0.00669,-0.00535 6.284e-4,-0.00267 -0.023199,0.01123 -0.098479,0.06715 -0.1478715,0.1098173 C 5.2363383,4.2102094 5.1689144,4.2775673 5.1388497,4.3126928 5.0840281,4.3767409 5.0299017,4.4545406 4.9920212,4.5237563 4.8919651,4.7065734 4.8392224,4.8888287 4.8372969,5.0583614 l -4.747e-4,0.041718 0.00883,1.404e-4 c 0.00468,7.35e-5 0.013505,6.685e-4 0.019188,0.002 l 0.010365,0.002 0.00134,0.075039 c 0.002,0.097255 0.00669,0.1435461 0.021059,0.2153291 0.049807,0.2471456 0.1768535,0.4780051 0.3587345,0.6518901 0.1281558,0.1225198 0.2589791,0.2047658 0.4269875,0.2684458 0.025004,0.00949 0.046399,0.017316 0.047468,0.017316 0.00134,3.35e-5 0.00535,-0.002 0.00883,-0.00468 z M 6.5985765,6.30015 c 0.00402,-0.00134 0.00602,-0.00335 0.00535,-0.00402 -6.685e-4,-6.685e-4 -0.00535,3.544e-4 -0.00983,0.00267 -0.00969,0.00402 -0.00602,0.00535 0.00402,0.00134 z M 6.6830685,6.259702 C 6.7653405,6.218519 6.813357,6.192158 6.8316353,6.178077 c 0.00795,-0.00602 0.019321,-0.013772 0.025205,-0.016982 0.00602,-0.00335 0.011367,-0.00788 0.012168,-0.010434 6.684e-4,-0.00267 0.00335,-0.00468 0.00669,-0.00468 0.00267,0 0.011566,-0.00602 0.01979,-0.013237 0.033227,-0.029617 0.046999,-0.041317 0.053552,-0.045328 0.010764,-0.00669 0.1077976,-0.1027174 0.1207748,-0.1196183 0.00669,-0.00835 0.017382,-0.021661 0.024335,-0.02955 0.026676,-0.030286 0.053752,-0.067056 0.063781,-0.086719 0.00335,-0.00695 0.00856,-0.014174 0.011162,-0.015978 0.00267,-0.002 0.00702,-0.00782 0.00983,-0.013304 0.00267,-0.00535 0.00602,-0.00997 0.00769,-0.00997 0.00134,0 0.00402,-0.00402 0.00669,-0.00823 0.002,-0.00468 0.00669,-0.011967 0.00983,-0.01658 0.00335,-0.00468 0.00802,-0.013706 0.010434,-0.02019 0.00267,-0.00669 0.00936,-0.019521 0.015443,-0.028815 0.012168,-0.018653 0.034097,-0.063646 0.041517,-0.085221 0.00267,-0.00755 0.00669,-0.015711 0.00869,-0.018051 0.002,-0.00267 0.00535,-0.010229 0.00742,-0.017517 0.002,-0.00723 0.00535,-0.015043 0.00723,-0.017315 0.002,-0.002 0.00675,-0.014842 0.010365,-0.027812 0.00335,-0.01297 0.00829,-0.026141 0.010297,-0.029216 0.002,-0.00335 0.00669,-0.017182 0.010024,-0.031423 0.00335,-0.014174 0.00802,-0.030085 0.010024,-0.035233 0.002,-0.00535 0.00535,-0.019656 0.00782,-0.032158 0.002,-0.012502 0.00535,-0.024001 0.00669,-0.025539 0.00335,-0.00402 0.00669,-0.022397 0.01123,-0.062309 0.002,-0.018452 0.00602,-0.044258 0.00883,-0.057495 0.00969,-0.048337 0.013706,-0.192812 0.00602,-0.2122738 -0.002,-0.00535 -0.00535,-0.010161 -0.00602,-0.010161 -0.00468,0 -0.00735,-0.011162 -0.011094,-0.048671 -0.002,-0.021661 -0.00468,-0.042854 -0.00535,-0.047133 -0.00134,-0.00682 -6.684e-4,-0.00782 0.00402,-0.00782 0.00267,0 0.00602,-0.00134 0.00688,-0.00402 0.002,-0.00535 -0.00849,-0.075774 -0.013104,-0.086672 -0.002,-0.00535 -0.00602,-0.019121 -0.00776,-0.030954 -0.002,-0.011833 -0.00535,-0.024068 -0.00749,-0.027278 -0.002,-0.00335 -0.00602,-0.016246 -0.00869,-0.029082 -0.00267,-0.012837 -0.00776,-0.030687 -0.011094,-0.039713 -0.00335,-0.00902 -0.00849,-0.0234 -0.011298,-0.031957 -0.00267,-0.00856 -0.0119,-0.030353 -0.02019,-0.04847 -0.00829,-0.018117 -0.01638,-0.03784 -0.017984,-0.043858 -0.00134,-0.00602 -0.00468,-0.012702 -0.00669,-0.014841 -0.002,-0.002 -0.00535,-0.00889 -0.00742,-0.015043 -0.002,-0.00602 -0.00535,-0.01297 -0.00769,-0.015243 -0.002,-0.002 -0.00716,-0.011162 -0.011298,-0.019723 -0.00402,-0.00856 -0.00856,-0.015578 -0.00983,-0.015578 -0.00134,0 -0.00267,-0.00267 -0.00402,-0.00602 -0.00267,-0.011433 -0.013171,-0.015845 -0.047066,-0.020123 -0.1364611,-0.017237 -0.3034801,-0.016836 -0.4524213,0.00135 -0.1267251,0.01531 -0.2401325,0.040715 -0.3526105,0.07911 -0.1937203,0.06607 -0.355324,0.1620017 -0.502801,0.2984207 l -0.017449,0.01618 0.02126,0.02721 c 0.095283,0.1217643 0.2225293,0.2437627 0.3549237,0.340289 0.042319,0.030887 0.1175122,0.081076 0.1219114,0.081423 0.002,1.471e-4 0.00876,-0.00762 0.01531,-0.017315 0.011566,-0.017048 0.013037,-0.018184 0.049807,-0.038843 0.1421286,-0.079793 0.3696319,-0.1843614 0.4688859,-0.2155161 0.014574,-0.00468 0.027076,-0.00902 0.027813,-0.0099 6.685e-4,-6.686e-4 0.016647,-0.00602 0.035366,-0.0119 0.018786,-0.00602 0.059167,-0.018921 0.089734,-0.029484 0.053618,-0.018452 0.1312913,-0.039779 0.1946371,-0.053485 0.033227,-0.00723 0.1157005,-0.021594 0.1168905,-0.020391 4.145e-4,4.145e-4 0.00267,0.01999 0.00468,0.043456 0.002,0.023466 0.00402,0.046264 0.00468,0.050542 l 0.00134,0.00788 -0.038309,0.00468 c -0.082827,0.00949 -0.1727418,0.026408 -0.2501541,0.047133 -0.00963,0.00267 -0.00963,0.00267 -0.00802,0.013237 6.685e-4,0.00602 3.208e-4,0.035099 -0.00134,0.064983 -0.024402,0.4720083 -0.1280621,0.8363719 -0.2849457,1.0015391 -0.012635,0.013304 -0.01999,0.01765 -0.087561,0.051479 -0.040581,0.020325 -0.074324,0.037507 -0.075019,0.038241 -0.00402,0.00402 0.019188,-0.00669 0.075828,-0.034832 z M 5.7732359,4.783387 C 5.7824659,4.769013 5.8043239,4.753302 5.8704169,4.713629 6.0315256,4.6168889 6.2170838,4.5334666 6.3842431,4.4826161 6.5023103,4.446715 6.6119404,4.423984 6.7336245,4.410278 c 0.05763,-0.00669 0.2281986,-0.00669 0.281837,6.68e-5 0.037439,0.00468 0.1070626,0.015578 0.1156403,0.018319 0.00335,0.00134 0.00468,-1.003e-4 0.00468,-0.00602 0,-0.00468 -0.00134,-0.00776 -0.00335,-0.00776 -0.002,0 -0.00402,-0.00335 -0.00535,-0.00682 -6.686e-4,-0.00402 -0.00535,-0.011162 -0.010365,-0.016447 -0.00468,-0.00535 -0.00869,-0.010764 -0.00869,-0.012235 0,-0.00134 -0.00769,-0.011037 -0.017048,-0.021193 -0.00936,-0.010229 -0.025606,-0.028413 -0.036035,-0.040515 -0.020725,-0.024001 -0.090984,-0.09309 -0.1011063,-0.099435 -0.00335,-0.002 -0.013906,-0.011162 -0.023133,-0.019923 -0.00923,-0.00876 -0.018118,-0.015978 -0.01979,-0.015978 -0.00134,0 -0.00942,-0.00602 -0.017315,-0.013505 -0.00789,-0.00742 -0.020592,-0.017517 -0.028213,-0.022329 -0.00762,-0.00468 -0.021461,-0.014374 -0.030754,-0.021193 -0.00923,-0.00682 -0.028013,-0.019121 -0.041717,-0.027411 -0.013706,-0.00823 -0.032291,-0.01979 -0.041384,-0.025739 -0.00909,-0.00602 -0.022731,-0.01317 -0.030352,-0.01618 -0.00762,-0.00267 -0.016112,-0.00749 -0.018921,-0.010092 -0.00267,-0.00267 -0.00949,-0.00602 -0.014841,-0.00728 -0.00535,-0.00134 -0.014039,-0.00535 -0.019188,-0.00916 -0.00535,-0.00335 -0.018386,-0.00976 -0.02935,-0.013772 -0.010968,-0.00402 -0.026809,-0.010229 -0.035099,-0.013772 -0.00835,-0.00335 -0.01765,-0.00669 -0.020725,-0.00669 -0.00335,-3.35e-5 -0.00669,-0.002 -0.00776,-0.00402 -0.00134,-0.002 -0.010092,-0.00602 -0.019723,-0.00856 -0.00963,-0.00267 -0.022731,-0.00702 -0.029149,-0.0099 -0.00669,-0.00267 -0.019455,-0.00702 -0.029082,-0.00916 -0.00963,-0.002 -0.021996,-0.00602 -0.027545,-0.00876 -0.00602,-0.00267 -0.025472,-0.00695 -0.048003,-0.010024 -0.020859,-0.00267 -0.046866,-0.00695 -0.057763,-0.00909 -0.0109,-0.002 -0.021729,-0.00335 -0.024001,-0.00335 -0.002,5.014e-4 0.00602,0.00267 0.018051,0.00468 0.012235,0.002 0.021327,0.00402 0.02019,0.00535 -0.00134,6.686e-4 -0.016045,0.00335 -0.033294,0.00602 -0.2334334,0.032492 -0.4950799,0.1278615 -0.7062772,0.2573678 -0.046398,0.02848 -0.092763,0.060371 -0.092763,0.063914 0,0.00535 0.017516,0.074524 0.027946,0.110566 0.01765,0.06104 0.047936,0.1439069 0.075433,0.2062566 0.031088,0.070586 0.1068692,0.2103415 0.1140024,0.2103415 0.00134,0 0.00602,-0.00602 0.010229,-0.012837 z M 5.0339385,4.3210327 c 0.002,0 0.00335,-0.002 0.00335,-0.00402 0,-0.002 0.00134,-0.00335 0.00267,-0.002 0.00134,6.685e-4 0.00602,-0.00134 0.010161,-0.00535 0.00682,-0.00669 0.00728,-0.00809 0.00602,-0.019856 -0.00535,-0.044191 -0.013973,-0.042387 -0.023935,0.00468 -0.00402,0.019656 -0.00669,0.044526 -0.00335,0.031021 6.418e-4,-0.00267 0.00267,-0.00468 0.00468,-0.00468 z M 5.6021788,4.0795299 c 0.070846,-0.034231 0.2086166,-0.0919 0.3403892,-0.1424296 l 0.046866,-0.017984 h 0.1071093 c 0.058899,0 0.1065279,-5.816e-4 0.1058259,-0.00134 -6.686e-4,-6.685e-4 -0.050075,-0.00134 -0.1097434,-0.00134 -0.1196985,-1.34e-5 -0.1188494,-7.35e-5 -0.2142993,0.019054 -0.1287374,0.025806 -0.2390293,0.064983 -0.3478838,0.123643 -0.030352,0.01638 -0.04847,0.028146 -0.025672,0.016714 0.00602,-0.00335 0.011566,-0.00468 0.012235,-0.00402 6.686e-4,6.685e-4 0.002,0.012435 0.00335,0.026074 0.00134,0.013706 0.002,0.025137 0.002,0.025405 4.01e-5,3.209e-4 0.00823,-0.00468 0.018118,-0.011094 0.0099,-0.00669 0.037507,-0.02106 0.061307,-0.032558 z m -0.10965,0.002 c 0,-0.002 -0.00976,0.00402 -0.011566,0.00695 -6.685e-4,0.00134 0.00134,6.685e-4 0.00468,-0.00134 0.00335,-0.00267 0.00669,-0.00468 0.00669,-0.00535 z m -0.061775,-0.00876 c 0.00134,-0.002 2.206e-4,-0.002 -0.00335,2.02e-5 -0.00267,0.00134 -0.00602,0.00402 -0.00695,0.00535 -0.00134,0.002 -2.14e-4,0.002 0.00335,-2.67e-5 0.00267,-0.00134 0.00602,-0.00402 0.00695,-0.00535 z m 0.027009,-0.024803 c 0.021862,-0.013104 0.029751,-0.019455 0.013906,-0.011298 -0.011633,0.00602 -0.039846,0.023935 -0.039846,0.025339 0,0.00134 -6.684e-4,0.002 0.025874,-0.014039 z M 6.3229771,3.9291178 c -6.686e-4,-0.00134 -0.00795,-0.00335 -0.015978,-0.00402 -0.00795,-6.686e-4 -0.01678,-0.002 -0.019521,-0.00335 -0.00267,-6.686e-4 -0.00402,-4.747e-4 -0.00335,6.217e-4 0.00134,0.00134 0.010161,0.00335 0.02019,0.00535 0.010092,0.002 0.018719,0.00335 0.019121,0.00335 4.279e-4,1.737e-4 1.404e-4,-6.686e-4 -6.686e-4,-0.002 z m -0.05061,-0.00789 c -0.010627,-0.00335 -0.066254,-0.00602 -0.063713,-0.00335 0.002,0.002 0.033093,0.00468 0.063646,0.00535 l 0.00755,2.139e-4 z"
       id="path29" />
    <path
       style="fill:#001B30;fill-opacity:1;stroke-width:0.0025277"
       d="M 6.0018623,6.6163437 C 5.9457036,6.614338 5.9268235,6.6123324 5.8780054,6.6019697 5.6207112,6.5486189 5.3989173,6.4419439 5.2043805,6.2779869 5.1622614,6.2424865 5.0654743,6.1453117 5.0314916,6.1044027 4.8121447,5.8403158 4.6935893,5.5261474 4.6823844,5.1792664 c -0.002,-0.052481 0.002,-0.1800024 0.00669,-0.2198149 0.00716,-0.064917 0.020057,-0.1252676 0.037507,-0.1757704 0.00535,-0.015978 0.014775,-0.044392 0.020525,-0.063179 0.041852,-0.1364459 0.1106524,-0.2812554 0.190151,-0.4003989 0.051746,-0.077539 0.084405,-0.1166165 0.16976,-0.203081 0.033294,-0.033695 0.059569,-0.061307 0.058432,-0.061307 -0.00134,0 -3.35e-5,-0.002 0.00267,-0.00468 0.00267,-0.00267 0.00535,-0.00468 0.00669,-0.00468 0.00267,6.686e-4 0.072571,-0.058165 0.091485,-0.076771 0.00788,-0.00776 0.015912,-0.014107 0.017784,-0.014107 0.00468,0 0.039913,-0.025739 0.039913,-0.029015 0,-0.00134 0.00134,-0.002 0.002,-0.00134 0.00134,6.686e-4 0.00602,-0.002 0.010365,-0.00602 0.00468,-0.00402 0.00916,-0.00755 0.010502,-0.00755 0.00134,0 0.012837,-0.00669 0.025606,-0.014776 0.124619,-0.079157 0.2655375,-0.1405709 0.406603,-0.1772145 0.04018,-0.010434 0.1243451,-0.027813 0.1607747,-0.033227 0.0115,-0.002 0.020859,-0.00402 0.020859,-0.00468 0,-6.686e-4 0.00842,-0.00134 0.01872,-0.002 0.010297,-1.404e-4 0.02019,-0.00134 0.021929,-0.002 0.00335,-0.002 0.021527,-0.00267 0.1375089,-0.00468 0.1170042,-0.00134 0.1627335,0.002 0.2580096,0.019856 0.2237728,0.041986 0.4285653,0.1321538 0.6099583,0.2685729 0.075052,0.056426 0.1786452,0.1545972 0.253684,0.2403797 0.1627737,0.1860663 0.2878607,0.4567785 0.3253868,0.7041848 0.00602,0.039378 0.012569,0.1635425 0.012702,0.2376052 6.69e-5,0.065251 -0.00468,0.1811323 -0.00909,0.2224358 C 7.5748076,5.50417 7.5124185,5.6912924 7.4287948,5.8483031 7.3565671,5.9838819 7.2834466,6.0822667 7.1728605,6.1926589 7.0909627,6.2744168 7.0288198,6.3260228 6.9476904,6.379661 6.8002401,6.4771502 6.636116,6.5485252 6.4657542,6.5892471 c -0.058031,0.013906 -0.090403,0.018988 -0.145438,0.022865 -0.061775,0.00468 -0.2447588,0.00669 -0.3179792,0.00402 z M 6.2230345,6.4367224 C 6.3855073,6.422683 6.5309185,6.385511 6.6626108,6.3244247 6.9600653,6.1864346 7.1968684,5.9376309 7.3183118,5.6354832 7.3818251,5.4774764 7.4113954,5.3252124 7.4115888,5.1552183 7.4116958,5.0619413 7.4055699,4.994223 7.3893255,4.9078253 7.3217415,4.5488436 7.0957758,4.2304499 6.7715322,4.0373372 6.6883169,3.9877971 6.5772829,3.9401557 6.4896953,3.9164687 6.3554489,3.880166 6.2530794,3.8661263 6.1219151,3.8661263 c -0.1130793,0 -0.1808848,0.00602 -0.2647486,0.024135 -0.1141294,0.02447 -0.2343226,0.06717 -0.3344925,0.1188495 -0.021862,0.011298 -0.040715,0.023466 -0.022998,0.014842 0.00468,-0.002 0.00909,-0.00335 0.0099,-0.00267 0.002,0.002 0.00335,6.686e-4 -0.02848,0.019054 -0.01531,0.00869 -0.029484,0.017449 -0.031623,0.019521 -0.002,0.002 0.013839,-0.00602 0.035366,-0.018319 0.09692,-0.054554 0.2088105,-0.1005908 0.3061324,-0.1259562 0.175182,-0.045662 0.3476431,-0.054755 0.5254726,-0.027678 0.2317554,0.0353 0.4454396,0.1325281 0.6306568,0.2869515 0.034631,0.028882 0.1023032,0.095369 0.1359176,0.1335577 0.1150855,0.1307363 0.2051268,0.2897193 0.2592264,0.4576943 0.023935,0.074237 0.043056,0.1605005 0.052482,0.2361545 0.00876,0.070232 0.00709,0.243288 -0.00335,0.3221644 C 7.3707869,5.4845564 7.3072739,5.6649933 7.2214579,5.8073292 7.1219699,5.9723425 6.9853368,6.1150661 6.8262135,6.2201768 6.6508911,6.3359975 6.4608069,6.4031141 6.2402899,6.4270685 6.1942932,6.4317484 6.043948,6.4310798 5.9913125,6.4257313 5.9043265,6.4166389 5.8329514,6.4021313 5.7448623,6.3757232 5.4911848,6.2995345 5.2615755,6.1384656 5.0966826,5.9210374 4.9611193,5.7422787 4.8838541,5.5529164 4.847518,5.310384 4.838358,5.249344 4.833412,5.237003 4.835885,5.281569 c 0.00602,0.111937 0.044325,0.2595808 0.098893,0.3829429 0.1042545,0.2357802 0.2629502,0.4245407 0.475197,0.5652252 0.069497,0.046064 0.157325,0.092214 0.2308328,0.1212897 0.046264,0.018319 0.081986,0.030686 0.080193,0.027745 -6.685e-4,-0.00134 -0.00669,-0.00335 -0.01277,-0.00535 -0.00602,-0.002 -0.012033,-0.00402 -0.01277,-0.00535 -0.00335,-0.00535 0.00535,-0.00402 0.033027,0.00535 0.02447,0.00816 0.067056,0.019388 0.1402165,0.036972 0.00535,0.00134 0.00535,0.002 0.002,0.00267 -0.00602,0.00134 -0.058299,-0.00983 -0.099454,-0.02106 -0.017249,-0.00468 -0.032091,-0.00862 -0.033027,-0.00862 -0.01123,0 0.055022,0.018452 0.1041283,0.029015 0.064115,0.013772 0.1340324,0.022798 0.2148542,0.027678 0.024737,0.00134 0.1342062,-6.685e-4 0.1655615,-0.00335 z m -0.028882,-0.045395 c 0.117753,-0.00535 0.2497595,-0.032625 0.363314,-0.075821 0.00809,-0.00335 0.014241,-0.00602 0.013639,-0.00669 -6.084e-4,-6.083e-4 -0.00702,0.00134 -0.014174,0.00402 -0.00716,0.00267 -0.014374,0.00535 -0.015911,0.00535 -0.00134,0 0.00535,-0.00883 0.015978,-0.019588 C 6.6254455,6.2275174 6.6974021,6.122721 6.7498438,6.0177508 6.8411218,5.8350341 6.8933029,5.6342864 6.907951,5.4095241 6.910621,5.3652661 6.911301,5.2035415 6.9084924,5.1865067 l -0.002,-0.010627 -0.026541,0.010832 C 6.7177903,5.2529594 6.584734,5.3398984 6.4592859,5.4615425 l -0.036303,0.035233 -0.00535,0.020792 C 6.3571306,5.7464551 6.3009322,5.919812 6.2608922,6.0009614 c -0.015845,0.032091 -0.020325,0.038709 -0.048203,0.070774 -0.016914,0.019455 -0.032558,0.038241 -0.034832,0.041717 -0.00923,0.014174 -0.064583,0.077185 -0.068781,0.078362 -0.00267,6.685e-4 -0.035634,0.031489 -0.073615,0.068407 C 5.9306719,6.3620627 5.9150608,6.3763231 5.91006,6.3747721 c -0.00335,-0.00134 -0.00335,-6.686e-4 -5.683e-4,0.00134 0.010627,0.00669 0.1087808,0.014708 0.2161178,0.017784 0.00695,2.139e-4 0.037774,-6.685e-4 0.06846,-0.002 z M 5.896939,6.3738111 c -0.002,-0.00134 -0.013439,-0.00402 -0.025272,-0.00669 -0.019321,-0.00402 -0.099842,-0.023801 -0.1124843,-0.027878 -0.00402,-0.00134 -0.00468,-0.00134 -6.686e-4,0.00134 0.00468,0.00335 0.071743,0.020859 0.1108936,0.029417 0.029884,0.00669 0.03316,0.00702 0.027813,0.00402 z m -0.1296934,-0.06378 c 0.040582,-0.026876 0.083536,-0.059101 0.1157874,-0.086665 0.029617,-0.025339 0.099842,-0.09214 0.099842,-0.094982 0,-0.00134 -0.00997,-0.00755 -0.022129,-0.014106 C 5.5889347,5.9136299 5.3099056,5.6352894 5.1362479,5.2918114 5.060975,5.1429236 5.0077176,4.9881259 4.9852876,4.8530305 l -0.00675,-0.040648 0.00816,-0.094567 0.00816,-0.094567 0.01658,-0.031623 c 0.00909,-0.017382 0.024135,-0.044458 0.033361,-0.060236 l 0.01678,-0.028615 0.00134,0.098138 c 0.002,0.1114557 0.00535,0.1569572 0.01765,0.2279646 0.041317,0.2388088 0.1510071,0.4651488 0.3284021,0.6777701 0.14382,0.1723741 0.3330552,0.3340847 0.5434033,0.4643532 0.044593,0.027611 0.1048303,0.06144 0.1092484,0.061307 0.00728,-1.738e-4 0.065987,-0.090803 0.095724,-0.1477913 0.039913,-0.076409 0.08044,-0.1876039 0.080193,-0.2199086 -4.01e-5,-0.00535 0.00468,-0.037439 0.010502,-0.07078 0.01297,-0.074417 0.017784,-0.1057189 0.017784,-0.1165162 0,-0.00782 -0.00134,-0.00916 -0.028413,-0.025205 C 6.1771581,5.4162032 6.078372,5.3458175 6.0181216,5.2958829 5.947756,5.2375846 5.8604625,5.1540685 5.8045778,5.0916386 5.5743266,4.8343978 5.4443257,4.54756 5.4192949,4.2415279 c -0.00134,-0.016714 -0.00335,-0.047534 -0.00402,-0.068547 l -0.00134,-0.038242 0.018519,-0.012837 c 0.038843,-0.026809 0.035099,-0.026609 -0.00535,3.142e-4 C 5.3173194,4.19519 5.2105112,4.2957011 5.127142,4.4045088 5.030108,4.5311469 4.967417,4.6561806 4.9226371,4.8124023 c -0.016513,0.05763 -0.029282,0.1161351 -0.036436,0.1671527 -0.00267,0.020859 -0.00602,0.041785 -0.00669,0.046531 l -0.00134,0.00862 -0.016246,-0.016246 -0.016246,-0.016245 0.00762,-0.044191 c 0.030488,-0.176628 0.08319,-0.3197927 0.1742809,-0.4732868 0.00335,-0.00535 0.00468,-0.00949 0.00402,-0.00949 -6.685e-4,0 -0.00602,0.00823 -0.012235,0.018251 -0.00602,0.010627 -0.011162,0.01658 -0.011633,0.014174 -6.686e-4,-0.00402 0.015845,-0.033027 0.038909,-0.067651 0.00795,-0.0119 0.012702,-0.017182 0.013237,-0.014508 4.547e-4,0.002 0.00134,0.00402 0.00267,0.00402 6.686e-4,-7.35e-5 0.00849,-0.00996 0.01678,-0.022062 0.031556,-0.046064 0.066589,-0.086364 0.1313916,-0.1510671 0.066856,-0.066722 0.112317,-0.1061536 0.17206,-0.1490816 0.016714,-0.011967 0.030754,-0.023733 0.031221,-0.026074 4.948e-4,-0.002 0.00267,-0.00669 0.00535,-0.00916 0.00402,-0.00468 0.00335,-0.00468 -0.00468,5.08e-4 -0.03784,0.023266 -0.1032715,0.07304 -0.1509,0.1148448 -0.035701,0.031288 -0.109443,0.1072037 -0.1371279,0.1410723 -0.05783,0.07076 -0.096827,0.127875 -0.1356101,0.1986885 -0.07387,0.1348547 -0.1250804,0.2810816 -0.1437599,0.4104808 -0.00669,0.044125 -0.012635,0.1300612 -0.011037,0.1516623 6.685e-4,0.011093 0.00134,0.011367 0.00969,0.0115 0.00468,7.35e-5 0.013505,6.686e-4 0.019188,0.002 l 0.010365,0.002 0.00134,0.075039 c 0.00267,0.1139222 0.0099,0.1739854 0.033562,0.2696761 0.058899,0.2380933 0.190111,0.4569922 0.3731485,0.6224602 0.1277881,0.1155267 0.2494923,0.1875704 0.4316341,0.2555159 0.00762,0.00267 0.014708,0.00535 0.015644,0.00535 6.686e-4,6.69e-5 0.017449,-0.010297 0.036637,-0.022998 z m 0.8366593,-0.013839 c -0.00134,-0.00134 -0.014374,0.00335 -0.014374,0.00535 0,6.619e-4 0.00335,-1.33e-5 0.00769,-0.00134 0.00402,-0.00134 0.00723,-0.00335 0.00669,-0.00402 z m 0.069062,-0.031355 c 0.083322,-0.041317 0.1342462,-0.069049 0.1554262,-0.084692 0.00976,-0.00723 0.022597,-0.016112 0.028547,-0.019856 0.00602,-0.00402 0.0115,-0.00842 0.012302,-0.010434 6.685e-4,-0.002 0.00335,-0.00402 0.00602,-0.00402 0.00267,0 0.011433,-0.00602 0.019521,-0.013237 0.027478,-0.024737 0.046799,-0.04105 0.053618,-0.045262 0.0109,-0.00675 0.1017946,-0.096794 0.1177597,-0.11667 0.00802,-0.00996 0.020325,-0.024603 0.027344,-0.032425 0.024737,-0.027745 0.053885,-0.06741 0.063848,-0.086812 0.00335,-0.00695 0.00862,-0.014174 0.01123,-0.015978 0.00267,-0.002 0.00702,-0.00782 0.00983,-0.013304 0.00267,-0.00535 0.00602,-0.00996 0.00762,-0.00996 0.00134,0 0.00402,-0.00335 0.00535,-0.00695 0.00134,-0.00402 0.00535,-0.010502 0.00883,-0.014843 0.00335,-0.00402 0.00856,-0.014574 0.0119,-0.022798 0.00335,-0.00823 0.010297,-0.021193 0.015377,-0.028748 0.012033,-0.017784 0.025874,-0.045529 0.03784,-0.075761 0.00535,-0.013237 0.011499,-0.026541 0.013972,-0.029684 0.00267,-0.00335 0.00535,-0.0099 0.00602,-0.01511 6.686e-4,-0.00535 0.00468,-0.013973 0.00762,-0.019588 0.00335,-0.00535 0.00823,-0.019054 0.011162,-0.029884 0.00267,-0.010832 0.00695,-0.022196 0.00889,-0.025272 0.002,-0.00335 0.00669,-0.017517 0.010161,-0.032091 0.00335,-0.014574 0.00823,-0.030686 0.010161,-0.035701 0.002,-0.00535 0.00535,-0.019254 0.00776,-0.031623 0.002,-0.012302 0.00535,-0.023533 0.00602,-0.024937 0.00335,-0.00402 0.00702,-0.025205 0.0115,-0.062175 0.002,-0.018653 0.00602,-0.044727 0.00883,-0.057897 0.00602,-0.029951 0.0109,-0.1174856 0.00969,-0.1695062 -6.686e-4,-0.032558 -0.00134,-0.040381 -0.00535,-0.045529 -0.00267,-0.00335 -0.00602,-0.00842 -0.00809,-0.01123 -0.002,-0.00335 -0.00535,-0.019656 -0.00755,-0.044258 -0.002,-0.021527 -0.00468,-0.042854 -0.00535,-0.047401 -0.00134,-0.00723 -6.684e-4,-0.00823 0.00402,-0.00823 0.00267,0 0.00602,-0.00134 0.00675,-0.00335 0.002,-0.00535 -0.00895,-0.07752 -0.013037,-0.085917 -0.002,-0.00402 -0.00535,-0.017449 -0.00749,-0.029817 -0.002,-0.012368 -0.00602,-0.026742 -0.00869,-0.03189 -0.00267,-0.00535 -0.00602,-0.016513 -0.00762,-0.025205 -0.00402,-0.02146 -0.026743,-0.08613 -0.043791,-0.1231951 -0.00762,-0.016714 -0.015243,-0.035433 -0.016915,-0.041717 -0.00134,-0.00602 -0.00468,-0.013104 -0.00669,-0.01531 -0.002,-0.002 -0.00535,-0.00895 -0.00742,-0.01511 -0.002,-0.00602 -0.00602,-0.013504 -0.00849,-0.016313 -0.00267,-0.00267 -0.00769,-0.0117 -0.0115,-0.019656 -0.00402,-0.00802 -0.00788,-0.014508 -0.00902,-0.014508 -0.00134,0 -0.00335,-0.00335 -0.00468,-0.00742 -0.00402,-0.010695 -0.013505,-0.014574 -0.047468,-0.018853 C 7.035481,4.507877 6.8773873,4.507877 6.7278978,4.524691 6.3886719,4.5628654 6.0938782,4.6900921 5.8734883,4.8934471 c -0.011767,0.0109 -0.022998,0.021194 -0.024937,0.022931 -0.00267,0.00267 -5.882e-4,0.00688 0.013906,0.025472 0.116309,0.1491417 0.2615597,0.2823652 0.4304239,0.3947831 l 0.051613,0.034364 0.00402,-0.00602 c 0.020123,-0.030352 0.020725,-0.030821 0.059836,-0.052883 0.1383111,-0.078054 0.369779,-0.1844685 0.4688859,-0.215563 0.014574,-0.00468 0.026943,-0.00923 0.027411,-0.010365 4.613e-4,-0.00134 0.00267,-0.002 0.00468,-0.002 0.002,0 0.043256,-0.01317 0.091245,-0.029216 0.083169,-0.027813 0.157686,-0.048805 0.2241606,-0.063112 0.034029,-0.00735 0.1155333,-0.021728 0.1166566,-0.020592 4.01e-4,4.011e-4 0.00267,0.01999 0.00468,0.04359 0.002,0.023533 0.00402,0.046399 0.00468,0.050677 l 0.00134,0.00782 -0.037038,0.00402 c -0.070425,0.00816 -0.1548914,0.023132 -0.2165325,0.038509 -0.04974,0.012368 -0.044726,0.00983 -0.042921,0.021996 0.00335,0.021394 -0.00682,0.1749816 -0.017917,0.2746902 -0.037239,0.3342051 -0.1174923,0.5951764 -0.2291213,0.7452007 -0.013772,0.018452 -0.049874,0.060438 -0.052548,0.06104 -0.00468,0.00134 -0.1498505,0.075707 -0.1476041,0.075807 0.00134,6.7e-5 0.030419,-0.013572 0.064248,-0.030352 z M 5.7732157,4.7835206 c 0.00602,-0.00976 0.014374,-0.016915 0.033762,-0.029884 C 5.867081,4.7134559 5.9485448,4.6669778 6.0321746,4.6251529 6.26982,4.5062834 6.5000444,4.4358041 6.7336115,4.4104123 c 0.059769,-0.00669 0.227149,-0.00669 0.281837,6.68e-5 0.036704,0.00468 0.1066087,0.015443 0.1156405,0.018319 0.00669,0.002 0.00602,-0.00923 -6.286e-4,-0.014775 -0.00267,-0.00267 -0.00535,-0.00602 -0.00535,-0.00809 0,-0.002 -0.00335,-0.00749 -0.00723,-0.012033 -0.00402,-0.00468 -0.00869,-0.011162 -0.010502,-0.014641 C 7.1004284,4.3658221 7.0113794,4.270525 6.9783401,4.241162 6.9628971,4.227456 6.9419031,4.208537 6.9316741,4.199177 6.9214451,4.189817 6.9118181,4.182129 6.9103471,4.182129 c -0.00134,0 -0.00923,-0.00602 -0.017316,-0.013439 C 6.8850111,4.16127 6.8705001,4.149971 6.8608061,4.143553 6.8511161,4.136863 6.8369381,4.127373 6.8293171,4.121892 6.8216971,4.116542 6.8029091,4.104308 6.7876001,4.094949 6.7722901,4.085589 6.7537711,4.074024 6.7464831,4.069343 6.7392031,4.064663 6.7272291,4.058375 6.7199421,4.055504 c -0.00728,-0.00267 -0.015511,-0.00728 -0.018319,-0.00983 -0.00267,-0.00267 -0.00949,-0.00602 -0.014841,-0.00728 -0.00535,-0.00134 -0.014039,-0.00535 -0.019188,-0.00916 -0.00535,-0.00335 -0.018386,-0.00976 -0.02935,-0.013772 C 6.6272761,4.011442 6.6114351,4.005233 6.6031451,4.00169 6.5947951,3.99834 6.5854951,3.995 6.5824201,3.995 c -0.00335,-4e-5 -0.00669,-0.002 -0.00755,-0.00335 -0.00134,-0.002 -0.00996,-0.00602 -0.019723,-0.00862 -0.00969,-0.00267 -0.022798,-0.00728 -0.029082,-0.010161 -0.00602,-0.00267 -0.019923,-0.00702 -0.030352,-0.00936 -0.010434,-0.002 -0.02126,-0.00535 -0.024135,-0.00749 -0.00602,-0.00402 -0.023666,-0.00755 -0.060571,-0.012635 -0.01531,-0.002 -0.033829,-0.00535 -0.04125,-0.00669 -0.00742,-0.00134 -0.014775,-0.002 -0.016447,-0.00134 -0.00134,5.883e-4 0.00335,0.002 0.0115,0.00267 0.014775,0.002 0.017784,0.00669 0.00402,0.00669 -0.012703,0 -0.1096705,0.017249 -0.1567701,0.027945 -0.2060159,0.046599 -0.4122056,0.1316323 -0.5923083,0.2443176 -0.046331,0.029015 -0.074725,0.049072 -0.074778,0.053017 -2.02e-5,0.00134 0.00468,0.021461 0.010297,0.044191 0.03169,0.1262103 0.073561,0.2375184 0.1334774,0.3548034 0.030553,0.059836 0.06955,0.1276476 0.073387,0.1276476 0.00134,0 0.00602,-0.00602 0.010434,-0.012837 z M 5.0447759,4.4571711 c 0.00468,-0.00902 0.00468,-0.00983 6.685e-4,-0.00468 -0.00776,0.00956 -0.014842,0.022263 -0.010365,0.018653 0.002,-0.00134 0.00602,-0.00788 0.00956,-0.013906 z M 5.042102,4.3161055 c 0.00134,0 0.00535,-0.00335 0.00902,-0.00716 0.00675,-0.00709 0.00682,-0.00735 0.00402,-0.025739 -0.00335,-0.024937 -0.0093,-0.032023 -0.014841,-0.018319 -0.00335,0.00889 -0.012837,0.050542 -0.012903,0.058499 l -3.35e-5,0.00602 0.00602,-0.00669 c 0.00335,-0.00335 0.00716,-0.00669 0.00835,-0.00669 z M 5.5424966,4.1109387 c 0.050409,-0.031021 0.2239935,-0.1064744 0.3975242,-0.1727419 0.05295,-0.02019 0.056359,-0.021996 0.037907,-0.019923 -0.019121,0.002 -0.098538,0.016847 -0.1353093,0.025004 -0.1066678,0.023667 -0.2148676,0.063781 -0.3095621,0.1149049 -0.026474,0.014307 -0.045796,0.026809 -0.025672,0.016647 0.00468,-0.00267 0.00902,-0.00402 0.00969,-0.00335 6.685e-4,6.685e-4 0.002,0.00842 0.00267,0.017249 0.00134,0.019723 0.00335,0.032425 0.00468,0.032425 6.083e-4,0 0.00883,-0.00468 0.018184,-0.010559 z M 5.4283205,4.0740343 c -6.686e-4,-6.686e-4 -0.00335,5.147e-4 -0.00602,0.00335 -0.00402,0.00468 -0.00402,0.00468 0.00134,0.00134 0.00335,-0.00134 0.00535,-0.00402 0.00468,-0.00468 z m 0.042186,-0.034364 0.00535,-0.00468 -0.00602,0.00335 c -0.00335,0.002 -0.0117,0.00682 -0.018319,0.010627 -0.00669,0.00402 -0.012033,0.00749 -0.012033,0.00816 0,0.002 0.024335,-0.012235 0.030954,-0.017784 z M 6.3488239,3.9329149 c -6.686e-4,-6.685e-4 -0.00335,-6.685e-4 -0.00468,-2.206e-4 -0.002,6.686e-4 -0.00134,0.00134 0.00134,0.00134 0.00267,1.003e-4 0.00402,-4.88e-4 0.00335,-0.00134 z m -0.026007,-0.00335 c -0.00134,-0.00134 -0.00923,-0.00267 -0.017584,-0.00335 l -0.015176,-0.00134 0.016447,0.00335 c 0.00902,0.002 0.016915,0.00335 0.017584,0.00335 6.284e-4,1.738e-4 6.69e-5,-6.685e-4 -0.00134,-0.002 z m -0.050877,-0.00782 c -0.00762,-0.00335 -0.063246,-0.00602 -0.060638,-0.00335 0.002,0.002 0.025605,0.00402 0.059836,0.00535 0.00602,2.474e-4 0.00602,1.739e-4 6.685e-4,-0.002 z m -0.1240375,-0.00468 c -0.028146,-4.01e-4 -0.074217,-4.01e-4 -0.1023692,0 -0.028146,4.145e-4 -0.00535,6.686e-4 0.051211,6.686e-4 0.056293,0 0.079338,-3.143e-4 0.051211,-6.686e-4 z"
       id="path30" />
    <ellipse
       style="fill:#001B30;fill-opacity:1;stroke-width:0.0218378"
       id="path33"
       cx="5.0400767"
       cy="4.3299274"
       rx="0.04549839"
       ry="0.10110754" />
    <path
       style="fill:#001B30;fill-opacity:1;stroke-width:0.0218378"
       d="M 5.0178597,4.1922218 4.9883764,4.2637107 5.3744414,3.9062464 5.344089,3.8686735 5.0545434,4.1332016 Z"
       id="path34" />
    <path
       style="fill:#001B30;fill-opacity:1;stroke-width:0.0218378"
       d="m 4.8504998,5.2095655 0.050542,0.2654105 0.1188027,0.3184874 0.1946304,0.2401256 0.2350714,0.1946372 0.3614621,0.1541893 0.3538741,0.017717 0.187049,0.00755 L 6.6502024,6.2989998 6.5541514,6.4911031 5.4394392,6.4127483 4.772132,5.5861909 4.8049576,4.6307222 Z"
       id="path35" />
    <path
       style="fill:#001B30;fill-opacity:1;stroke-width:0.0218378"
       d="M 4.8681965,5.116041 4.8782917,5.0275708 4.9061037,4.8076622 5.0173182,4.5270888 5.2422877,4.2414611 5.4596691,4.0746359 5.3914161,3.9280281 4.7316904,4.843049 4.8353302,5.1261495 Z"
       id="path36" />
    <path
       style="fill:#001B30;fill-opacity:1;stroke-width:0.0218378"
       d="M 6.4468473,5.3030565 6.36999,5.3316708 6.2555999,5.3870942 6.4039461,5.4496712 Z"
       id="path37" />
    <path
       style="fill:#001B30;fill-opacity:1;stroke-width:0.0218378"
       d="m 7.3369445,4.9706097 0.1340457,-0.00895 0.002,0.106347 -0.1233288,0.00802 z"
       id="path38" />
    <path
       style="fill:#001B30;fill-opacity:1;stroke-width:0.0218378"
       d="M 6.5826849,6.3558003 6.8150353,6.2056624"
       id="path39" />
    <path
       style="fill:#001B30;fill-opacity:1;stroke-width:0.0218378"
       d="M 6.5844699,6.334353 6.904408,6.152044 7.1421202,5.9036015 7.2833195,5.6712444 7.3673304,5.4138699 7.3959446,5.0456753 7.5335739,5.0188662 7.2046971,6.1162963 6.6202377,6.3701007 Z"
       id="path40" />
    <path
       style="fill:#001B30;fill-opacity:1;stroke-width:0.0218378"
       d="m 4.7166947,4.7883008 -0.016982,0.08847 0.1577327,-0.1756032 0.1595244,-0.4892903 -0.011633,0.002 -0.100089,0.1385184 -0.067919,0.124218 -0.057162,0.1246658 -0.054487,0.1635426 z"
       id="path41" />
    <path
       style="fill:#001B30;fill-opacity:1;stroke-width:0.0218378"
       d="m 4.9767501,4.8115331 -0.041116,-0.3386978 0.1313714,-0.04827 -0.00468,0.074176 z"
       id="path42" />
    <path
       style="fill:#001B30;fill-opacity:1;stroke-width:0.0218378"
       d="m 4.8753233,5.1042142 0.00468,-0.066589 -0.077753,-0.015645 0.048671,0.1009856 z"
       id="path43" />
    <path
       style="fill:#001B30;fill-opacity:1;stroke-width:0.0218378"
       d="m 5.4119742,4.133235 -0.019656,-0.185879 0.112598,-0.00602 0.01785,0.1787321 z"
       id="path44" />
    <path
       style="fill:#001B30;fill-opacity:1;stroke-width:0.0218378"
       d="M 5.5127525,4.0417763 5.9298253,3.9002227 6.0284045,3.935589 6.37217,3.943144 6.402522,3.9254273 6.6805682,4.01137 7.0142251,4.2489686 7.1962131,4.4865738 7.2998532,4.6887858 7.3807351,4.9541962 7.4312785,5.0679378 7.375654,4.4082126 7.229046,4.2034736 7.2492364,4.1301664 6.9130525,3.8748711 6.695671,3.7990433 5.4596356,3.9203731 Z"
       id="path45" />
    <path
       id="path46"
       style="fill:#001B30;fill-opacity:1;stroke-width:0.0168098"
       inkscape:transform-center-x="0.10571889"
       inkscape:transform-center-y="-0.050614985"
       d="M 6.3813889,3.5896044 A 0.11573536,0.65403278 73.340801 0 0 5.651799,3.7508938 0.11573536,0.65403278 73.340801 0 0 5.2571631,4.0177552 0.11573536,0.65403278 73.340801 0 0 6.0519039,3.8639134 0.11573536,0.65403278 73.340801 0 0 6.3931823,3.7118367 L 6.3705182,3.6823532 6.2415535,3.6626308 6.449281,3.5981819 a 0.11573536,0.65403278 73.340801 0 0 -0.00267,-0.00134 0.11573536,0.65403278 73.340801 0 0 -0.065185,-0.00742 z" />
    <text
       xml:space="preserve"
       id="text47"
       style="font-style:normal;font-variant:normal;font-weight:normal;font-stretch:normal;font-size:96px;font-family:'Bauhaus 93';-inkscape-font-specification:'Bauhaus 93, ';white-space:pre;shape-inside:url(#rect47);display:inline;fill:#001B30;fill-opacity:1"
       transform="matrix(0.02320664,0,0,0.02183787,9.0005825,15.327905)"><tspan
         x="-142.60156"
         y="-86.76668"
         id="tspan2">CVR</tspan></text>
  </g>
</svg>
