<?xml version="1.0" encoding="UTF-8" standalone="no"?>
<!-- Created with Inkscape (http://www.inkscape.org/) -->

<svg
   width="8.2594442mm"
   height="8.3753128mm"
   viewBox="0 0 8.2594442 8.3753128"
   version="1.1"
   id="svg1"
   xml:space="preserve"
   inkscape:version="1.3.2 (091e20e, 2023-11-25, custom)"
   sodipodi:docname="saque.svg"
   xmlns:inkscape="http://www.inkscape.org/namespaces/inkscape"
   xmlns:sodipodi="http://sodipodi.sourceforge.net/DTD/sodipodi-0.dtd"
   xmlns="http://www.w3.org/2000/svg"
   xmlns:svg="http://www.w3.org/2000/svg"><sodipodi:namedview
     id="namedview1"
     pagecolor="#ffffff"
     bordercolor="#000000"
     borderopacity="0.25"
     inkscape:showpageshadow="2"
     inkscape:pageopacity="0.0"
     inkscape:pagecheckerboard="0"
     inkscape:deskcolor="#d1d1d1"
     inkscape:document-units="mm"
     inkscape:zoom="2.9611953"
     inkscape:cx="485.95242"
     inkscape:cy="275.05785"
     inkscape:window-width="1920"
     inkscape:window-height="1009"
     inkscape:window-x="-8"
     inkscape:window-y="-8"
     inkscape:window-maximized="1"
     inkscape:current-layer="layer1" /><defs
     id="defs1" /><g
     inkscape:label="Capa 1"
     inkscape:groupmode="layer"
     id="layer1"
     transform="translate(-123.11917,-69.707365)"><path
       id="path1"
       style="fill:#1a1a1a;stroke-width:1.73858"
       d="m 125.34564,69.707369 a 0.93366833,0.93366833 0 0 0 -0.93366,0.933653 0.93366833,0.93366833 0 0 0 0.93366,0.933651 0.93366833,0.93366833 0 0 0 0.93365,-0.933651 0.93366833,0.93366833 0 0 0 -0.93365,-0.933653 z m -1.24955,1.867304 a 0.47232638,0.47232638 0 0 0 -0.47238,0.472397 l -0.41743,2.188224 c 0,0 -0.37074,0.593261 0.41743,0.790981 0.78816,0.197716 1.42796,0.417411 1.42796,0.417411 0,0 0.80465,0.307431 0.5493,1.999015 -0.25535,1.691581 1.64755,-0.50528 1.64755,-0.50528 0,0 0.30756,-2.196794 0.59315,-2.306637 0.24695,-0.09498 2.50761,-0.67696 3.13103,-0.861598 a 0.47232638,0.47232638 0 0 0 0.15255,-0.05032 c 0.002,-0.0016 0.0124,-0.0044 0.0124,-0.0054 1.6e-4,-3.02e-4 -1.3e-4,-0.0011 0,-0.0013 a 0.47232638,0.47232638 0 0 0 0.24096,-0.410405 0.47232638,0.47232638 0 0 0 -0.47221,-0.472217 0.47232638,0.47232638 0 0 0 -0.0835,0.0083 l -1.8e-4,-8.98e-4 -0.01,0.003 a 0.47232638,0.47232638 0 0 0 -0.10188,0.03182 0.47232638,0.47232638 0 0 0 -9.1e-4,3.59e-4 l -2.95638,0.92395 c 0,0 -2.40816,0.856792 -2.40816,0.834823 v -0.02192 l -1.24954,-0.373567 0.43017,-1.993624 a 0.47232638,0.47232638 0 0 0 0.0421,-0.194601 0.47232638,0.47232638 0 0 0 -0.47221,-0.472397 z m 1.88923,0.793317 a 0.93366833,0.93366833 0 0 0 -0.93365,0.933651 0.93366833,0.93366833 0 0 0 0.93365,0.933653 0.93366833,0.93366833 0 0 0 0.93365,-0.933653 0.93366833,0.93366833 0 0 0 -0.93365,-0.933651 z" /></g></svg>
